<svg width="20" height="20" viewBox="0 0 20 20" fill="none" xmlns="http://www.w3.org/2000/svg">
<path fill-rule="evenodd" clip-rule="evenodd" d="M1.65612 2.46104C2.22659 1.91643 3.1292 1.67761 4.00227 2.06696L17.7604 8.20238C19.3574 8.91458 19.3574 11.086 17.7604 11.7982L4.00227 17.9337C3.1292 18.323 2.22659 18.0842 1.65612 17.5396C1.08084 16.9904 0.815173 16.0935 1.27432 15.2335L3.90101 10.3138L4.45235 10.6081L3.90101 10.3138C4.00709 10.1151 4.00709 9.88552 3.90101 9.68684L1.27432 4.76708C0.815172 3.90711 1.08084 3.01025 1.65612 2.46104ZM2.51927 3.36518C2.2908 3.5833 2.21869 3.88186 2.37699 4.17835L1.82565 4.47271L2.37699 4.17835L5.00369 9.09811C5.30619 9.6647 5.3062 10.3359 5.00369 10.9025L2.37699 15.8223C2.2187 16.1187 2.2908 16.4173 2.51927 16.6354C2.75256 16.8581 3.1197 16.9586 3.49316 16.792L17.2513 10.6566C17.8605 10.3849 17.8605 9.61567 17.2513 9.344L3.49316 3.20858C3.1197 3.04204 2.75256 3.14247 2.51927 3.36518Z" fill="#02093A"/>
</svg>
