<svg width="40" height="40" viewBox="0 0 40 40" fill="none" xmlns="http://www.w3.org/2000/svg">
<rect width="40" height="40" rx="5" fill="#3B82F6"/>
<path d="M22.6556 16H19.9996C19.5516 16 19.1996 15.648 19.1996 15.2C19.1996 14.752 19.5516 14.4 19.9996 14.4H23.1836C23.2316 14.4 23.2796 14.4 23.3276 14.416C23.4556 14.432 23.5836 14.48 23.6796 14.56C23.7596 14.624 23.8236 14.688 23.8876 14.784C23.9036 14.832 23.9356 14.88 23.9516 14.928L25.6636 19.2H26.3996C27.4604 19.2 28.4778 19.6215 29.228 20.3716C29.9781 21.1217 30.3996 22.1392 30.3996 23.2C30.3996 24.2609 29.9781 25.2783 29.228 26.0285C28.4778 26.7786 27.4604 27.2 26.3996 27.2C25.8063 27.2001 25.2205 27.0683 24.6846 26.8141C24.1486 26.5599 23.6758 26.1896 23.3006 25.7302C22.9254 25.2707 22.6571 24.7335 22.515 24.1576C22.373 23.5816 22.3609 22.9813 22.4796 22.4H20.7996C20.7996 23.28 20.0796 24 19.1996 24H17.5196C17.3749 24.708 17.0411 25.3635 16.5537 25.8969C16.0664 26.4304 15.4436 26.8219 14.7516 27.0298C14.0596 27.2377 13.3242 27.2543 12.6236 27.0778C11.9229 26.9013 11.2831 26.5384 10.7722 26.0274C10.2612 25.5165 9.89824 24.8767 9.72174 24.176C9.54525 23.4754 9.56185 22.74 9.76978 22.048C9.9777 21.3559 10.3692 20.7332 10.9027 20.2458C11.4361 19.7585 12.0916 19.4247 12.7996 19.28V19.2H17.5996L23.3596 17.76L22.6556 16ZM15.8556 24H14.3996C13.5196 24 12.7996 23.28 12.7996 22.4V20.944C12.4172 21.0784 12.0752 21.3075 11.8055 21.61C11.5358 21.9125 11.3472 22.2784 11.2573 22.6735C11.1674 23.0687 11.1792 23.4802 11.2915 23.8695C11.4038 24.2589 11.613 24.6134 11.8996 24.9C12.1861 25.1865 12.5407 25.3958 12.9301 25.5081C13.3194 25.6204 13.7309 25.6322 14.1261 25.5423C14.5212 25.4524 14.8871 25.2638 15.1896 24.9941C15.492 24.7243 15.7212 24.3823 15.8556 24ZM24.8156 21.392C24.3196 21.84 23.9996 22.48 23.9996 23.2C23.9996 24.528 25.0716 25.6 26.3996 25.6C27.7276 25.6 28.7996 24.528 28.7996 23.2C28.7996 21.872 27.7276 20.8 26.3996 20.8H26.3036L27.1356 22.896C27.3116 23.312 27.1036 23.776 26.7036 23.936C26.607 23.977 26.5033 23.9983 26.3985 23.9987C26.2936 23.9991 26.1897 23.9786 26.0929 23.9383C25.996 23.8981 25.9082 23.839 25.8345 23.7644C25.7608 23.6898 25.7027 23.6013 25.6636 23.504L24.8156 21.392ZM15.9996 18.4H11.1996V16H14.3996C15.2796 16 15.9996 16.72 15.9996 17.6V18.4Z" fill="white"/>
</svg>
