<svg width="32" height="30" viewBox="0 0 32 30" fill="none" xmlns="http://www.w3.org/2000/svg">
<path d="M23.72 9.62204e-08C24.8761 -0.000226625 25.9966 0.400216 26.8908 1.13317C27.7849 1.86612 28.3974 2.88628 28.624 4.02L29.018 6H30.5C30.8625 6.00002 31.2127 6.13129 31.4859 6.36953C31.759 6.60778 31.9367 6.93689 31.986 7.296L32 7.5C32 7.86248 31.8687 8.21268 31.6305 8.48586C31.3922 8.75904 31.0631 8.9367 30.704 8.986L30.5 9H29.618L29.842 10.12C30.4648 10.3021 31.0117 10.6812 31.4008 11.2005C31.7899 11.7197 32.0001 12.3511 32 13V23C32 23.7956 31.6839 24.5587 31.1213 25.1213C30.5587 25.6839 29.7956 26 29 26H28V28C28 28.5304 27.7893 29.0391 27.4142 29.4142C27.0391 29.7893 26.5304 30 26 30C25.4696 30 24.9609 29.7893 24.5858 29.4142C24.2107 29.0391 24 28.5304 24 28V26H8V28C8 28.5304 7.78929 29.0391 7.41421 29.4142C7.03914 29.7893 6.53043 30 6 30C5.46957 30 4.96086 29.7893 4.58579 29.4142C4.21071 29.0391 4 28.5304 4 28V26H3C2.20435 26 1.44129 25.6839 0.87868 25.1213C0.316071 24.5587 5.68937e-08 23.7956 5.68937e-08 23V13C-0.000126269 12.3511 0.210118 11.7197 0.5992 11.2005C0.988281 10.6812 1.53523 10.3021 2.158 10.12L2.38 9H1.5C1.10218 9 0.720644 8.84196 0.43934 8.56066C0.158035 8.27936 5.68937e-08 7.89782 5.68937e-08 7.5C5.68937e-08 7.10218 0.158035 6.72064 0.43934 6.43934C0.720644 6.15804 1.10218 6 1.5 6H2.98L3.376 4.02C3.60261 2.88628 4.2151 1.86612 5.10923 1.13317C6.00335 0.400216 7.12385 -0.000226625 8.28 9.62204e-08H23.72ZM29 12H3C2.73478 12 2.48043 12.1054 2.29289 12.2929C2.10536 12.4804 2 12.7348 2 13V23C2 23.2652 2.10536 23.5196 2.29289 23.7071C2.48043 23.8946 2.73478 24 3 24H29C29.2652 24 29.5196 23.8946 29.7071 23.7071C29.8946 23.5196 30 23.2652 30 23V13C30 12.7348 29.8946 12.4804 29.7071 12.2929C29.5196 12.1054 29.2652 12 29 12ZM8 16C8.53043 16 9.03914 16.2107 9.41421 16.5858C9.78929 16.9609 10 17.4696 10 18C10 18.5304 9.78929 19.0391 9.41421 19.4142C9.03914 19.7893 8.53043 20 8 20C7.46957 20 6.96086 19.7893 6.58579 19.4142C6.21071 19.0391 6 18.5304 6 18C6 17.4696 6.21071 16.9609 6.58579 16.5858C6.96086 16.2107 7.46957 16 8 16ZM24 16C24.5304 16 25.0391 16.2107 25.4142 16.5858C25.7893 16.9609 26 17.4696 26 18C26 18.5304 25.7893 19.0391 25.4142 19.4142C25.0391 19.7893 24.5304 20 24 20C23.4696 20 22.9609 19.7893 22.5858 19.4142C22.2107 19.0391 22 18.5304 22 18C22 17.4696 22.2107 16.9609 22.5858 16.5858C22.9609 16.2107 23.4696 16 24 16ZM23.72 2H8.28C7.58638 1.99996 6.91417 2.24026 6.37778 2.68003C5.84139 3.11979 5.47395 3.73183 5.338 4.412L4.218 10H27.78L26.662 4.412C26.5261 3.73217 26.159 3.12038 25.623 2.68066C25.087 2.24094 24.4153 2.00042 23.722 2" fill="#DC2626"/>
</svg>
