<svg width="621" height="248" viewBox="0 0 621 248" fill="none" xmlns="http://www.w3.org/2000/svg">
<g clip-path="url(#clip0_4931_13535)">
<rect width="621" height="248" rx="8" fill="#EBF3FE"/>
<g clip-path="url(#clip1_4931_13535)">
<rect x="123" y="16" width="375" height="812" rx="25" fill="white"/>
<path d="M178.017 41.7231C178.659 41.7231 179.267 41.8421 179.843 42.0801C180.418 42.3125 180.927 42.6777 181.37 43.1758C181.818 43.6683 182.17 44.3019 182.424 45.0767C182.679 45.8459 182.806 46.7728 182.806 47.8574V47.874C182.806 49.2188 182.612 50.3698 182.225 51.3271C181.838 52.2845 181.282 53.0205 180.557 53.5352C179.837 54.0443 178.977 54.2988 177.975 54.2988C177.239 54.2988 176.575 54.166 175.983 53.9004C175.396 53.6292 174.909 53.2585 174.522 52.7881C174.14 52.3122 173.883 51.7699 173.75 51.1611L173.733 51.0698H175.833L175.867 51.1528C175.972 51.4295 176.121 51.673 176.315 51.8833C176.514 52.0936 176.752 52.2568 177.029 52.373C177.311 52.4837 177.626 52.5391 177.975 52.5391C178.606 52.5391 179.121 52.3537 179.519 51.9829C179.923 51.6066 180.225 51.1058 180.424 50.4805C180.629 49.8496 180.745 49.1523 180.772 48.3887C180.778 48.3057 180.781 48.2254 180.781 48.1479C180.781 48.0649 180.781 47.9847 180.781 47.9072L180.407 45.9067C180.407 45.453 180.302 45.0407 180.092 44.6699C179.882 44.2992 179.597 44.0059 179.237 43.79C178.883 43.5742 178.481 43.4663 178.033 43.4663C177.602 43.4663 177.206 43.5715 176.846 43.7817C176.486 43.992 176.199 44.2798 175.983 44.645C175.767 45.0047 175.659 45.4087 175.659 45.8569V45.8735C175.659 46.3384 175.762 46.7507 175.966 47.1104C176.171 47.4645 176.451 47.744 176.805 47.9487C177.159 48.1535 177.563 48.2559 178.017 48.2559C178.47 48.2559 178.877 48.1562 179.237 47.957C179.597 47.7578 179.882 47.4811 180.092 47.127C180.302 46.7728 180.407 46.3716 180.407 45.9233V45.9067H180.905V48.1147H180.615C180.471 48.4302 180.258 48.7235 179.976 48.9946C179.693 49.2658 179.345 49.4844 178.93 49.6504C178.52 49.8164 178.039 49.8994 177.485 49.8994C176.722 49.8994 176.047 49.7279 175.46 49.3848C174.873 49.0417 174.411 48.5713 174.074 47.9736C173.742 47.376 173.576 46.7008 173.576 45.9482V45.9316C173.576 45.1182 173.764 44.396 174.14 43.7651C174.522 43.1287 175.048 42.6307 175.717 42.271C176.392 41.9058 177.159 41.7231 178.017 41.7231ZM186.575 52.3896C186.198 52.3896 185.883 52.2651 185.628 52.0161C185.379 51.7616 185.255 51.4517 185.255 51.0864C185.255 50.7157 185.379 50.4058 185.628 50.1567C185.883 49.9022 186.198 49.7749 186.575 49.7749C186.957 49.7749 187.272 49.9022 187.521 50.1567C187.77 50.4058 187.895 50.7157 187.895 51.0864C187.895 51.4517 187.77 51.7616 187.521 52.0161C187.272 52.2651 186.957 52.3896 186.575 52.3896ZM186.575 46.2305C186.198 46.2305 185.883 46.106 185.628 45.8569C185.379 45.6024 185.255 45.2925 185.255 44.9272C185.255 44.5565 185.379 44.2466 185.628 43.9976C185.883 43.743 186.198 43.6157 186.575 43.6157C186.957 43.6157 187.272 43.743 187.521 43.9976C187.77 44.2466 187.895 44.5565 187.895 44.9272C187.895 45.2925 187.77 45.6024 187.521 45.8569C187.272 46.106 186.957 46.2305 186.575 46.2305ZM196.154 54V51.7007H190.293V49.9492C190.609 49.4124 190.924 48.8729 191.24 48.3306C191.561 47.7882 191.884 47.2487 192.211 46.7119C192.543 46.1696 192.872 45.6356 193.199 45.1099C193.531 44.5786 193.86 44.0557 194.187 43.541C194.519 43.0208 194.851 42.5145 195.183 42.022H198.196V49.9326H199.814V51.7007H198.196V54H196.154ZM192.286 49.9824H196.187V43.7319H196.062C195.819 44.1082 195.567 44.4956 195.307 44.894C195.053 45.2925 194.795 45.6992 194.535 46.1143C194.275 46.5293 194.018 46.9471 193.763 47.3677C193.509 47.7827 193.257 48.2005 193.008 48.6211C192.759 49.0361 192.518 49.4484 192.286 49.8579V49.9824ZM204.77 54V44.1304H204.621L201.641 46.2305V44.2217L204.77 42.022H206.903V54H204.77Z" fill="black"/>
<path fill-rule="evenodd" clip-rule="evenodd" d="M410.615 43.0329C410.615 42.3999 410.137 41.8867 409.548 41.8867H408.482C407.893 41.8867 407.415 42.3999 407.415 43.0329V52.9669C407.415 53.5999 407.893 54.1131 408.482 54.1131H409.548C410.137 54.1131 410.615 53.5999 410.615 52.9669V43.0329ZM403.181 44.332H404.248C404.837 44.332 405.314 44.8575 405.314 45.5057V52.9394C405.314 53.5876 404.837 54.1131 404.248 54.1131H403.181C402.592 54.1131 402.114 53.5876 402.114 52.9394V45.5057C402.114 44.8575 402.592 44.332 403.181 44.332ZM398.849 46.981H397.782C397.193 46.981 396.716 47.5132 396.716 48.1697V52.9244C396.716 53.5809 397.193 54.1131 397.782 54.1131H398.849C399.438 54.1131 399.916 53.5809 399.916 52.9244V48.1697C399.916 47.5132 399.438 46.981 398.849 46.981ZM393.548 49.4263H392.482C391.893 49.4263 391.415 49.9509 391.415 50.598V52.9414C391.415 53.5885 391.893 54.1131 392.482 54.1131H393.548C394.137 54.1131 394.615 53.5885 394.615 52.9414V50.598C394.615 49.9509 394.137 49.4263 393.548 49.4263Z" fill="black"/>
<path fill-rule="evenodd" clip-rule="evenodd" d="M426.187 44.3022C428.674 44.3023 431.066 45.2244 432.868 46.8779C433.004 47.0055 433.221 47.0039 433.355 46.8743L434.652 45.6108C434.72 45.545 434.757 45.456 434.757 45.3633C434.756 45.2706 434.718 45.182 434.649 45.117C429.918 40.7423 422.454 40.7423 417.723 45.117C417.655 45.1819 417.616 45.2705 417.615 45.3632C417.615 45.4559 417.652 45.545 417.72 45.6108L419.018 46.8743C419.151 47.0041 419.369 47.0057 419.504 46.8779C421.307 45.2243 423.699 44.3022 426.187 44.3022ZM426.183 48.5225C427.541 48.5224 428.849 49.0342 429.856 49.9583C429.992 50.0894 430.206 50.0866 430.339 49.9519L431.626 48.6326C431.694 48.5634 431.731 48.4695 431.73 48.3719C431.729 48.2744 431.69 48.1813 431.621 48.1135C428.557 45.2227 423.812 45.2227 420.748 48.1135C420.679 48.1813 420.64 48.2744 420.639 48.372C420.638 48.4696 420.676 48.5635 420.743 48.6326L422.03 49.9519C422.163 50.0866 422.377 50.0894 422.513 49.9583C423.519 49.0348 424.827 48.5231 426.183 48.5225ZM428.708 51.316C428.71 51.4214 428.672 51.523 428.605 51.5968L426.429 54.0515C426.365 54.1236 426.278 54.1642 426.187 54.1642C426.096 54.1642 426.009 54.1236 425.945 54.0515L423.768 51.5968C423.701 51.5229 423.664 51.4213 423.666 51.316C423.668 51.2106 423.709 51.1108 423.779 51.0402C425.169 49.7263 427.205 49.7263 428.595 51.0402C428.665 51.1109 428.706 51.2107 428.708 51.316Z" fill="black"/>
<rect opacity="0.35" x="442.257" y="42" width="24" height="12" rx="3.8" stroke="black"/>
<path opacity="0.4" d="M467.757 46.2812V50.3567C468.562 50.0116 469.085 49.2086 469.085 48.319C469.085 47.4294 468.562 46.6264 467.757 46.2812Z" fill="black"/>
<rect x="443.757" y="43.5" width="21" height="9" rx="2.5" fill="black"/>
<path fill-rule="evenodd" clip-rule="evenodd" d="M154.53 87.4697C154.823 87.7626 154.823 88.2374 154.53 88.5303L149.811 93.25H164C164.414 93.25 164.75 93.5858 164.75 94C164.75 94.4142 164.414 94.75 164 94.75H149.811L154.53 99.4697C154.823 99.7626 154.823 100.237 154.53 100.53C154.237 100.823 153.763 100.823 153.47 100.53L147.47 94.5303C147.177 94.2374 147.177 93.7626 147.47 93.4697L153.47 87.4697C153.763 87.1768 154.237 87.1768 154.53 87.4697Z" fill="#02093A"/>
<path d="M153.075 146L147.525 127.75H151.75L156.15 143.15L155.2 142.675H157.75L156.75 143.15L160.825 127.75H164.925L159.75 146H153.075ZM171.532 146.475C170.365 146.475 169.332 146.275 168.432 145.875C167.548 145.475 166.807 144.942 166.207 144.275C165.623 143.592 165.173 142.833 164.857 142C164.557 141.15 164.407 140.283 164.407 139.4V138.9C164.407 137.983 164.557 137.108 164.857 136.275C165.173 135.425 165.623 134.667 166.207 134C166.79 133.333 167.515 132.808 168.382 132.425C169.265 132.025 170.265 131.825 171.382 131.825C172.848 131.825 174.082 132.158 175.082 132.825C176.098 133.475 176.873 134.333 177.407 135.4C177.94 136.45 178.207 137.6 178.207 138.85V140.2H166.082V137.925H175.782L174.482 138.975C174.482 138.158 174.365 137.458 174.132 136.875C173.898 136.292 173.548 135.85 173.082 135.55C172.632 135.233 172.065 135.075 171.382 135.075C170.682 135.075 170.09 135.233 169.607 135.55C169.123 135.867 168.757 136.333 168.507 136.95C168.257 137.55 168.132 138.292 168.132 139.175C168.132 139.992 168.248 140.708 168.482 141.325C168.715 141.925 169.082 142.392 169.582 142.725C170.082 143.058 170.732 143.225 171.532 143.225C172.265 143.225 172.865 143.083 173.332 142.8C173.798 142.517 174.115 142.167 174.282 141.75H177.957C177.757 142.667 177.365 143.483 176.782 144.2C176.198 144.917 175.465 145.475 174.582 145.875C173.698 146.275 172.682 146.475 171.532 146.475ZM179.857 146V132.3H183.032V138.175H182.957C182.957 136.242 183.366 134.75 184.182 133.7C185.016 132.65 186.216 132.125 187.782 132.125H188.307V135.575H187.307C186.207 135.575 185.357 135.875 184.757 136.475C184.157 137.058 183.857 137.908 183.857 139.025V146H179.857ZM190.03 146V132.3H194.03V146H190.03ZM188.205 135.25V132.3H194.03V135.25H188.205ZM191.58 130.95C190.83 130.95 190.271 130.758 189.905 130.375C189.555 129.975 189.38 129.475 189.38 128.875C189.38 128.258 189.555 127.758 189.905 127.375C190.271 126.975 190.83 126.775 191.58 126.775C192.33 126.775 192.88 126.975 193.23 127.375C193.596 127.758 193.78 128.258 193.78 128.875C193.78 129.475 193.596 129.975 193.23 130.375C192.88 130.758 192.33 130.95 191.58 130.95ZM197.004 146V132.025C197.004 130.442 197.446 129.267 198.329 128.5C199.229 127.733 200.554 127.35 202.304 127.35H203.654V130.35H202.129C201.679 130.35 201.329 130.475 201.079 130.725C200.846 130.975 200.729 131.325 200.729 131.775V146H197.004ZM195.404 135.35V132.425H203.604V135.35H195.404ZM206.304 146V132.3H210.304V146H206.304ZM204.679 135.25V132.3H210.304V135.25H204.679ZM207.854 130.95C207.104 130.95 206.546 130.758 206.179 130.375C205.829 129.975 205.654 129.475 205.654 128.875C205.654 128.258 205.829 127.758 206.179 127.375C206.546 126.975 207.104 126.775 207.854 126.775C208.621 126.775 209.179 126.975 209.529 127.375C209.879 127.758 210.054 128.258 210.054 128.875C210.054 129.475 209.879 129.975 209.529 130.375C209.179 130.758 208.621 130.95 207.854 130.95ZM219.164 146.475C217.981 146.475 216.948 146.283 216.064 145.9C215.198 145.5 214.473 144.967 213.889 144.3C213.306 143.633 212.873 142.883 212.589 142.05C212.306 141.2 212.164 140.325 212.164 139.425V138.95C212.164 138.017 212.314 137.125 212.614 136.275C212.914 135.408 213.356 134.642 213.939 133.975C214.523 133.308 215.248 132.783 216.114 132.4C216.998 132.017 218.006 131.825 219.139 131.825C220.373 131.825 221.464 132.067 222.414 132.55C223.364 133.017 224.123 133.675 224.689 134.525C225.256 135.375 225.573 136.35 225.639 137.45H221.714C221.648 136.833 221.398 136.317 220.964 135.9C220.548 135.467 219.939 135.25 219.139 135.25C218.473 135.25 217.914 135.417 217.464 135.75C217.031 136.083 216.706 136.542 216.489 137.125C216.273 137.708 216.164 138.4 216.164 139.2C216.164 139.933 216.264 140.6 216.464 141.2C216.664 141.783 216.981 142.242 217.414 142.575C217.864 142.892 218.448 143.05 219.164 143.05C219.698 143.05 220.148 142.958 220.514 142.775C220.898 142.575 221.198 142.308 221.414 141.975C221.648 141.625 221.789 141.225 221.839 140.775H225.739C225.689 141.908 225.373 142.908 224.789 143.775C224.206 144.625 223.431 145.292 222.464 145.775C221.498 146.242 220.398 146.475 219.164 146.475ZM235.573 146V141.95H234.898V137.55C234.898 136.85 234.731 136.325 234.398 135.975C234.064 135.625 233.531 135.45 232.798 135.45C232.431 135.45 231.948 135.458 231.348 135.475C230.748 135.492 230.131 135.517 229.498 135.55C228.864 135.583 228.289 135.617 227.773 135.65V132.275C228.156 132.242 228.606 132.208 229.123 132.175C229.639 132.142 230.173 132.117 230.723 132.1C231.273 132.083 231.789 132.075 232.273 132.075C233.673 132.075 234.848 132.275 235.798 132.675C236.764 133.075 237.498 133.683 237.998 134.5C238.498 135.3 238.748 136.333 238.748 137.6V146H235.573ZM231.198 146.35C230.214 146.35 229.348 146.175 228.598 145.825C227.864 145.475 227.289 144.975 226.873 144.325C226.456 143.658 226.248 142.867 226.248 141.95C226.248 140.95 226.506 140.133 227.023 139.5C227.539 138.85 228.264 138.375 229.198 138.075C230.131 137.758 231.206 137.6 232.423 137.6H235.348V139.825H232.398C231.698 139.825 231.156 140 230.773 140.35C230.406 140.683 230.223 141.142 230.223 141.725C230.223 142.275 230.406 142.725 230.773 143.075C231.156 143.408 231.698 143.575 232.398 143.575C232.848 143.575 233.248 143.5 233.598 143.35C233.964 143.183 234.264 142.908 234.498 142.525C234.731 142.142 234.864 141.608 234.898 140.925L235.848 141.925C235.764 142.875 235.531 143.675 235.148 144.325C234.781 144.975 234.264 145.475 233.598 145.825C232.948 146.175 232.148 146.35 231.198 146.35ZM247.366 146.175C245.983 146.175 244.866 146.008 244.016 145.675C243.166 145.325 242.541 144.75 242.141 143.95C241.758 143.133 241.566 142.033 241.566 140.65V128.6H245.291V140.8C245.291 141.45 245.458 141.95 245.791 142.3C246.141 142.633 246.633 142.8 247.266 142.8H249.291V146.175H247.366ZM239.491 135.225V132.3H249.291V135.225H239.491ZM251.631 146V132.3H255.631V146H251.631ZM249.806 135.25V132.3H255.631V135.25H249.806ZM253.181 130.95C252.431 130.95 251.873 130.758 251.506 130.375C251.156 129.975 250.981 129.475 250.981 128.875C250.981 128.258 251.156 127.758 251.506 127.375C251.873 126.975 252.431 126.775 253.181 126.775C253.931 126.775 254.481 126.975 254.831 127.375C255.198 127.758 255.381 128.258 255.381 128.875C255.381 129.475 255.198 129.975 254.831 130.375C254.481 130.758 253.931 130.95 253.181 130.95ZM265.006 146.475C263.806 146.475 262.739 146.292 261.806 145.925C260.873 145.542 260.081 145.025 259.431 144.375C258.798 143.725 258.314 142.983 257.981 142.15C257.648 141.3 257.481 140.408 257.481 139.475V138.9C257.481 137.95 257.648 137.05 257.981 136.2C258.331 135.333 258.831 134.575 259.481 133.925C260.148 133.275 260.948 132.767 261.881 132.4C262.814 132.017 263.856 131.825 265.006 131.825C266.189 131.825 267.239 132.017 268.156 132.4C269.089 132.767 269.881 133.275 270.531 133.925C271.181 134.575 271.681 135.333 272.031 136.2C272.381 137.05 272.556 137.95 272.556 138.9V139.475C272.556 140.408 272.389 141.3 272.056 142.15C271.723 142.983 271.231 143.725 270.581 144.375C269.948 145.025 269.164 145.542 268.231 145.925C267.298 146.292 266.223 146.475 265.006 146.475ZM265.006 143.1C265.789 143.1 266.439 142.933 266.956 142.6C267.473 142.267 267.864 141.8 268.131 141.2C268.414 140.6 268.556 139.933 268.556 139.2C268.556 138.417 268.414 137.733 268.131 137.15C267.848 136.55 267.439 136.075 266.906 135.725C266.389 135.375 265.756 135.2 265.006 135.2C264.273 135.2 263.639 135.375 263.106 135.725C262.573 136.075 262.164 136.55 261.881 137.15C261.614 137.733 261.481 138.417 261.481 139.2C261.481 139.933 261.614 140.6 261.881 141.2C262.148 141.8 262.548 142.267 263.081 142.6C263.614 142.933 264.256 143.1 265.006 143.1ZM274.347 146V132.3H277.522V138.175H277.297C277.297 136.775 277.472 135.608 277.822 134.675C278.189 133.742 278.739 133.042 279.472 132.575C280.206 132.108 281.097 131.875 282.147 131.875H282.322C283.922 131.875 285.139 132.4 285.972 133.45C286.822 134.483 287.247 136.058 287.247 138.175V146H283.247V137.95C283.247 137.217 283.031 136.617 282.597 136.15C282.164 135.683 281.581 135.45 280.847 135.45C280.097 135.45 279.489 135.692 279.022 136.175C278.572 136.642 278.347 137.258 278.347 138.025V146H274.347ZM294.856 146.425C292.906 146.425 291.381 146.025 290.281 145.225C289.181 144.425 288.598 143.3 288.531 141.85H292.081C292.148 142.283 292.406 142.675 292.856 143.025C293.323 143.358 294.014 143.525 294.931 143.525C295.631 143.525 296.206 143.408 296.656 143.175C297.123 142.925 297.356 142.575 297.356 142.125C297.356 141.725 297.181 141.408 296.831 141.175C296.481 140.925 295.856 140.75 294.956 140.65L293.881 140.55C292.231 140.383 290.989 139.925 290.156 139.175C289.339 138.425 288.931 137.467 288.931 136.3C288.931 135.333 289.173 134.525 289.656 133.875C290.139 133.225 290.806 132.733 291.656 132.4C292.523 132.067 293.506 131.9 294.606 131.9C296.373 131.9 297.798 132.292 298.881 133.075C299.964 133.842 300.531 134.958 300.581 136.425H297.031C296.964 135.975 296.731 135.6 296.331 135.3C295.931 134.983 295.339 134.825 294.556 134.825C293.939 134.825 293.448 134.942 293.081 135.175C292.714 135.408 292.531 135.725 292.531 136.125C292.531 136.508 292.689 136.8 293.006 137C293.323 137.2 293.839 137.342 294.556 137.425L295.631 137.525C297.314 137.708 298.623 138.175 299.556 138.925C300.489 139.675 300.956 140.683 300.956 141.95C300.956 142.867 300.706 143.667 300.206 144.35C299.706 145.017 298.998 145.533 298.081 145.9C297.164 146.25 296.089 146.425 294.856 146.425Z" fill="#333333"/>
<rect x="143" y="168" width="336" height="94" rx="16" fill="#F5F5F7"/>
<rect x="163" y="195" width="40" height="40" rx="20" fill="#E6E7ED"/>
<path d="M185.55 214.249C185.779 213.992 185.757 213.597 185.5 213.367C185.242 213.137 184.847 213.159 184.617 213.417L182.107 216.228L181.383 215.417C181.153 215.159 180.758 215.137 180.5 215.367C180.243 215.597 180.221 215.992 180.45 216.249L181.641 217.583C181.76 217.716 181.929 217.792 182.107 217.792C182.285 217.792 182.455 217.716 182.573 217.583L185.55 214.249Z" fill="#010C4A"/>
<path fill-rule="evenodd" clip-rule="evenodd" d="M183 206.542C182.219 206.542 181.473 206.797 180.269 207.209L179.663 207.417C178.429 207.839 177.476 208.165 176.794 208.442C176.451 208.582 176.155 208.717 175.917 208.855C175.689 208.988 175.459 209.154 175.303 209.376C175.149 209.596 175.069 209.866 175.019 210.126C174.967 210.396 174.936 210.72 174.915 211.093C174.875 211.832 174.875 212.844 174.875 214.158V215.493C174.875 220.577 178.715 223.014 180.999 224.012L181.021 224.022C181.304 224.146 181.571 224.262 181.876 224.34C182.199 224.423 182.542 224.458 183 224.458C183.458 224.458 183.801 224.423 184.124 224.34C184.429 224.262 184.696 224.146 184.979 224.022L185.001 224.012C187.285 223.014 191.125 220.577 191.125 215.493V214.158C191.125 212.845 191.125 211.832 191.085 211.093C191.064 210.72 191.033 210.396 190.981 210.126C190.931 209.866 190.851 209.596 190.697 209.376C190.541 209.154 190.311 208.988 190.083 208.855C189.845 208.717 189.549 208.582 189.206 208.442C188.524 208.165 187.571 207.839 186.337 207.417L185.731 207.209C184.527 206.797 183.781 206.542 183 206.542ZM180.567 208.428C181.913 207.968 182.452 207.792 183 207.792C183.548 207.792 184.087 207.968 185.433 208.428L185.91 208.592C187.171 209.023 188.09 209.338 188.735 209.6C189.057 209.731 189.291 209.841 189.455 209.936C189.536 209.983 189.591 210.022 189.629 210.052C189.66 210.078 189.672 210.092 189.674 210.094C189.676 210.097 189.686 210.114 189.7 210.155C189.717 210.202 189.736 210.269 189.754 210.362C189.79 210.551 189.818 210.811 189.837 211.161C189.875 211.862 189.875 212.84 189.875 214.18V215.493C189.875 219.805 186.65 221.928 184.501 222.866C184.191 223.002 184.013 223.078 183.814 223.129C183.624 223.178 183.392 223.208 183 223.208C182.608 223.208 182.376 223.178 182.186 223.129C181.987 223.078 181.809 223.002 181.499 222.866C179.35 221.928 176.125 219.805 176.125 215.493V214.18C176.125 212.84 176.125 211.862 176.163 211.161C176.182 210.811 176.21 210.551 176.246 210.362C176.264 210.269 176.283 210.202 176.3 210.155C176.314 210.114 176.324 210.097 176.326 210.094C176.328 210.092 176.34 210.078 176.371 210.052C176.409 210.022 176.464 209.983 176.545 209.936C176.709 209.841 176.943 209.731 177.265 209.6C177.91 209.338 178.829 209.023 180.09 208.592L180.567 208.428Z" fill="#010C4A"/>
<path d="M213.576 199.056V197.796H216.124C216.74 197.796 217.286 197.698 217.762 197.502C218.247 197.297 218.658 197.017 218.994 196.662C219.339 196.307 219.601 195.892 219.778 195.416C219.955 194.94 220.044 194.427 220.044 193.876C220.044 193.297 219.955 192.775 219.778 192.308C219.601 191.832 219.339 191.421 218.994 191.076C218.658 190.721 218.247 190.451 217.762 190.264C217.286 190.077 216.74 189.984 216.124 189.984H213.576V188.724H215.984C216.908 188.724 217.711 188.869 218.392 189.158C219.073 189.438 219.638 189.821 220.086 190.306C220.543 190.782 220.884 191.319 221.108 191.916C221.332 192.504 221.444 193.106 221.444 193.722V194.03C221.444 194.627 221.332 195.225 221.108 195.822C220.884 196.419 220.543 196.961 220.086 197.446C219.638 197.931 219.073 198.323 218.392 198.622C217.711 198.911 216.908 199.056 215.984 199.056H213.576ZM212.484 199.056V188.724H213.856V199.056H212.484ZM223.362 199V191.524H224.426V194.604H224.37C224.37 193.512 224.608 192.714 225.084 192.21C225.57 191.697 226.293 191.44 227.254 191.44H227.506V192.644H227.03C226.284 192.644 225.71 192.845 225.308 193.246C224.907 193.638 224.706 194.207 224.706 194.954V199H223.362ZM229.468 199V191.524H230.812V199H229.468ZM228.32 192.588V191.524H230.812V192.588H228.32ZM229.846 190.32C229.548 190.32 229.324 190.241 229.174 190.082C229.034 189.923 228.964 189.723 228.964 189.48C228.964 189.237 229.034 189.037 229.174 188.878C229.324 188.719 229.548 188.64 229.846 188.64C230.145 188.64 230.364 188.719 230.504 188.878C230.654 189.037 230.728 189.237 230.728 189.48C230.728 189.723 230.654 189.923 230.504 190.082C230.364 190.241 230.145 190.32 229.846 190.32ZM235.007 199L232.459 191.524H233.859L236.351 199H235.007ZM235.343 199V197.936H236.967V199H235.343ZM235.987 199L238.157 191.524H239.473L237.261 199H235.987ZM244.273 199.252C243.619 199.252 243.055 199.14 242.579 198.916C242.103 198.692 241.715 198.398 241.417 198.034C241.118 197.661 240.894 197.245 240.745 196.788C240.605 196.331 240.535 195.864 240.535 195.388V195.136C240.535 194.651 240.605 194.179 240.745 193.722C240.894 193.265 241.118 192.854 241.417 192.49C241.715 192.117 242.093 191.823 242.551 191.608C243.017 191.384 243.563 191.272 244.189 191.272C245.001 191.272 245.668 191.449 246.191 191.804C246.723 192.149 247.115 192.597 247.367 193.148C247.628 193.699 247.759 194.287 247.759 194.912V195.514H241.123V194.506H246.779L246.471 195.052C246.471 194.52 246.387 194.063 246.219 193.68C246.051 193.288 245.799 192.985 245.463 192.77C245.127 192.555 244.702 192.448 244.189 192.448C243.657 192.448 243.213 192.569 242.859 192.812C242.513 193.055 242.252 193.386 242.075 193.806C241.907 194.226 241.823 194.711 241.823 195.262C241.823 195.794 241.907 196.275 242.075 196.704C242.252 197.124 242.523 197.46 242.887 197.712C243.251 197.955 243.713 198.076 244.273 198.076C244.861 198.076 245.337 197.945 245.701 197.684C246.074 197.423 246.298 197.119 246.373 196.774H247.633C247.53 197.287 247.325 197.731 247.017 198.104C246.709 198.477 246.321 198.762 245.855 198.958C245.388 199.154 244.861 199.252 244.273 199.252ZM249.667 199V191.524H250.731V194.604H250.675C250.675 193.512 250.913 192.714 251.389 192.21C251.874 191.697 252.598 191.44 253.559 191.44H253.811V192.644H253.335C252.588 192.644 252.014 192.845 251.613 193.246C251.212 193.638 251.011 194.207 251.011 194.954V199H249.667ZM255.108 193.036V192.308H255.234C255.532 192.308 255.77 192.257 255.948 192.154C256.125 192.051 256.251 191.893 256.326 191.678C256.41 191.454 256.452 191.174 256.452 190.838V189.788L256.788 190.418C256.722 190.455 256.634 190.483 256.522 190.502C256.419 190.521 256.316 190.53 256.214 190.53C255.952 190.53 255.733 190.451 255.556 190.292C255.388 190.124 255.304 189.895 255.304 189.606C255.304 189.335 255.383 189.111 255.542 188.934C255.71 188.757 255.934 188.668 256.214 188.668C256.391 188.668 256.559 188.71 256.718 188.794C256.876 188.878 257.007 189.027 257.11 189.242C257.212 189.457 257.264 189.765 257.264 190.166V190.46C257.264 191.141 257.18 191.669 257.012 192.042C256.844 192.415 256.606 192.677 256.298 192.826C255.99 192.966 255.626 193.036 255.206 193.036H255.108ZM261.058 199.224C260.078 199.224 259.318 199.014 258.776 198.594C258.244 198.174 257.969 197.6 257.95 196.872H259.21C259.229 197.161 259.374 197.437 259.644 197.698C259.924 197.95 260.396 198.076 261.058 198.076C261.656 198.076 262.113 197.959 262.43 197.726C262.748 197.483 262.906 197.189 262.906 196.844C262.906 196.536 262.79 196.298 262.556 196.13C262.323 195.953 261.945 195.836 261.422 195.78L260.61 195.696C259.901 195.621 259.322 195.411 258.874 195.066C258.426 194.711 258.202 194.217 258.202 193.582C258.202 193.106 258.324 192.7 258.566 192.364C258.809 192.019 259.145 191.757 259.574 191.58C260.004 191.393 260.498 191.3 261.058 191.3C261.898 191.3 262.58 191.487 263.102 191.86C263.625 192.233 263.896 192.789 263.914 193.526H262.654C262.645 193.227 262.505 192.975 262.234 192.77C261.973 192.555 261.581 192.448 261.058 192.448C260.536 192.448 260.139 192.555 259.868 192.77C259.598 192.985 259.462 193.255 259.462 193.582C259.462 193.862 259.556 194.086 259.742 194.254C259.938 194.422 260.256 194.529 260.694 194.576L261.506 194.66C262.309 194.744 262.953 194.968 263.438 195.332C263.924 195.687 264.166 196.191 264.166 196.844C264.166 197.311 264.031 197.726 263.76 198.09C263.499 198.445 263.135 198.725 262.668 198.93C262.202 199.126 261.665 199.224 261.058 199.224ZM269.496 199V188.78H270.868V199H269.496ZM270.588 199V197.768H275.264V199H270.588ZM277.279 199V191.524H278.623V199H277.279ZM276.131 192.588V191.524H278.623V192.588H276.131ZM277.657 190.32C277.358 190.32 277.134 190.241 276.985 190.082C276.845 189.923 276.775 189.723 276.775 189.48C276.775 189.237 276.845 189.037 276.985 188.878C277.134 188.719 277.358 188.64 277.657 188.64C277.956 188.64 278.175 188.719 278.315 188.878C278.464 189.037 278.539 189.237 278.539 189.48C278.539 189.723 278.464 189.923 278.315 190.082C278.175 190.241 277.956 190.32 277.657 190.32ZM284.428 199.252C283.784 199.252 283.224 199.14 282.748 198.916C282.281 198.692 281.894 198.393 281.586 198.02C281.278 197.637 281.044 197.217 280.886 196.76C280.736 196.303 280.662 195.845 280.662 195.388V195.136C280.662 194.66 280.736 194.193 280.886 193.736C281.044 193.279 281.278 192.868 281.586 192.504C281.903 192.131 282.295 191.832 282.762 191.608C283.228 191.384 283.774 191.272 284.4 191.272C285.025 191.272 285.585 191.389 286.08 191.622C286.584 191.855 286.985 192.187 287.284 192.616C287.592 193.036 287.764 193.535 287.802 194.114H286.514C286.448 193.647 286.234 193.26 285.87 192.952C285.506 192.635 285.016 192.476 284.4 192.476C283.868 192.476 283.424 192.597 283.07 192.84C282.715 193.083 282.449 193.414 282.272 193.834C282.094 194.254 282.006 194.73 282.006 195.262C282.006 195.775 282.094 196.247 282.272 196.676C282.449 197.096 282.715 197.432 283.07 197.684C283.434 197.927 283.886 198.048 284.428 198.048C284.848 198.048 285.212 197.973 285.52 197.824C285.828 197.675 286.075 197.474 286.262 197.222C286.448 196.97 286.56 196.685 286.598 196.368H287.886C287.858 196.956 287.685 197.465 287.368 197.894C287.06 198.323 286.649 198.659 286.136 198.902C285.632 199.135 285.062 199.252 284.428 199.252ZM292.89 199.252C292.236 199.252 291.672 199.14 291.196 198.916C290.72 198.692 290.332 198.398 290.034 198.034C289.735 197.661 289.511 197.245 289.362 196.788C289.222 196.331 289.152 195.864 289.152 195.388V195.136C289.152 194.651 289.222 194.179 289.362 193.722C289.511 193.265 289.735 192.854 290.034 192.49C290.332 192.117 290.71 191.823 291.168 191.608C291.634 191.384 292.18 191.272 292.806 191.272C293.618 191.272 294.285 191.449 294.808 191.804C295.34 192.149 295.732 192.597 295.984 193.148C296.245 193.699 296.376 194.287 296.376 194.912V195.514H289.74V194.506H295.396L295.088 195.052C295.088 194.52 295.004 194.063 294.836 193.68C294.668 193.288 294.416 192.985 294.08 192.77C293.744 192.555 293.319 192.448 292.806 192.448C292.274 192.448 291.83 192.569 291.476 192.812C291.13 193.055 290.869 193.386 290.692 193.806C290.524 194.226 290.44 194.711 290.44 195.262C290.44 195.794 290.524 196.275 290.692 196.704C290.869 197.124 291.14 197.46 291.504 197.712C291.868 197.955 292.33 198.076 292.89 198.076C293.478 198.076 293.954 197.945 294.318 197.684C294.691 197.423 294.915 197.119 294.99 196.774H296.25C296.147 197.287 295.942 197.731 295.634 198.104C295.326 198.477 294.938 198.762 294.472 198.958C294.005 199.154 293.478 199.252 292.89 199.252ZM298.284 199V191.524H299.348V194.73H299.18C299.18 193.993 299.278 193.372 299.474 192.868C299.679 192.355 299.987 191.967 300.398 191.706C300.809 191.435 301.327 191.3 301.952 191.3H302.008C302.951 191.3 303.646 191.594 304.094 192.182C304.551 192.77 304.78 193.619 304.78 194.73V199H303.436V194.45C303.436 193.871 303.273 193.409 302.946 193.064C302.619 192.709 302.171 192.532 301.602 192.532C301.014 192.532 300.538 192.714 300.174 193.078C299.81 193.442 299.628 193.927 299.628 194.534V199H298.284ZM309.689 199.224C308.709 199.224 307.949 199.014 307.407 198.594C306.875 198.174 306.6 197.6 306.581 196.872H307.841C307.86 197.161 308.005 197.437 308.275 197.698C308.555 197.95 309.027 198.076 309.689 198.076C310.287 198.076 310.744 197.959 311.061 197.726C311.379 197.483 311.537 197.189 311.537 196.844C311.537 196.536 311.421 196.298 311.187 196.13C310.954 195.953 310.576 195.836 310.053 195.78L309.241 195.696C308.532 195.621 307.953 195.411 307.505 195.066C307.057 194.711 306.833 194.217 306.833 193.582C306.833 193.106 306.955 192.7 307.197 192.364C307.44 192.019 307.776 191.757 308.205 191.58C308.635 191.393 309.129 191.3 309.689 191.3C310.529 191.3 311.211 191.487 311.733 191.86C312.256 192.233 312.527 192.789 312.545 193.526H311.285C311.276 193.227 311.136 192.975 310.865 192.77C310.604 192.555 310.212 192.448 309.689 192.448C309.167 192.448 308.77 192.555 308.499 192.77C308.229 192.985 308.093 193.255 308.093 193.582C308.093 193.862 308.187 194.086 308.373 194.254C308.569 194.422 308.887 194.529 309.325 194.576L310.137 194.66C310.94 194.744 311.584 194.968 312.069 195.332C312.555 195.687 312.797 196.191 312.797 196.844C312.797 197.311 312.662 197.726 312.391 198.09C312.13 198.445 311.766 198.725 311.299 198.93C310.833 199.126 310.296 199.224 309.689 199.224ZM317.923 199.252C317.27 199.252 316.705 199.14 316.229 198.916C315.753 198.692 315.366 198.398 315.067 198.034C314.768 197.661 314.544 197.245 314.395 196.788C314.255 196.331 314.185 195.864 314.185 195.388V195.136C314.185 194.651 314.255 194.179 314.395 193.722C314.544 193.265 314.768 192.854 315.067 192.49C315.366 192.117 315.744 191.823 316.201 191.608C316.668 191.384 317.214 191.272 317.839 191.272C318.651 191.272 319.318 191.449 319.841 191.804C320.373 192.149 320.765 192.597 321.017 193.148C321.278 193.699 321.409 194.287 321.409 194.912V195.514H314.773V194.506H320.429L320.121 195.052C320.121 194.52 320.037 194.063 319.869 193.68C319.701 193.288 319.449 192.985 319.113 192.77C318.777 192.555 318.352 192.448 317.839 192.448C317.307 192.448 316.864 192.569 316.509 192.812C316.164 193.055 315.902 193.386 315.725 193.806C315.557 194.226 315.473 194.711 315.473 195.262C315.473 195.794 315.557 196.275 315.725 196.704C315.902 197.124 316.173 197.46 316.537 197.712C316.901 197.955 317.363 198.076 317.923 198.076C318.511 198.076 318.987 197.945 319.351 197.684C319.724 197.423 319.948 197.119 320.023 196.774H321.283C321.18 197.287 320.975 197.731 320.667 198.104C320.359 198.477 319.972 198.762 319.505 198.958C319.038 199.154 318.511 199.252 317.923 199.252Z" fill="#02093A"/>
<path d="M213.75 217L211.22 209.7H212.23L214.5 216.36L214.02 216.12H215.22L214.71 216.36L216.8 209.7H217.78L215.43 217H213.75ZM220.87 217.18C220.403 217.18 220 217.1 219.66 216.94C219.32 216.78 219.043 216.57 218.83 216.31C218.616 216.043 218.456 215.747 218.35 215.42C218.25 215.093 218.2 214.76 218.2 214.42V214.24C218.2 213.893 218.25 213.557 218.35 213.23C218.456 212.903 218.616 212.61 218.83 212.35C219.043 212.083 219.313 211.873 219.64 211.72C219.973 211.56 220.363 211.48 220.81 211.48C221.39 211.48 221.866 211.607 222.24 211.86C222.62 212.107 222.9 212.427 223.08 212.82C223.266 213.213 223.36 213.633 223.36 214.08V214.51H218.62V213.79H222.66L222.44 214.18C222.44 213.8 222.38 213.473 222.26 213.2C222.14 212.92 221.96 212.703 221.72 212.55C221.48 212.397 221.176 212.32 220.81 212.32C220.43 212.32 220.113 212.407 219.86 212.58C219.613 212.753 219.426 212.99 219.3 213.29C219.18 213.59 219.12 213.937 219.12 214.33C219.12 214.71 219.18 215.053 219.3 215.36C219.426 215.66 219.62 215.9 219.88 216.08C220.14 216.253 220.47 216.34 220.87 216.34C221.29 216.34 221.63 216.247 221.89 216.06C222.156 215.873 222.316 215.657 222.37 215.41H223.27C223.196 215.777 223.05 216.093 222.83 216.36C222.61 216.627 222.333 216.83 222 216.97C221.666 217.11 221.29 217.18 220.87 217.18ZM224.723 217V211.66H225.483V213.86H225.443C225.443 213.08 225.613 212.51 225.953 212.15C226.299 211.783 226.816 211.6 227.503 211.6H227.683V212.46H227.343C226.809 212.46 226.399 212.603 226.113 212.89C225.826 213.17 225.683 213.577 225.683 214.11V217H224.723ZM229.084 217V211.66H230.044V217H229.084ZM228.264 212.42V211.66H230.044V212.42H228.264ZM229.354 210.8C229.141 210.8 228.981 210.743 228.874 210.63C228.774 210.517 228.724 210.373 228.724 210.2C228.724 210.027 228.774 209.883 228.874 209.77C228.981 209.657 229.141 209.6 229.354 209.6C229.568 209.6 229.724 209.657 229.824 209.77C229.931 209.883 229.984 210.027 229.984 210.2C229.984 210.373 229.931 210.517 229.824 210.63C229.724 210.743 229.568 210.8 229.354 210.8ZM232.04 217V211.39C232.04 210.797 232.197 210.36 232.51 210.08C232.824 209.8 233.284 209.66 233.89 209.66H234.55V210.46H233.73C233.484 210.46 233.294 210.53 233.16 210.67C233.027 210.803 232.96 210.99 232.96 211.23V217H232.04ZM231.3 212.44V211.72H234.65V212.44H231.3ZM235.486 219.08V218.22H236.256C236.482 218.22 236.672 218.19 236.826 218.13C236.986 218.077 237.116 217.983 237.216 217.85C237.322 217.717 237.409 217.54 237.476 217.32L239.156 211.66H240.096L238.316 217.57C238.209 217.923 238.059 218.21 237.866 218.43C237.672 218.657 237.436 218.82 237.156 218.92C236.882 219.027 236.562 219.08 236.196 219.08H235.486ZM237.116 216.88V216.08H238.276V216.88H237.116ZM237.016 216.88L235.106 211.66H236.086L237.916 216.88H237.016ZM243.23 219.08V218.22H244C244.227 218.22 244.417 218.19 244.57 218.13C244.73 218.077 244.86 217.983 244.96 217.85C245.067 217.717 245.153 217.54 245.22 217.32L246.9 211.66H247.84L246.06 217.57C245.953 217.923 245.803 218.21 245.61 218.43C245.417 218.657 245.18 218.82 244.9 218.92C244.627 219.027 244.307 219.08 243.94 219.08H243.23ZM244.86 216.88V216.08H246.02V216.88H244.86ZM244.76 216.88L242.85 211.66H243.83L245.66 216.88H244.76ZM251.421 217.18C250.954 217.18 250.544 217.1 250.191 216.94C249.838 216.78 249.538 216.57 249.291 216.31C249.051 216.043 248.868 215.747 248.741 215.42C248.621 215.093 248.561 214.76 248.561 214.42V214.24C248.561 213.9 248.624 213.567 248.751 213.24C248.878 212.907 249.064 212.61 249.311 212.35C249.558 212.083 249.858 211.873 250.211 211.72C250.564 211.56 250.968 211.48 251.421 211.48C251.874 211.48 252.278 211.56 252.631 211.72C252.984 211.873 253.284 212.083 253.531 212.35C253.778 212.61 253.964 212.907 254.091 213.24C254.218 213.567 254.281 213.9 254.281 214.24V214.42C254.281 214.76 254.218 215.093 254.091 215.42C253.971 215.747 253.788 216.043 253.541 216.31C253.301 216.57 253.004 216.78 252.651 216.94C252.298 217.1 251.888 217.18 251.421 217.18ZM251.421 216.32C251.821 216.32 252.161 216.233 252.441 216.06C252.728 215.88 252.944 215.64 253.091 215.34C253.244 215.04 253.321 214.703 253.321 214.33C253.321 213.95 253.244 213.61 253.091 213.31C252.938 213.01 252.718 212.773 252.431 212.6C252.151 212.427 251.814 212.34 251.421 212.34C251.034 212.34 250.698 212.427 250.411 212.6C250.124 212.773 249.904 213.01 249.751 213.31C249.598 213.61 249.521 213.95 249.521 214.33C249.521 214.703 249.594 215.04 249.741 215.34C249.894 215.64 250.111 215.88 250.391 216.06C250.678 216.233 251.021 216.32 251.421 216.32ZM257.569 217.16C256.935 217.16 256.449 216.953 256.109 216.54C255.769 216.127 255.599 215.53 255.599 214.75V211.65H256.559V214.94C256.559 215.36 256.672 215.69 256.899 215.93C257.125 216.163 257.432 216.28 257.819 216.28C258.219 216.28 258.545 216.153 258.799 215.9C259.052 215.64 259.179 215.287 259.179 214.84V211.65H260.139V217H259.379V214.71H259.499C259.499 215.237 259.429 215.683 259.289 216.05C259.149 216.41 258.939 216.687 258.659 216.88C258.385 217.067 258.035 217.16 257.609 217.16H257.569ZM261.998 217V211.66H262.758V213.86H262.718C262.718 213.08 262.888 212.51 263.228 212.15C263.575 211.783 264.091 211.6 264.778 211.6H264.958V212.46H264.618C264.085 212.46 263.675 212.603 263.388 212.89C263.101 213.17 262.958 213.577 262.958 214.11V217H261.998ZM270.605 217.18C270.225 217.18 269.875 217.11 269.555 216.97C269.235 216.83 268.955 216.633 268.715 216.38C268.482 216.127 268.298 215.833 268.165 215.5C268.038 215.167 267.975 214.807 267.975 214.42V214.24C267.975 213.86 268.038 213.503 268.165 213.17C268.292 212.837 268.468 212.543 268.695 212.29C268.928 212.037 269.202 211.84 269.515 211.7C269.835 211.553 270.188 211.48 270.575 211.48C270.982 211.48 271.352 211.567 271.685 211.74C272.018 211.907 272.292 212.17 272.505 212.53C272.718 212.89 272.838 213.357 272.865 213.93L272.465 213.29V209.7H273.425V217H272.665V214.63H272.945C272.918 215.237 272.792 215.73 272.565 216.11C272.338 216.483 272.052 216.757 271.705 216.93C271.365 217.097 270.998 217.18 270.605 217.18ZM270.735 216.34C271.062 216.34 271.358 216.267 271.625 216.12C271.892 215.973 272.105 215.763 272.265 215.49C272.425 215.21 272.505 214.883 272.505 214.51V214.05C272.505 213.683 272.422 213.373 272.255 213.12C272.095 212.86 271.878 212.663 271.605 212.53C271.338 212.39 271.045 212.32 270.725 212.32C270.372 212.32 270.058 212.403 269.785 212.57C269.518 212.737 269.308 212.97 269.155 213.27C269.008 213.57 268.935 213.923 268.935 214.33C268.935 214.737 269.012 215.093 269.165 215.4C269.318 215.7 269.532 215.933 269.805 216.1C270.078 216.26 270.388 216.34 270.735 216.34ZM275.27 217V211.66H276.03V213.86H275.99C275.99 213.08 276.16 212.51 276.5 212.15C276.846 211.783 277.363 211.6 278.05 211.6H278.23V212.46H277.89C277.356 212.46 276.946 212.603 276.66 212.89C276.373 213.17 276.23 213.577 276.23 214.11V217H275.27ZM279.631 217V211.66H280.591V217H279.631ZM278.811 212.42V211.66H280.591V212.42H278.811ZM279.901 210.8C279.688 210.8 279.528 210.743 279.421 210.63C279.321 210.517 279.271 210.373 279.271 210.2C279.271 210.027 279.321 209.883 279.421 209.77C279.528 209.657 279.688 209.6 279.901 209.6C280.115 209.6 280.271 209.657 280.371 209.77C280.478 209.883 280.531 210.027 280.531 210.2C280.531 210.373 280.478 210.517 280.371 210.63C280.271 210.743 280.115 210.8 279.901 210.8ZM283.587 217L281.767 211.66H282.767L284.547 217H283.587ZM283.827 217V216.24H284.987V217H283.827ZM284.287 217L285.837 211.66H286.777L285.197 217H284.287ZM288.293 217V211.66H289.253V217H288.293ZM287.473 212.42V211.66H289.253V212.42H287.473ZM288.563 210.8C288.35 210.8 288.19 210.743 288.083 210.63C287.983 210.517 287.933 210.373 287.933 210.2C287.933 210.027 287.983 209.883 288.083 209.77C288.19 209.657 288.35 209.6 288.563 209.6C288.777 209.6 288.933 209.657 289.033 209.77C289.14 209.883 289.193 210.027 289.193 210.2C289.193 210.373 289.14 210.517 289.033 210.63C288.933 210.743 288.777 210.8 288.563 210.8ZM291.109 217V211.66H291.869V213.95H291.749C291.749 213.423 291.819 212.98 291.959 212.62C292.106 212.253 292.326 211.977 292.619 211.79C292.913 211.597 293.283 211.5 293.729 211.5H293.769C294.443 211.5 294.939 211.71 295.259 212.13C295.586 212.55 295.749 213.157 295.749 213.95V217H294.789V213.75C294.789 213.337 294.673 213.007 294.439 212.76C294.206 212.507 293.886 212.38 293.479 212.38C293.059 212.38 292.719 212.51 292.459 212.77C292.199 213.03 292.069 213.377 292.069 213.81V217H291.109ZM299.526 219.08C299.279 219.08 299.029 219.07 298.776 219.05C298.529 219.03 298.293 219.003 298.066 218.97V218.16C298.306 218.193 298.556 218.22 298.816 218.24C299.083 218.267 299.333 218.28 299.566 218.28C300.053 218.28 300.439 218.213 300.726 218.08C301.019 217.953 301.229 217.75 301.356 217.47C301.489 217.197 301.556 216.843 301.556 216.41V215.39L301.876 214.63C301.856 215.17 301.743 215.62 301.536 215.98C301.329 216.333 301.059 216.6 300.726 216.78C300.399 216.953 300.036 217.04 299.636 217.04C299.263 217.04 298.919 216.97 298.606 216.83C298.299 216.683 298.033 216.483 297.806 216.23C297.586 215.977 297.413 215.687 297.286 215.36C297.166 215.027 297.106 214.677 297.106 214.31V214.13C297.106 213.757 297.169 213.41 297.296 213.09C297.423 212.763 297.599 212.48 297.826 212.24C298.053 212 298.323 211.813 298.636 211.68C298.956 211.547 299.306 211.48 299.686 211.48C300.133 211.48 300.526 211.577 300.866 211.77C301.206 211.957 301.473 212.233 301.666 212.6C301.866 212.96 301.976 213.403 301.996 213.93L301.716 213.94V211.66H302.476V216.37C302.476 217.01 302.376 217.527 302.176 217.92C301.983 218.32 301.669 218.613 301.236 218.8C300.809 218.987 300.239 219.08 299.526 219.08ZM299.816 216.16C300.136 216.16 300.426 216.09 300.686 215.95C300.953 215.81 301.163 215.61 301.316 215.35C301.476 215.083 301.556 214.767 301.556 214.4V213.94C301.556 213.58 301.473 213.277 301.306 213.03C301.146 212.783 300.936 212.597 300.676 212.47C300.416 212.343 300.133 212.28 299.826 212.28C299.479 212.28 299.173 212.36 298.906 212.52C298.639 212.68 298.433 212.907 298.286 213.2C298.139 213.487 298.066 213.827 298.066 214.22C298.066 214.613 298.139 214.957 298.286 215.25C298.439 215.543 298.646 215.77 298.906 215.93C299.173 216.083 299.476 216.16 299.816 216.16ZM306.589 217V209.7H307.549V217H306.589ZM305.849 210.46V209.7H307.549V210.46H305.849ZM309.651 217V211.66H310.611V217H309.651ZM308.831 212.42V211.66H310.611V212.42H308.831ZM309.921 210.8C309.707 210.8 309.547 210.743 309.441 210.63C309.341 210.517 309.291 210.373 309.291 210.2C309.291 210.027 309.341 209.883 309.441 209.77C309.547 209.657 309.707 209.6 309.921 209.6C310.134 209.6 310.291 209.657 310.391 209.77C310.497 209.883 310.551 210.027 310.551 210.2C310.551 210.373 310.497 210.517 310.391 210.63C310.291 210.743 310.134 210.8 309.921 210.8ZM314.757 217.18C314.297 217.18 313.897 217.1 313.557 216.94C313.224 216.78 312.947 216.567 312.727 216.3C312.507 216.027 312.34 215.727 312.227 215.4C312.12 215.073 312.067 214.747 312.067 214.42V214.24C312.067 213.9 312.12 213.567 312.227 213.24C312.34 212.913 312.507 212.62 312.727 212.36C312.954 212.093 313.234 211.88 313.567 211.72C313.9 211.56 314.29 211.48 314.737 211.48C315.184 211.48 315.584 211.563 315.937 211.73C316.297 211.897 316.584 212.133 316.797 212.44C317.017 212.74 317.14 213.097 317.167 213.51H316.247C316.2 213.177 316.047 212.9 315.787 212.68C315.527 212.453 315.177 212.34 314.737 212.34C314.357 212.34 314.04 212.427 313.787 212.6C313.534 212.773 313.344 213.01 313.217 213.31C313.09 213.61 313.027 213.95 313.027 214.33C313.027 214.697 313.09 215.033 313.217 215.34C313.344 215.64 313.534 215.88 313.787 216.06C314.047 216.233 314.37 216.32 314.757 216.32C315.057 216.32 315.317 216.267 315.537 216.16C315.757 216.053 315.934 215.91 316.067 215.73C316.2 215.55 316.28 215.347 316.307 215.12H317.227C317.207 215.54 317.084 215.903 316.857 216.21C316.637 216.517 316.344 216.757 315.977 216.93C315.617 217.097 315.21 217.18 314.757 217.18ZM320.801 217.18C320.335 217.18 319.931 217.1 319.591 216.94C319.251 216.78 318.975 216.57 318.761 216.31C318.548 216.043 318.388 215.747 318.281 215.42C318.181 215.093 318.131 214.76 318.131 214.42V214.24C318.131 213.893 318.181 213.557 318.281 213.23C318.388 212.903 318.548 212.61 318.761 212.35C318.975 212.083 319.245 211.873 319.571 211.72C319.905 211.56 320.295 211.48 320.741 211.48C321.321 211.48 321.798 211.607 322.171 211.86C322.551 212.107 322.831 212.427 323.011 212.82C323.198 213.213 323.291 213.633 323.291 214.08V214.51H318.551V213.79H322.591L322.371 214.18C322.371 213.8 322.311 213.473 322.191 213.2C322.071 212.92 321.891 212.703 321.651 212.55C321.411 212.397 321.108 212.32 320.741 212.32C320.361 212.32 320.045 212.407 319.791 212.58C319.545 212.753 319.358 212.99 319.231 213.29C319.111 213.59 319.051 213.937 319.051 214.33C319.051 214.71 319.111 215.053 319.231 215.36C319.358 215.66 319.551 215.9 319.811 216.08C320.071 216.253 320.401 216.34 320.801 216.34C321.221 216.34 321.561 216.247 321.821 216.06C322.088 215.873 322.248 215.657 322.301 215.41H323.201C323.128 215.777 322.981 216.093 322.761 216.36C322.541 216.627 322.265 216.83 321.931 216.97C321.598 217.11 321.221 217.18 320.801 217.18ZM324.654 217V211.66H325.414V213.95H325.294C325.294 213.423 325.364 212.98 325.504 212.62C325.651 212.253 325.871 211.977 326.164 211.79C326.458 211.597 326.828 211.5 327.274 211.5H327.314C327.988 211.5 328.484 211.71 328.804 212.13C329.131 212.55 329.294 213.157 329.294 213.95V217H328.334V213.75C328.334 213.337 328.218 213.007 327.984 212.76C327.751 212.507 327.431 212.38 327.024 212.38C326.604 212.38 326.264 212.51 326.004 212.77C325.744 213.03 325.614 213.377 325.614 213.81V217H324.654ZM332.801 217.16C332.101 217.16 331.558 217.01 331.171 216.71C330.791 216.41 330.594 216 330.581 215.48H331.481C331.494 215.687 331.598 215.883 331.791 216.07C331.991 216.25 332.328 216.34 332.801 216.34C333.228 216.34 333.554 216.257 333.781 216.09C334.008 215.917 334.121 215.707 334.121 215.46C334.121 215.24 334.038 215.07 333.871 214.95C333.704 214.823 333.434 214.74 333.061 214.7L332.481 214.64C331.974 214.587 331.561 214.437 331.241 214.19C330.921 213.937 330.761 213.583 330.761 213.13C330.761 212.79 330.848 212.5 331.021 212.26C331.194 212.013 331.434 211.827 331.741 211.7C332.048 211.567 332.401 211.5 332.801 211.5C333.401 211.5 333.888 211.633 334.261 211.9C334.634 212.167 334.828 212.563 334.841 213.09H333.941C333.934 212.877 333.834 212.697 333.641 212.55C333.454 212.397 333.174 212.32 332.801 212.32C332.428 212.32 332.144 212.397 331.951 212.55C331.758 212.703 331.661 212.897 331.661 213.13C331.661 213.33 331.728 213.49 331.861 213.61C332.001 213.73 332.228 213.807 332.541 213.84L333.121 213.9C333.694 213.96 334.154 214.12 334.501 214.38C334.848 214.633 335.021 214.993 335.021 215.46C335.021 215.793 334.924 216.09 334.731 216.35C334.544 216.603 334.284 216.803 333.951 216.95C333.618 217.09 333.234 217.16 332.801 217.16ZM338.682 217.18C338.216 217.18 337.812 217.1 337.472 216.94C337.132 216.78 336.856 216.57 336.642 216.31C336.429 216.043 336.269 215.747 336.162 215.42C336.062 215.093 336.012 214.76 336.012 214.42V214.24C336.012 213.893 336.062 213.557 336.162 213.23C336.269 212.903 336.429 212.61 336.642 212.35C336.856 212.083 337.126 211.873 337.452 211.72C337.786 211.56 338.176 211.48 338.622 211.48C339.202 211.48 339.679 211.607 340.052 211.86C340.432 212.107 340.712 212.427 340.892 212.82C341.079 213.213 341.172 213.633 341.172 214.08V214.51H336.432V213.79H340.472L340.252 214.18C340.252 213.8 340.192 213.473 340.072 213.2C339.952 212.92 339.772 212.703 339.532 212.55C339.292 212.397 338.989 212.32 338.622 212.32C338.242 212.32 337.926 212.407 337.672 212.58C337.426 212.753 337.239 212.99 337.112 213.29C336.992 213.59 336.932 213.937 336.932 214.33C336.932 214.71 336.992 215.053 337.112 215.36C337.239 215.66 337.432 215.9 337.692 216.08C337.952 216.253 338.282 216.34 338.682 216.34C339.102 216.34 339.442 216.247 339.702 216.06C339.969 215.873 340.129 215.657 340.182 215.41H341.082C341.009 215.777 340.862 216.093 340.642 216.36C340.422 216.627 340.146 216.83 339.812 216.97C339.479 217.11 339.102 217.18 338.682 217.18ZM342.267 217V215.78H343.427V217H342.267Z" fill="#353A61"/>
<rect x="211.5" y="228.5" width="47" height="17" rx="8.5" fill="#E9F9EE"/>
<rect x="211.5" y="228.5" width="47" height="17" rx="8.5" stroke="#22C553"/>
<path d="M221.348 240L219.324 234.16H220.132L221.948 239.488L221.564 239.296H222.524L222.116 239.488L223.788 234.16H224.572L222.692 240H221.348ZM227.044 240.144C226.671 240.144 226.348 240.08 226.076 239.952C225.804 239.824 225.583 239.656 225.412 239.448C225.242 239.235 225.114 238.997 225.028 238.736C224.948 238.475 224.908 238.208 224.908 237.936V237.792C224.908 237.515 224.948 237.245 225.028 236.984C225.114 236.723 225.242 236.488 225.412 236.28C225.583 236.067 225.799 235.899 226.06 235.776C226.327 235.648 226.639 235.584 226.996 235.584C227.46 235.584 227.842 235.685 228.14 235.888C228.444 236.085 228.668 236.341 228.812 236.656C228.962 236.971 229.036 237.307 229.036 237.664V238.008H225.244V237.432H228.476L228.3 237.744C228.3 237.44 228.252 237.179 228.156 236.96C228.06 236.736 227.916 236.563 227.724 236.44C227.532 236.317 227.29 236.256 226.996 236.256C226.692 236.256 226.439 236.325 226.236 236.464C226.039 236.603 225.89 236.792 225.788 237.032C225.692 237.272 225.644 237.549 225.644 237.864C225.644 238.168 225.692 238.443 225.788 238.688C225.89 238.928 226.044 239.12 226.252 239.264C226.46 239.403 226.724 239.472 227.044 239.472C227.38 239.472 227.652 239.397 227.86 239.248C228.074 239.099 228.202 238.925 228.244 238.728H228.964C228.906 239.021 228.788 239.275 228.612 239.488C228.436 239.701 228.215 239.864 227.948 239.976C227.682 240.088 227.38 240.144 227.044 240.144ZM230.127 240V235.728H230.735V237.488H230.703C230.703 236.864 230.839 236.408 231.111 236.12C231.388 235.827 231.801 235.68 232.351 235.68H232.495V236.368H232.223C231.796 236.368 231.468 236.483 231.239 236.712C231.009 236.936 230.895 237.261 230.895 237.688V240H230.127ZM233.616 240V235.728H234.384V240H233.616ZM232.96 236.336V235.728H234.384V236.336H232.96ZM233.832 235.04C233.661 235.04 233.533 234.995 233.448 234.904C233.368 234.813 233.328 234.699 233.328 234.56C233.328 234.421 233.368 234.307 233.448 234.216C233.533 234.125 233.661 234.08 233.832 234.08C234.003 234.08 234.128 234.125 234.208 234.216C234.293 234.307 234.336 234.421 234.336 234.56C234.336 234.699 234.293 234.813 234.208 234.904C234.128 234.995 234.003 235.04 233.832 235.04ZM235.981 240V235.464C235.981 234.989 236.106 234.64 236.357 234.416C236.607 234.192 236.975 234.08 237.461 234.08H237.941V234.72H237.333C237.135 234.72 236.983 234.776 236.877 234.888C236.77 234.995 236.717 235.144 236.717 235.336V240H235.981ZM235.389 236.304V235.728H237.861V236.304H235.389ZM238.917 240V235.728H239.685V240H238.917ZM238.293 236.336V235.728H239.685V236.336H238.293ZM239.133 235.04C238.962 235.04 238.834 234.995 238.749 234.904C238.669 234.813 238.629 234.699 238.629 234.56C238.629 234.421 238.669 234.307 238.749 234.216C238.834 234.125 238.962 234.08 239.133 234.08C239.303 234.08 239.429 234.125 239.509 234.216C239.594 234.307 239.637 234.421 239.637 234.56C239.637 234.699 239.594 234.813 239.509 234.904C239.429 234.995 239.303 235.04 239.133 235.04ZM242.99 240.144C242.616 240.144 242.294 240.08 242.022 239.952C241.75 239.824 241.528 239.656 241.358 239.448C241.187 239.235 241.059 238.997 240.974 238.736C240.894 238.475 240.854 238.208 240.854 237.936V237.792C240.854 237.515 240.894 237.245 240.974 236.984C241.059 236.723 241.187 236.488 241.358 236.28C241.528 236.067 241.744 235.899 242.006 235.776C242.272 235.648 242.584 235.584 242.942 235.584C243.406 235.584 243.787 235.685 244.086 235.888C244.39 236.085 244.614 236.341 244.758 236.656C244.907 236.971 244.982 237.307 244.982 237.664V238.008H241.19V237.432H244.422L244.246 237.744C244.246 237.44 244.198 237.179 244.102 236.96C244.006 236.736 243.862 236.563 243.67 236.44C243.478 236.317 243.235 236.256 242.942 236.256C242.638 236.256 242.384 236.325 242.182 236.464C241.984 236.603 241.835 236.792 241.734 237.032C241.638 237.272 241.59 237.549 241.59 237.864C241.59 238.168 241.638 238.443 241.734 238.688C241.835 238.928 241.99 239.12 242.198 239.264C242.406 239.403 242.67 239.472 242.99 239.472C243.326 239.472 243.598 239.397 243.806 239.248C244.019 239.099 244.147 238.925 244.19 238.728H244.91C244.851 239.021 244.734 239.275 244.558 239.488C244.382 239.701 244.16 239.864 243.894 239.976C243.627 240.088 243.326 240.144 242.99 240.144ZM247.856 240.144C247.552 240.144 247.272 240.088 247.016 239.976C246.76 239.864 246.536 239.707 246.344 239.504C246.157 239.301 246.011 239.067 245.904 238.8C245.803 238.533 245.752 238.245 245.752 237.936V237.792C245.752 237.488 245.803 237.203 245.904 236.936C246.005 236.669 246.147 236.435 246.328 236.232C246.515 236.029 246.733 235.872 246.984 235.76C247.24 235.643 247.523 235.584 247.832 235.584C248.157 235.584 248.453 235.653 248.72 235.792C248.987 235.925 249.205 236.136 249.376 236.424C249.547 236.712 249.643 237.085 249.664 237.544L249.344 237.032V234.16H250.112V240H249.504V238.104H249.728C249.707 238.589 249.605 238.984 249.424 239.288C249.243 239.587 249.013 239.805 248.736 239.944C248.464 240.077 248.171 240.144 247.856 240.144ZM247.96 239.472C248.221 239.472 248.459 239.413 248.672 239.296C248.885 239.179 249.056 239.011 249.184 238.792C249.312 238.568 249.376 238.307 249.376 238.008V237.64C249.376 237.347 249.309 237.099 249.176 236.896C249.048 236.688 248.875 236.531 248.656 236.424C248.443 236.312 248.208 236.256 247.952 236.256C247.669 236.256 247.419 236.323 247.2 236.456C246.987 236.589 246.819 236.776 246.696 237.016C246.579 237.256 246.52 237.539 246.52 237.864C246.52 238.189 246.581 238.475 246.704 238.72C246.827 238.96 246.997 239.147 247.216 239.28C247.435 239.408 247.683 239.472 247.96 239.472Z" fill="#22C553"/>
<path fill-rule="evenodd" clip-rule="evenodd" d="M453.471 214.395C453.596 214.52 453.666 214.69 453.666 214.867C453.666 215.044 453.596 215.213 453.471 215.338L449.7 219.109C449.638 219.173 449.565 219.224 449.484 219.259C449.402 219.294 449.315 219.312 449.226 219.313C449.138 219.314 449.05 219.297 448.968 219.263C448.886 219.23 448.812 219.18 448.749 219.118C448.686 219.055 448.637 218.981 448.603 218.899C448.57 218.817 448.553 218.729 448.554 218.641C448.555 218.552 448.573 218.465 448.608 218.383C448.643 218.302 448.694 218.228 448.757 218.167L452.057 214.867L448.757 211.567C448.636 211.441 448.569 211.273 448.57 211.098C448.572 210.923 448.642 210.756 448.765 210.632C448.889 210.509 449.056 210.439 449.231 210.437C449.406 210.435 449.574 210.503 449.7 210.624L453.471 214.395Z" fill="#353A61"/>
</g>
<rect x="126" y="19" width="369" height="806" rx="22" stroke="black" stroke-width="6"/>
</g>
<defs>
<clipPath id="clip0_4931_13535">
<rect width="621" height="248" rx="8" fill="white"/>
</clipPath>
<clipPath id="clip1_4931_13535">
<rect x="123" y="16" width="375" height="812" rx="25" fill="white"/>
</clipPath>
</defs>
</svg>
