<svg width="40" height="40" viewBox="0 0 40 40" fill="none" xmlns="http://www.w3.org/2000/svg">
<rect width="40" height="40" rx="5" fill="#DC2626"/>
<path d="M13 25C13 25.5304 13.2107 26.0391 13.5858 26.4142C13.9609 26.7893 14.4696 27 15 27C15.5304 27 16.0391 26.7893 16.4142 26.4142C16.7893 26.0391 17 25.5304 17 25C17 24.4696 16.7893 23.9609 16.4142 23.5858C16.0391 23.2107 15.5304 23 15 23C14.4696 23 13.9609 23.2107 13.5858 23.5858C13.2107 23.9609 13 24.4696 13 25ZM23 25C23 25.5304 23.2107 26.0391 23.5858 26.4142C23.9609 26.7893 24.4696 27 25 27C25.5304 27 26.0391 26.7893 26.4142 26.4142C26.7893 26.0391 27 25.5304 27 25C27 24.4696 26.7893 23.9609 26.4142 23.5858C26.0391 23.2107 25.5304 23 25 23C24.4696 23 23.9609 23.2107 23.5858 23.5858C23.2107 23.9609 23 24.4696 23 25Z" stroke="white" stroke-width="2" stroke-linecap="round" stroke-linejoin="round"/>
<path d="M13 25H11V19M11 19L13 14H22L26 19M11 19H26M26 19H27C27.5304 19 28.0391 19.2107 28.4142 19.5858C28.7893 19.9609 29 20.4696 29 21V25H27M23 25H17M20 19V14" stroke="white" stroke-width="2" stroke-linecap="round" stroke-linejoin="round"/>
</svg>
