<svg width="621" height="248" viewBox="0 0 621 248" fill="none" xmlns="http://www.w3.org/2000/svg">
<g clip-path="url(#clip0_4931_13493)">
<rect width="621" height="248" rx="8" fill="#E9F9EE"/>
<g clip-path="url(#clip1_4931_13493)">
<path d="M123 3C123 -10.8071 134.193 -22 148 -22H473C486.807 -22 498 -10.8071 498 3V207C498 220.807 486.807 232 473 232H148C134.193 232 123 220.807 123 207V3Z" fill="white"/>
<g filter="url(#filter0_d_4931_13493)">
<rect width="375" height="58" transform="translate(123 140)" fill="white"/>
<path fill-rule="evenodd" clip-rule="evenodd" d="M198.833 149.5C195.062 149.5 193.176 149.5 192.005 150.672C190.942 151.735 190.843 153.386 190.834 156.5H189.833C189.281 156.5 188.833 156.948 188.833 157.5V158.5C188.833 158.815 188.981 159.111 189.233 159.3L190.833 160.5C190.842 163.614 190.942 165.265 192.005 166.328C192.247 166.571 192.52 166.763 192.833 166.915V168.5C192.833 169.052 193.281 169.5 193.833 169.5H195.333C195.886 169.5 196.333 169.052 196.333 168.5V167.482C197.06 167.5 197.887 167.5 198.833 167.5C199.779 167.5 200.606 167.5 201.333 167.482V168.5C201.333 169.052 201.781 169.5 202.333 169.5H203.833C204.386 169.5 204.833 169.052 204.833 168.5V166.915C205.147 166.763 205.419 166.571 205.662 166.328C206.725 165.265 206.824 163.614 206.833 160.5L208.433 159.3C208.685 159.111 208.833 158.815 208.833 158.5V157.5C208.833 156.948 208.386 156.5 207.833 156.5H206.832C206.823 153.386 206.725 151.735 205.662 150.672C204.49 149.5 202.604 149.5 198.833 149.5ZM192.333 157C192.333 158.414 192.333 159.121 192.773 159.561C193.212 160 193.919 160 195.333 160H198.833H202.333C203.747 160 204.455 160 204.894 159.561C205.333 159.121 205.333 158.414 205.333 157V154.5C205.333 153.086 205.333 152.379 204.894 151.939C204.455 151.5 203.747 151.5 202.333 151.5H198.833H195.333C193.919 151.5 193.212 151.5 192.773 151.939C192.333 152.379 192.333 153.086 192.333 154.5V157ZM193.083 163.5C193.083 163.086 193.419 162.75 193.833 162.75H195.333C195.747 162.75 196.083 163.086 196.083 163.5C196.083 163.914 195.747 164.25 195.333 164.25H193.833C193.419 164.25 193.083 163.914 193.083 163.5ZM204.583 163.5C204.583 163.086 204.247 162.75 203.833 162.75H202.333C201.919 162.75 201.583 163.086 201.583 163.5C201.583 163.914 201.919 164.25 202.333 164.25H203.833C204.247 164.25 204.583 163.914 204.583 163.5Z" fill="#010C4A"/>
<path d="M174.308 186.5V177.68H176.012V186.5H174.308ZM179.66 186.5L176.972 182.684H178.88L181.652 186.5H179.66ZM175.508 183.572V182.192H177.74C178.052 182.192 178.32 182.128 178.544 182C178.776 181.872 178.956 181.692 179.084 181.46C179.212 181.228 179.276 180.964 179.276 180.668C179.276 180.364 179.212 180.096 179.084 179.864C178.956 179.632 178.776 179.452 178.544 179.324C178.32 179.196 178.052 179.132 177.74 179.132H175.508V177.68H177.56C178.264 177.68 178.872 177.784 179.384 177.992C179.904 178.2 180.304 178.516 180.584 178.94C180.864 179.364 181.004 179.896 181.004 180.536V180.728C181.004 181.376 180.86 181.908 180.572 182.324C180.292 182.74 179.896 183.052 179.384 183.26C178.872 183.468 178.264 183.572 177.56 183.572H175.508ZM185.611 186.728C185.051 186.728 184.559 186.632 184.135 186.44C183.719 186.248 183.371 185.992 183.091 185.672C182.819 185.344 182.611 184.98 182.467 184.58C182.331 184.18 182.263 183.772 182.263 183.356V183.128C182.263 182.696 182.331 182.28 182.467 181.88C182.611 181.472 182.819 181.112 183.091 180.8C183.371 180.48 183.715 180.228 184.123 180.044C184.531 179.852 185.003 179.756 185.539 179.756C186.243 179.756 186.831 179.912 187.303 180.224C187.783 180.528 188.143 180.932 188.383 181.436C188.623 181.932 188.743 182.468 188.743 183.044V183.644H182.971V182.624H187.699L187.183 183.128C187.183 182.712 187.123 182.356 187.003 182.06C186.883 181.764 186.699 181.536 186.451 181.376C186.211 181.216 185.907 181.136 185.539 181.136C185.171 181.136 184.859 181.22 184.603 181.388C184.347 181.556 184.151 181.8 184.015 182.12C183.887 182.432 183.823 182.808 183.823 183.248C183.823 183.656 183.887 184.02 184.015 184.34C184.143 184.652 184.339 184.9 184.603 185.084C184.867 185.26 185.203 185.348 185.611 185.348C186.019 185.348 186.351 185.268 186.607 185.108C186.863 184.94 187.027 184.736 187.099 184.496H188.635C188.539 184.944 188.355 185.336 188.083 185.672C187.811 186.008 187.463 186.268 187.039 186.452C186.623 186.636 186.147 186.728 185.611 186.728ZM194.961 188.9V184.568L195.453 183.8C195.429 184.424 195.301 184.956 195.069 185.396C194.837 185.828 194.525 186.156 194.133 186.38C193.741 186.604 193.289 186.716 192.777 186.716C192.313 186.716 191.893 186.632 191.517 186.464C191.141 186.288 190.817 186.048 190.545 185.744C190.281 185.432 190.073 185.076 189.921 184.676C189.777 184.268 189.705 183.828 189.705 183.356V183.104C189.705 182.64 189.781 182.208 189.933 181.808C190.085 181.4 190.297 181.048 190.569 180.752C190.849 180.448 191.177 180.212 191.553 180.044C191.937 179.868 192.365 179.78 192.837 179.78C193.381 179.78 193.853 179.896 194.253 180.128C194.653 180.36 194.965 180.7 195.189 181.148C195.421 181.588 195.549 182.128 195.573 182.768H195.309V179.984H196.629V188.9H194.961ZM193.209 185.288C193.537 185.288 193.837 185.216 194.109 185.072C194.381 184.92 194.597 184.704 194.757 184.424C194.925 184.136 195.009 183.8 195.009 183.416V182.936C195.009 182.552 194.925 182.232 194.757 181.976C194.589 181.712 194.369 181.512 194.097 181.376C193.825 181.232 193.529 181.16 193.209 181.16C192.849 181.16 192.529 181.248 192.249 181.424C191.977 181.592 191.761 181.836 191.601 182.156C191.449 182.468 191.373 182.828 191.373 183.236C191.373 183.644 191.453 184.004 191.613 184.316C191.773 184.62 191.989 184.86 192.261 185.036C192.541 185.204 192.857 185.288 193.209 185.288ZM200.747 186.704C199.995 186.704 199.411 186.456 198.995 185.96C198.587 185.464 198.383 184.728 198.383 183.752V179.972H200.051V183.896C200.051 184.296 200.163 184.616 200.387 184.856C200.611 185.088 200.915 185.204 201.299 185.204C201.683 185.204 201.995 185.08 202.235 184.832C202.483 184.584 202.607 184.248 202.607 183.824V179.972H204.275V186.5H202.955V183.728H203.087C203.087 184.384 203.003 184.932 202.835 185.372C202.667 185.812 202.415 186.144 202.079 186.368C201.743 186.592 201.323 186.704 200.819 186.704H200.747ZM209.107 186.728C208.547 186.728 208.055 186.632 207.631 186.44C207.215 186.248 206.867 185.992 206.587 185.672C206.315 185.344 206.107 184.98 205.963 184.58C205.827 184.18 205.759 183.772 205.759 183.356V183.128C205.759 182.696 205.827 182.28 205.963 181.88C206.107 181.472 206.315 181.112 206.587 180.8C206.867 180.48 207.211 180.228 207.619 180.044C208.027 179.852 208.499 179.756 209.035 179.756C209.739 179.756 210.327 179.912 210.799 180.224C211.279 180.528 211.639 180.932 211.879 181.436C212.119 181.932 212.239 182.468 212.239 183.044V183.644H206.467V182.624H211.195L210.679 183.128C210.679 182.712 210.619 182.356 210.499 182.06C210.379 181.764 210.195 181.536 209.947 181.376C209.707 181.216 209.403 181.136 209.035 181.136C208.667 181.136 208.355 181.22 208.099 181.388C207.843 181.556 207.647 181.8 207.511 182.12C207.383 182.432 207.319 182.808 207.319 183.248C207.319 183.656 207.383 184.02 207.511 184.34C207.639 184.652 207.835 184.9 208.099 185.084C208.363 185.26 208.699 185.348 209.107 185.348C209.515 185.348 209.847 185.268 210.103 185.108C210.359 184.94 210.523 184.736 210.595 184.496H212.131C212.035 184.944 211.851 185.336 211.579 185.672C211.307 186.008 210.959 186.268 210.535 186.452C210.119 186.636 209.643 186.728 209.107 186.728ZM215.997 186.704C215.101 186.704 214.397 186.516 213.885 186.14C213.381 185.756 213.117 185.228 213.093 184.556H214.593C214.617 184.78 214.741 184.984 214.965 185.168C215.189 185.352 215.541 185.444 216.021 185.444C216.421 185.444 216.737 185.372 216.969 185.228C217.209 185.084 217.329 184.888 217.329 184.64C217.329 184.424 217.237 184.252 217.053 184.124C216.877 183.996 216.573 183.912 216.141 183.872L215.565 183.812C214.837 183.732 214.277 183.524 213.885 183.188C213.493 182.852 213.297 182.404 213.297 181.844C213.297 181.396 213.409 181.02 213.633 180.716C213.857 180.412 214.165 180.184 214.557 180.032C214.957 179.872 215.413 179.792 215.925 179.792C216.725 179.792 217.373 179.968 217.869 180.32C218.365 180.672 218.625 181.188 218.649 181.868H217.149C217.133 181.644 217.021 181.452 216.813 181.292C216.605 181.132 216.305 181.052 215.913 181.052C215.561 181.052 215.289 181.12 215.097 181.256C214.905 181.392 214.809 181.568 214.809 181.784C214.809 181.992 214.885 182.152 215.037 182.264C215.197 182.376 215.453 182.452 215.805 182.492L216.381 182.552C217.149 182.632 217.749 182.844 218.181 183.188C218.621 183.532 218.841 183.996 218.841 184.58C218.841 185.012 218.721 185.388 218.481 185.708C218.249 186.02 217.921 186.264 217.497 186.44C217.073 186.616 216.573 186.704 215.997 186.704ZM223.051 186.584C222.451 186.584 221.955 186.508 221.563 186.356C221.179 186.196 220.891 185.932 220.699 185.564C220.507 185.188 220.411 184.684 220.411 184.052L220.423 178.148H221.983L221.971 184.16C221.971 184.48 222.055 184.728 222.223 184.904C222.399 185.072 222.647 185.156 222.967 185.156H223.987V186.584H223.051ZM219.379 181.208V179.984H223.987V181.208H219.379Z" fill="#010C4A"/>
<path d="M317.5 159.5C317.5 160.052 317.052 160.5 316.5 160.5C315.948 160.5 315.5 160.052 315.5 159.5C315.5 158.948 315.948 158.5 316.5 158.5C317.052 158.5 317.5 158.948 317.5 159.5Z" fill="#8B8EA4"/>
<path fill-rule="evenodd" clip-rule="evenodd" d="M308.444 150.75H311.556C313.394 150.75 314.85 150.75 315.989 150.903C317.161 151.061 318.11 151.393 318.859 152.141C319.783 153.066 320.078 154.304 320.185 155.91C320.762 156.164 321.198 156.701 321.246 157.382C321.25 157.442 321.25 157.507 321.25 157.567C321.25 157.572 321.25 157.578 321.25 157.583V161.417C321.25 161.422 321.25 161.428 321.25 161.433C321.25 161.493 321.25 161.558 321.246 161.618C321.198 162.299 320.762 162.836 320.185 163.09C320.078 164.696 319.783 165.934 318.859 166.859C318.11 167.607 317.161 167.939 315.989 168.097C314.85 168.25 313.394 168.25 311.556 168.25H308.444C306.606 168.25 305.15 168.25 304.011 168.097C302.839 167.939 301.89 167.607 301.141 166.859C300.393 166.11 300.061 165.161 299.903 163.989C299.75 162.85 299.75 161.394 299.75 159.556V159.444C299.75 157.606 299.75 156.15 299.903 155.011C300.061 153.839 300.393 152.89 301.141 152.141C301.89 151.393 302.839 151.061 304.011 150.903C305.15 150.75 306.606 150.75 308.444 150.75ZM318.668 163.25H316.731C314.586 163.25 312.75 161.622 312.75 159.5C312.75 157.378 314.586 155.75 316.731 155.75H318.668C318.554 154.409 318.297 153.7 317.798 153.202C317.375 152.779 316.795 152.525 315.789 152.39C314.761 152.252 313.407 152.25 311.5 152.25H308.5C306.593 152.25 305.239 152.252 304.211 152.39C303.205 152.525 302.625 152.779 302.202 153.202C301.779 153.625 301.525 154.205 301.39 155.211C301.252 156.239 301.25 157.593 301.25 159.5C301.25 161.407 301.252 162.761 301.39 163.789C301.525 164.795 301.779 165.375 302.202 165.798C302.625 166.221 303.205 166.475 304.211 166.61C305.239 166.748 306.593 166.75 308.5 166.75H311.5C313.407 166.75 314.761 166.748 315.789 166.61C316.795 166.475 317.375 166.221 317.798 165.798C318.297 165.3 318.554 164.591 318.668 163.25ZM303.75 155.5C303.75 155.086 304.086 154.75 304.5 154.75H308.5C308.914 154.75 309.25 155.086 309.25 155.5C309.25 155.914 308.914 156.25 308.5 156.25H304.5C304.086 156.25 303.75 155.914 303.75 155.5ZM319.424 157.25C319.403 157.25 319.377 157.25 319.333 157.25H316.731C315.307 157.25 314.25 158.309 314.25 159.5C314.25 160.691 315.307 161.75 316.731 161.75H319.333C319.377 161.75 319.403 161.75 319.424 161.75C319.436 161.75 319.443 161.749 319.446 161.749L319.448 161.749C319.654 161.737 319.743 161.598 319.749 161.514C319.749 161.514 319.75 161.508 319.75 161.499C319.75 161.481 319.75 161.457 319.75 161.417V157.583C319.75 157.543 319.75 157.519 319.75 157.501C319.75 157.492 319.749 157.486 319.749 157.486C319.743 157.402 319.654 157.263 319.448 157.251C319.448 157.251 319.443 157.25 319.424 157.25Z" fill="#8B8EA4"/>
<path d="M293.923 186.5L291.559 177.74H292.771L294.823 185.732L294.259 185.444H295.687L295.063 185.732L296.731 178.1H297.835L295.927 186.5H293.923ZM299.191 186.5L297.091 178.1H298.231L300.115 185.732L299.515 185.444H300.955L300.343 185.732L302.179 177.74H303.355L301.207 186.5H299.191ZM308.554 186.5V184.58H308.362V182.36C308.362 181.92 308.246 181.588 308.014 181.364C307.79 181.14 307.458 181.028 307.018 181.028C306.77 181.028 306.514 181.032 306.25 181.04C305.986 181.048 305.734 181.056 305.494 181.064C305.254 181.072 305.046 181.084 304.87 181.1V180.092C305.046 180.076 305.23 180.064 305.422 180.056C305.622 180.04 305.826 180.032 306.034 180.032C306.242 180.024 306.442 180.02 306.634 180.02C307.29 180.02 307.826 180.1 308.242 180.26C308.658 180.412 308.966 180.664 309.166 181.016C309.366 181.368 309.466 181.844 309.466 182.444V186.5H308.554ZM306.454 186.668C305.974 186.668 305.558 186.588 305.206 186.428C304.862 186.26 304.594 186.02 304.402 185.708C304.218 185.396 304.126 185.02 304.126 184.58C304.126 184.124 304.226 183.744 304.426 183.44C304.634 183.136 304.934 182.908 305.326 182.756C305.718 182.596 306.19 182.516 306.742 182.516H308.482V183.38H306.694C306.23 183.38 305.874 183.492 305.626 183.716C305.378 183.94 305.254 184.228 305.254 184.58C305.254 184.932 305.378 185.216 305.626 185.432C305.874 185.648 306.23 185.756 306.694 185.756C306.966 185.756 307.226 185.708 307.474 185.612C307.722 185.508 307.926 185.34 308.086 185.108C308.254 184.868 308.346 184.54 308.362 184.124L308.674 184.58C308.634 185.036 308.522 185.42 308.338 185.732C308.162 186.036 307.914 186.268 307.594 186.428C307.282 186.588 306.902 186.668 306.454 186.668ZM311.653 186.5V177.74H312.805V186.5H311.653ZM310.765 178.652V177.74H312.805V178.652H310.765ZM315.086 186.5V177.74H316.238V186.5H315.086ZM314.198 178.652V177.74H316.238V178.652H314.198ZM321.172 186.716C320.612 186.716 320.128 186.62 319.72 186.428C319.312 186.236 318.98 185.984 318.724 185.672C318.468 185.352 318.276 184.996 318.148 184.604C318.028 184.212 317.968 183.812 317.968 183.404V183.188C317.968 182.772 318.028 182.368 318.148 181.976C318.276 181.584 318.468 181.232 318.724 180.92C318.98 180.6 319.304 180.348 319.696 180.164C320.096 179.972 320.564 179.876 321.1 179.876C321.796 179.876 322.368 180.028 322.816 180.332C323.272 180.628 323.608 181.012 323.824 181.484C324.048 181.956 324.16 182.46 324.16 182.996V183.512H318.472V182.648H323.32L323.056 183.116C323.056 182.66 322.984 182.268 322.84 181.94C322.696 181.604 322.48 181.344 322.192 181.16C321.904 180.976 321.54 180.884 321.1 180.884C320.644 180.884 320.264 180.988 319.96 181.196C319.664 181.404 319.44 181.688 319.288 182.048C319.144 182.408 319.072 182.824 319.072 183.296C319.072 183.752 319.144 184.164 319.288 184.532C319.44 184.892 319.672 185.18 319.984 185.396C320.296 185.604 320.692 185.708 321.172 185.708C321.676 185.708 322.084 185.596 322.396 185.372C322.716 185.148 322.908 184.888 322.972 184.592H324.052C323.964 185.032 323.788 185.412 323.524 185.732C323.26 186.052 322.928 186.296 322.528 186.464C322.128 186.632 321.676 186.716 321.172 186.716ZM328.291 186.572C327.811 186.572 327.395 186.504 327.043 186.368C326.699 186.232 326.431 186 326.239 185.672C326.055 185.336 325.963 184.884 325.963 184.316V178.148H327.067V184.46C327.067 184.804 327.159 185.072 327.343 185.264C327.535 185.448 327.803 185.54 328.147 185.54H329.275V186.572H328.291ZM324.859 180.956V180.092H329.275V180.956H324.859Z" fill="#8B8EA4"/>
<path d="M419.167 159.5C419.167 160.052 418.719 160.5 418.167 160.5C417.614 160.5 417.167 160.052 417.167 159.5C417.167 158.948 417.614 158.5 418.167 158.5C418.719 158.5 419.167 158.948 419.167 159.5Z" fill="#8B8EA4"/>
<path d="M423.167 159.5C423.167 160.052 422.719 160.5 422.167 160.5C421.614 160.5 421.167 160.052 421.167 159.5C421.167 158.948 421.614 158.5 422.167 158.5C422.719 158.5 423.167 158.948 423.167 159.5Z" fill="#8B8EA4"/>
<path d="M426.167 160.5C426.719 160.5 427.167 160.052 427.167 159.5C427.167 158.948 426.719 158.5 426.167 158.5C425.614 158.5 425.167 158.948 425.167 159.5C425.167 160.052 425.614 160.5 426.167 160.5Z" fill="#8B8EA4"/>
<path fill-rule="evenodd" clip-rule="evenodd" d="M422.167 148.75C416.229 148.75 411.417 153.563 411.417 159.5C411.417 165.437 416.229 170.25 422.167 170.25C428.104 170.25 432.917 165.437 432.917 159.5C432.917 153.563 428.104 148.75 422.167 148.75ZM412.917 159.5C412.917 154.391 417.058 150.25 422.167 150.25C427.275 150.25 431.417 154.391 431.417 159.5C431.417 164.609 427.275 168.75 422.167 168.75C417.058 168.75 412.917 164.609 412.917 159.5Z" fill="#8B8EA4"/>
<path d="M407.765 186.5V177.74H409.325L411.917 183.584H412.109L414.689 177.74H416.261V186.5H415.085V179.024L415.169 179.048L412.685 184.688H411.245L408.749 179.048L408.845 179.024V186.5H407.765ZM421.588 186.716C421.028 186.716 420.536 186.62 420.112 186.428C419.688 186.236 419.328 185.984 419.032 185.672C418.744 185.352 418.524 184.996 418.372 184.604C418.228 184.212 418.156 183.812 418.156 183.404V183.188C418.156 182.78 418.232 182.38 418.384 181.988C418.536 181.588 418.76 181.232 419.056 180.92C419.352 180.6 419.712 180.348 420.136 180.164C420.56 179.972 421.044 179.876 421.588 179.876C422.132 179.876 422.616 179.972 423.04 180.164C423.464 180.348 423.824 180.6 424.12 180.92C424.416 181.232 424.64 181.588 424.792 181.988C424.944 182.38 425.02 182.78 425.02 183.188V183.404C425.02 183.812 424.944 184.212 424.792 184.604C424.648 184.996 424.428 185.352 424.132 185.672C423.844 185.984 423.488 186.236 423.064 186.428C422.64 186.62 422.148 186.716 421.588 186.716ZM421.588 185.684C422.068 185.684 422.476 185.58 422.812 185.372C423.156 185.156 423.416 184.868 423.592 184.508C423.776 184.148 423.868 183.744 423.868 183.296C423.868 182.84 423.776 182.432 423.592 182.072C423.408 181.712 423.144 181.428 422.8 181.22C422.464 181.012 422.06 180.908 421.588 180.908C421.124 180.908 420.72 181.012 420.376 181.22C420.032 181.428 419.768 181.712 419.584 182.072C419.4 182.432 419.308 182.84 419.308 183.296C419.308 183.744 419.396 184.148 419.572 184.508C419.756 184.868 420.016 185.156 420.352 185.372C420.696 185.58 421.108 185.684 421.588 185.684ZM426.745 186.5V180.092H427.657V182.732H427.609C427.609 181.796 427.813 181.112 428.221 180.68C428.637 180.24 429.257 180.02 430.081 180.02H430.297V181.052H429.889C429.249 181.052 428.757 181.224 428.413 181.568C428.069 181.904 427.897 182.392 427.897 183.032V186.5H426.745ZM434.321 186.716C433.761 186.716 433.277 186.62 432.869 186.428C432.461 186.236 432.129 185.984 431.873 185.672C431.617 185.352 431.425 184.996 431.297 184.604C431.177 184.212 431.117 183.812 431.117 183.404V183.188C431.117 182.772 431.177 182.368 431.297 181.976C431.425 181.584 431.617 181.232 431.873 180.92C432.129 180.6 432.453 180.348 432.845 180.164C433.245 179.972 433.713 179.876 434.249 179.876C434.945 179.876 435.517 180.028 435.965 180.332C436.421 180.628 436.757 181.012 436.973 181.484C437.197 181.956 437.309 182.46 437.309 182.996V183.512H431.621V182.648H436.469L436.205 183.116C436.205 182.66 436.133 182.268 435.989 181.94C435.845 181.604 435.629 181.344 435.341 181.16C435.053 180.976 434.689 180.884 434.249 180.884C433.793 180.884 433.413 180.988 433.109 181.196C432.813 181.404 432.589 181.688 432.437 182.048C432.293 182.408 432.221 182.824 432.221 183.296C432.221 183.752 432.293 184.164 432.437 184.532C432.589 184.892 432.821 185.18 433.133 185.396C433.445 185.604 433.841 185.708 434.321 185.708C434.825 185.708 435.233 185.596 435.545 185.372C435.865 185.148 436.057 184.888 436.121 184.592H437.201C437.113 185.032 436.937 185.412 436.673 185.732C436.409 186.052 436.077 186.296 435.677 186.464C435.277 186.632 434.825 186.716 434.321 186.716Z" fill="#8B8EA4"/>
<rect width="375" height="34" transform="translate(123 198)" fill="white"/>
<rect x="244" y="219" width="134" height="5" rx="2.5" fill="#010000"/>
</g>
<path d="M148.5 83.075L143.175 71.75H147.375L151.2 80.225L150.475 80H152.575L151.8 80.225L155.25 71.75H159.225L154.325 83.075H148.5ZM149.4 90V82.5H153.425V90H149.4ZM165.539 90.475C164.339 90.475 163.272 90.2917 162.339 89.925C161.406 89.5417 160.614 89.025 159.964 88.375C159.331 87.725 158.847 86.9833 158.514 86.15C158.181 85.3 158.014 84.4083 158.014 83.475V82.9C158.014 81.95 158.181 81.05 158.514 80.2C158.864 79.3333 159.364 78.575 160.014 77.925C160.681 77.275 161.481 76.7667 162.414 76.4C163.347 76.0167 164.389 75.825 165.539 75.825C166.722 75.825 167.772 76.0167 168.689 76.4C169.622 76.7667 170.414 77.275 171.064 77.925C171.714 78.575 172.214 79.3333 172.564 80.2C172.914 81.05 173.089 81.95 173.089 82.9V83.475C173.089 84.4083 172.922 85.3 172.589 86.15C172.256 86.9833 171.764 87.725 171.114 88.375C170.481 89.025 169.697 89.5417 168.764 89.925C167.831 90.2917 166.756 90.475 165.539 90.475ZM165.539 87.1C166.322 87.1 166.972 86.9333 167.489 86.6C168.006 86.2667 168.397 85.8 168.664 85.2C168.947 84.6 169.089 83.9333 169.089 83.2C169.089 82.4167 168.947 81.7333 168.664 81.15C168.381 80.55 167.972 80.075 167.439 79.725C166.922 79.375 166.289 79.2 165.539 79.2C164.806 79.2 164.172 79.375 163.639 79.725C163.106 80.075 162.697 80.55 162.414 81.15C162.147 81.7333 162.014 82.4167 162.014 83.2C162.014 83.9333 162.147 84.6 162.414 85.2C162.681 85.8 163.081 86.2667 163.614 86.6C164.147 86.9333 164.789 87.1 165.539 87.1ZM179.506 90.425C177.922 90.425 176.706 89.9167 175.856 88.9C175.006 87.8667 174.581 86.3167 174.581 84.25V76.3H178.581V84.45C178.581 85.1833 178.789 85.7667 179.206 86.2C179.622 86.6333 180.181 86.85 180.881 86.85C181.597 86.85 182.181 86.625 182.631 86.175C183.081 85.725 183.306 85.1167 183.306 84.35V76.3H187.306V90H184.131V84.225H184.406C184.406 85.6083 184.222 86.7667 183.856 87.7C183.506 88.6167 182.981 89.3 182.281 89.75C181.581 90.2 180.714 90.425 179.681 90.425H179.506ZM189.144 80.275V78H189.919C190.369 78 190.727 77.9333 190.994 77.8C191.277 77.6667 191.486 77.4333 191.619 77.1C191.752 76.75 191.819 76.275 191.819 75.675V73.85L192.569 75.4C192.452 75.5 192.286 75.5833 192.069 75.65C191.852 75.7 191.611 75.725 191.344 75.725C190.761 75.725 190.269 75.55 189.869 75.2C189.469 74.8333 189.269 74.325 189.269 73.675C189.269 73.0583 189.461 72.5417 189.844 72.125C190.227 71.6917 190.777 71.475 191.494 71.475C191.961 71.475 192.386 71.5833 192.769 71.8C193.169 72.0167 193.486 72.3833 193.719 72.9C193.969 73.4167 194.094 74.1167 194.094 75V75.375C194.094 76.5583 193.919 77.5083 193.569 78.225C193.236 78.9417 192.744 79.4667 192.094 79.8C191.444 80.1167 190.644 80.275 189.694 80.275H189.144ZM195.732 90V76.3H198.907V82.175H198.832C198.832 80.2417 199.241 78.75 200.057 77.7C200.891 76.65 202.091 76.125 203.657 76.125H204.182V79.575H203.182C202.082 79.575 201.232 79.875 200.632 80.475C200.032 81.0583 199.732 81.9083 199.732 83.025V90H195.732ZM211.456 90.475C210.29 90.475 209.256 90.275 208.356 89.875C207.473 89.475 206.731 88.9417 206.131 88.275C205.548 87.5917 205.098 86.8333 204.781 86C204.481 85.15 204.331 84.2833 204.331 83.4V82.9C204.331 81.9833 204.481 81.1083 204.781 80.275C205.098 79.425 205.548 78.6667 206.131 78C206.715 77.3333 207.44 76.8083 208.306 76.425C209.19 76.025 210.19 75.825 211.306 75.825C212.773 75.825 214.006 76.1583 215.006 76.825C216.023 77.475 216.798 78.3333 217.331 79.4C217.865 80.45 218.131 81.6 218.131 82.85V84.2H206.006V81.925H215.706L214.406 82.975C214.406 82.1583 214.29 81.4583 214.056 80.875C213.823 80.2917 213.473 79.85 213.006 79.55C212.556 79.2333 211.99 79.075 211.306 79.075C210.606 79.075 210.015 79.2333 209.531 79.55C209.048 79.8667 208.681 80.3333 208.431 80.95C208.181 81.55 208.056 82.2917 208.056 83.175C208.056 83.9917 208.173 84.7083 208.406 85.325C208.64 85.925 209.006 86.3917 209.506 86.725C210.006 87.0583 210.656 87.225 211.456 87.225C212.19 87.225 212.79 87.0833 213.256 86.8C213.723 86.5167 214.04 86.1667 214.206 85.75H217.881C217.681 86.6667 217.29 87.4833 216.706 88.2C216.123 88.9167 215.39 89.475 214.506 89.875C213.623 90.275 212.606 90.475 211.456 90.475ZM233.006 90.475C231.356 90.475 229.914 90.1917 228.681 89.625C227.464 89.0417 226.456 88.2833 225.656 87.35C224.856 86.4 224.256 85.375 223.856 84.275C223.473 83.175 223.281 82.1167 223.281 81.1V80.55C223.281 79.4167 223.481 78.3 223.881 77.2C224.298 76.0833 224.914 75.075 225.731 74.175C226.548 73.275 227.564 72.5583 228.781 72.025C229.998 71.475 231.406 71.2 233.006 71.2C234.606 71.2 236.014 71.475 237.231 72.025C238.448 72.5583 239.464 73.275 240.281 74.175C241.098 75.075 241.714 76.0833 242.131 77.2C242.548 78.3 242.756 79.4167 242.756 80.55V81.1C242.756 82.1167 242.556 83.175 242.156 84.275C241.756 85.375 241.156 86.4 240.356 87.35C239.556 88.2833 238.539 89.0417 237.306 89.625C236.089 90.1917 234.656 90.475 233.006 90.475ZM233.006 86.65C233.873 86.65 234.648 86.5 235.331 86.2C236.031 85.9 236.623 85.4833 237.106 84.95C237.606 84.4167 237.981 83.8 238.231 83.1C238.481 82.4 238.606 81.65 238.606 80.85C238.606 80 238.473 79.225 238.206 78.525C237.956 77.8083 237.581 77.1917 237.081 76.675C236.598 76.1417 236.014 75.7333 235.331 75.45C234.648 75.1667 233.873 75.025 233.006 75.025C232.139 75.025 231.364 75.1667 230.681 75.45C229.998 75.7333 229.406 76.1417 228.906 76.675C228.423 77.1917 228.056 77.8083 227.806 78.525C227.556 79.225 227.431 80 227.431 80.85C227.431 81.65 227.556 82.4 227.806 83.1C228.056 83.8 228.423 84.4167 228.906 84.95C229.406 85.4833 229.998 85.9 230.681 86.2C231.364 86.5 232.139 86.65 233.006 86.65ZM244.913 90V76.025C244.913 74.4417 245.354 73.2667 246.238 72.5C247.138 71.7333 248.463 71.35 250.213 71.35H251.488V74.35H250.038C249.588 74.35 249.238 74.475 248.988 74.725C248.754 74.975 248.638 75.325 248.638 75.775V90H244.913ZM253.888 90V76.425C253.888 74.8417 254.338 73.6667 255.238 72.9C256.138 72.1333 257.463 71.75 259.213 71.75H260.438V74.725H259.038C258.588 74.725 258.238 74.85 257.988 75.1C257.738 75.35 257.613 75.7 257.613 76.15V90H253.888ZM263.038 90V71.75H267.063V90H263.038ZM243.313 79.5V76.575H260.538V79.5H243.313ZM261.538 74.7V71.75H267.063V74.7H261.538ZM270.386 90V76.3H274.386V90H270.386ZM268.561 79.25V76.3H274.386V79.25H268.561ZM271.936 74.95C271.186 74.95 270.628 74.7583 270.261 74.375C269.911 73.975 269.736 73.475 269.736 72.875C269.736 72.2583 269.911 71.7583 270.261 71.375C270.628 70.975 271.186 70.775 271.936 70.775C272.686 70.775 273.236 70.975 273.586 71.375C273.953 71.7583 274.136 72.2583 274.136 72.875C274.136 73.475 273.953 73.975 273.586 74.375C273.236 74.7583 272.686 74.95 271.936 74.95ZM277.086 90V76.3H280.261V82.175H280.036C280.036 80.775 280.211 79.6083 280.561 78.675C280.927 77.7417 281.477 77.0417 282.211 76.575C282.944 76.1083 283.836 75.875 284.886 75.875H285.061C286.661 75.875 287.877 76.4 288.711 77.45C289.561 78.4833 289.986 80.0583 289.986 82.175V90H285.986V81.95C285.986 81.2167 285.769 80.6167 285.336 80.15C284.902 79.6833 284.319 79.45 283.586 79.45C282.836 79.45 282.227 79.6917 281.761 80.175C281.311 80.6417 281.086 81.2583 281.086 82.025V90H277.086ZM298.669 90.475C297.503 90.475 296.469 90.275 295.569 89.875C294.686 89.475 293.944 88.9417 293.344 88.275C292.761 87.5917 292.311 86.8333 291.994 86C291.694 85.15 291.544 84.2833 291.544 83.4V82.9C291.544 81.9833 291.694 81.1083 291.994 80.275C292.311 79.425 292.761 78.6667 293.344 78C293.928 77.3333 294.653 76.8083 295.519 76.425C296.403 76.025 297.403 75.825 298.519 75.825C299.986 75.825 301.219 76.1583 302.219 76.825C303.236 77.475 304.011 78.3333 304.544 79.4C305.078 80.45 305.344 81.6 305.344 82.85V84.2H293.219V81.925H302.919L301.619 82.975C301.619 82.1583 301.503 81.4583 301.269 80.875C301.036 80.2917 300.686 79.85 300.219 79.55C299.769 79.2333 299.203 79.075 298.519 79.075C297.819 79.075 297.228 79.2333 296.744 79.55C296.261 79.8667 295.894 80.3333 295.644 80.95C295.394 81.55 295.269 82.2917 295.269 83.175C295.269 83.9917 295.386 84.7083 295.619 85.325C295.853 85.925 296.219 86.3917 296.719 86.725C297.219 87.0583 297.869 87.225 298.669 87.225C299.403 87.225 300.003 87.0833 300.469 86.8C300.936 86.5167 301.253 86.1667 301.419 85.75H305.094C304.894 86.6667 304.503 87.4833 303.919 88.2C303.336 88.9167 302.603 89.475 301.719 89.875C300.836 90.275 299.819 90.475 298.669 90.475ZM307.095 83.825V71.75H311.195V83.825H307.095ZM306.795 90V85.975H311.495V90H306.795Z" fill="#333333"/>
<path d="M149.912 114.288C149.005 114.288 148.184 114.139 147.448 113.84C146.712 113.541 146.077 113.12 145.544 112.576C145.021 112.032 144.616 111.392 144.328 110.656C144.04 109.909 143.896 109.099 143.896 108.224V107.872C143.896 107.125 144.024 106.405 144.28 105.712C144.547 105.008 144.925 104.379 145.416 103.824C145.917 103.259 146.525 102.816 147.24 102.496C147.955 102.165 148.76 102 149.656 102C150.627 102 151.491 102.187 152.248 102.56C153.005 102.923 153.613 103.435 154.072 104.096C154.531 104.747 154.797 105.504 154.872 106.368H153.272C153.197 105.717 152.984 105.179 152.632 104.752C152.28 104.315 151.843 103.989 151.32 103.776C150.808 103.552 150.253 103.44 149.656 103.44C149.048 103.44 148.488 103.552 147.976 103.776C147.464 103.989 147.021 104.299 146.648 104.704C146.285 105.109 146.003 105.595 145.8 106.16C145.597 106.725 145.496 107.36 145.496 108.064C145.496 108.864 145.603 109.568 145.816 110.176C146.04 110.773 146.349 111.275 146.744 111.68C147.139 112.075 147.603 112.373 148.136 112.576C148.68 112.779 149.272 112.88 149.912 112.88C150.819 112.88 151.613 112.699 152.296 112.336C152.989 111.963 153.512 111.483 153.864 110.896L153.288 112.8V109.328H154.76V112.112C154.237 112.795 153.565 113.328 152.744 113.712C151.923 114.096 150.979 114.288 149.912 114.288ZM149.496 109.648V108.336H155.752V109.648H149.496ZM161.385 114.288C160.638 114.288 159.982 114.16 159.417 113.904C158.852 113.648 158.372 113.312 157.977 112.896C157.593 112.469 157.3 111.995 157.097 111.472C156.905 110.949 156.809 110.416 156.809 109.872V109.584C156.809 109.04 156.91 108.507 157.113 107.984C157.316 107.451 157.614 106.976 158.009 106.56C158.404 106.133 158.884 105.797 159.449 105.552C160.014 105.296 160.66 105.168 161.385 105.168C162.11 105.168 162.756 105.296 163.321 105.552C163.886 105.797 164.366 106.133 164.761 106.56C165.156 106.976 165.454 107.451 165.657 107.984C165.86 108.507 165.961 109.04 165.961 109.584V109.872C165.961 110.416 165.86 110.949 165.657 111.472C165.465 111.995 165.172 112.469 164.777 112.896C164.393 113.312 163.918 113.648 163.353 113.904C162.788 114.16 162.132 114.288 161.385 114.288ZM161.385 112.912C162.025 112.912 162.569 112.773 163.017 112.496C163.476 112.208 163.822 111.824 164.057 111.344C164.302 110.864 164.425 110.325 164.425 109.728C164.425 109.12 164.302 108.576 164.057 108.096C163.812 107.616 163.46 107.237 163.001 106.96C162.553 106.683 162.014 106.544 161.385 106.544C160.766 106.544 160.228 106.683 159.769 106.96C159.31 107.237 158.958 107.616 158.713 108.096C158.468 108.576 158.345 109.12 158.345 109.728C158.345 110.325 158.462 110.864 158.697 111.344C158.942 111.824 159.289 112.208 159.737 112.496C160.196 112.773 160.745 112.912 161.385 112.912ZM175.198 114.288C174.451 114.288 173.795 114.16 173.23 113.904C172.665 113.648 172.185 113.312 171.79 112.896C171.406 112.469 171.113 111.995 170.91 111.472C170.718 110.949 170.622 110.416 170.622 109.872V109.584C170.622 109.04 170.723 108.507 170.926 107.984C171.129 107.451 171.427 106.976 171.822 106.56C172.217 106.133 172.697 105.797 173.262 105.552C173.827 105.296 174.473 105.168 175.198 105.168C175.923 105.168 176.569 105.296 177.134 105.552C177.699 105.797 178.179 106.133 178.574 106.56C178.969 106.976 179.267 107.451 179.47 107.984C179.673 108.507 179.774 109.04 179.774 109.584V109.872C179.774 110.416 179.673 110.949 179.47 111.472C179.278 111.995 178.985 112.469 178.59 112.896C178.206 113.312 177.731 113.648 177.166 113.904C176.601 114.16 175.945 114.288 175.198 114.288ZM175.198 112.912C175.838 112.912 176.382 112.773 176.83 112.496C177.289 112.208 177.635 111.824 177.87 111.344C178.115 110.864 178.238 110.325 178.238 109.728C178.238 109.12 178.115 108.576 177.87 108.096C177.625 107.616 177.273 107.237 176.814 106.96C176.366 106.683 175.827 106.544 175.198 106.544C174.579 106.544 174.041 106.683 173.582 106.96C173.123 107.237 172.771 107.616 172.526 108.096C172.281 108.576 172.158 109.12 172.158 109.728C172.158 110.325 172.275 110.864 172.51 111.344C172.755 111.824 173.102 112.208 173.55 112.496C174.009 112.773 174.558 112.912 175.198 112.912ZM181.755 114V105.456H182.971V109.12H182.779C182.779 108.277 182.891 107.568 183.115 106.992C183.349 106.405 183.701 105.963 184.171 105.664C184.64 105.355 185.232 105.2 185.947 105.2H186.011C187.088 105.2 187.883 105.536 188.395 106.208C188.917 106.88 189.179 107.851 189.179 109.12V114H187.643V108.8C187.643 108.139 187.456 107.611 187.083 107.216C186.709 106.811 186.197 106.608 185.547 106.608C184.875 106.608 184.331 106.816 183.915 107.232C183.499 107.648 183.291 108.203 183.291 108.896V114H181.755ZM191.765 114V102.32H193.301V114H191.765ZM190.581 103.536V102.32H193.301V103.536H190.581ZM196.343 114V105.456H197.879V114H196.343ZM195.031 106.672V105.456H197.879V106.672H195.031ZM196.775 104.08C196.434 104.08 196.178 103.989 196.007 103.808C195.847 103.627 195.767 103.397 195.767 103.12C195.767 102.843 195.847 102.613 196.007 102.432C196.178 102.251 196.434 102.16 196.775 102.16C197.116 102.16 197.367 102.251 197.527 102.432C197.698 102.613 197.783 102.843 197.783 103.12C197.783 103.397 197.698 103.627 197.527 103.808C197.367 103.989 197.116 104.08 196.775 104.08ZM200.529 114V105.456H201.745V109.12H201.553C201.553 108.277 201.665 107.568 201.889 106.992C202.124 106.405 202.476 105.963 202.945 105.664C203.414 105.355 204.006 105.2 204.721 105.2H204.785C205.862 105.2 206.657 105.536 207.169 106.208C207.692 106.88 207.953 107.851 207.953 109.12V114H206.417V108.8C206.417 108.139 206.23 107.611 205.857 107.216C205.484 106.811 204.972 106.608 204.321 106.608C203.649 106.608 203.105 106.816 202.689 107.232C202.273 107.648 202.065 108.203 202.065 108.896V114H200.529ZM214.075 114.288C213.329 114.288 212.683 114.16 212.139 113.904C211.595 113.648 211.153 113.312 210.811 112.896C210.47 112.469 210.214 111.995 210.043 111.472C209.883 110.949 209.803 110.416 209.803 109.872V109.584C209.803 109.029 209.883 108.491 210.043 107.968C210.214 107.445 210.47 106.976 210.811 106.56C211.153 106.133 211.585 105.797 212.107 105.552C212.641 105.296 213.265 105.168 213.979 105.168C214.907 105.168 215.67 105.371 216.267 105.776C216.875 106.171 217.323 106.683 217.611 107.312C217.91 107.941 218.059 108.613 218.059 109.328V110.016H210.475V108.864H216.939L216.587 109.488C216.587 108.88 216.491 108.357 216.299 107.92C216.107 107.472 215.819 107.125 215.435 106.88C215.051 106.635 214.566 106.512 213.979 106.512C213.371 106.512 212.865 106.651 212.459 106.928C212.065 107.205 211.766 107.584 211.563 108.064C211.371 108.544 211.275 109.099 211.275 109.728C211.275 110.336 211.371 110.885 211.563 111.376C211.766 111.856 212.075 112.24 212.491 112.528C212.907 112.805 213.435 112.944 214.075 112.944C214.747 112.944 215.291 112.795 215.707 112.496C216.134 112.197 216.39 111.851 216.475 111.456H217.915C217.798 112.043 217.563 112.549 217.211 112.976C216.859 113.403 216.417 113.728 215.883 113.952C215.35 114.176 214.747 114.288 214.075 114.288ZM226.569 114.096C225.929 114.096 225.374 114.005 224.905 113.824C224.446 113.643 224.089 113.333 223.833 112.896C223.587 112.448 223.465 111.845 223.465 111.088V102.864H224.937V111.28C224.937 111.739 225.059 112.096 225.305 112.352C225.561 112.597 225.918 112.72 226.377 112.72H227.881V114.096H226.569ZM221.993 106.608V105.456H227.881V106.608H221.993ZM233.607 114.288C232.86 114.288 232.204 114.16 231.639 113.904C231.073 113.648 230.593 113.312 230.199 112.896C229.815 112.469 229.521 111.995 229.319 111.472C229.127 110.949 229.031 110.416 229.031 109.872V109.584C229.031 109.04 229.132 108.507 229.335 107.984C229.537 107.451 229.836 106.976 230.231 106.56C230.625 106.133 231.105 105.797 231.671 105.552C232.236 105.296 232.881 105.168 233.607 105.168C234.332 105.168 234.977 105.296 235.543 105.552C236.108 105.797 236.588 106.133 236.983 106.56C237.377 106.976 237.676 107.451 237.879 107.984C238.081 108.507 238.183 109.04 238.183 109.584V109.872C238.183 110.416 238.081 110.949 237.879 111.472C237.687 111.995 237.393 112.469 236.999 112.896C236.615 113.312 236.14 113.648 235.575 113.904C235.009 114.16 234.353 114.288 233.607 114.288ZM233.607 112.912C234.247 112.912 234.791 112.773 235.239 112.496C235.697 112.208 236.044 111.824 236.279 111.344C236.524 110.864 236.647 110.325 236.647 109.728C236.647 109.12 236.524 108.576 236.279 108.096C236.033 107.616 235.681 107.237 235.223 106.96C234.775 106.683 234.236 106.544 233.607 106.544C232.988 106.544 232.449 106.683 231.991 106.96C231.532 107.237 231.18 107.616 230.935 108.096C230.689 108.576 230.567 109.12 230.567 109.728C230.567 110.325 230.684 110.864 230.919 111.344C231.164 111.824 231.511 112.208 231.959 112.496C232.417 112.773 232.967 112.912 233.607 112.912ZM247.996 114.288C247.292 114.288 246.663 114.133 246.108 113.824C245.564 113.515 245.132 113.067 244.812 112.48C244.492 111.883 244.316 111.168 244.284 110.336H244.7V114H243.484V102.32H245.02V108L244.476 109.168C244.519 108.24 244.705 107.483 245.036 106.896C245.367 106.309 245.799 105.877 246.332 105.6C246.876 105.312 247.473 105.168 248.124 105.168C248.732 105.168 249.287 105.285 249.788 105.52C250.289 105.744 250.721 106.059 251.084 106.464C251.447 106.859 251.724 107.323 251.916 107.856C252.108 108.379 252.204 108.944 252.204 109.552V109.84C252.204 110.448 252.103 111.019 251.9 111.552C251.708 112.085 251.425 112.56 251.052 112.976C250.679 113.381 250.231 113.701 249.708 113.936C249.196 114.171 248.625 114.288 247.996 114.288ZM247.82 112.944C248.396 112.944 248.897 112.805 249.324 112.528C249.751 112.251 250.081 111.872 250.316 111.392C250.551 110.901 250.668 110.336 250.668 109.696C250.668 109.056 250.545 108.496 250.3 108.016C250.065 107.536 249.735 107.168 249.308 106.912C248.881 106.645 248.385 106.512 247.82 106.512C247.308 106.512 246.833 106.629 246.396 106.864C245.959 107.088 245.607 107.419 245.34 107.856C245.084 108.283 244.956 108.8 244.956 109.408V110.144C244.956 110.731 245.089 111.232 245.356 111.648C245.623 112.064 245.975 112.384 246.412 112.608C246.849 112.832 247.319 112.944 247.82 112.944ZM257.827 114.288C257.08 114.288 256.435 114.16 255.891 113.904C255.347 113.648 254.904 113.312 254.563 112.896C254.222 112.469 253.966 111.995 253.795 111.472C253.635 110.949 253.555 110.416 253.555 109.872V109.584C253.555 109.029 253.635 108.491 253.795 107.968C253.966 107.445 254.222 106.976 254.563 106.56C254.904 106.133 255.336 105.797 255.859 105.552C256.392 105.296 257.016 105.168 257.731 105.168C258.659 105.168 259.422 105.371 260.019 105.776C260.627 106.171 261.075 106.683 261.363 107.312C261.662 107.941 261.811 108.613 261.811 109.328V110.016H254.227V108.864H260.691L260.339 109.488C260.339 108.88 260.243 108.357 260.051 107.92C259.859 107.472 259.571 107.125 259.187 106.88C258.803 106.635 258.318 106.512 257.731 106.512C257.123 106.512 256.616 106.651 256.211 106.928C255.816 107.205 255.518 107.584 255.315 108.064C255.123 108.544 255.027 109.099 255.027 109.728C255.027 110.336 255.123 110.885 255.315 111.376C255.518 111.856 255.827 112.24 256.243 112.528C256.659 112.805 257.187 112.944 257.827 112.944C258.499 112.944 259.043 112.795 259.459 112.496C259.886 112.197 260.142 111.851 260.227 111.456H261.667C261.55 112.043 261.315 112.549 260.963 112.976C260.611 113.403 260.168 113.728 259.635 113.952C259.102 114.176 258.499 114.288 257.827 114.288ZM269.793 114.256C268.673 114.256 267.803 114.016 267.185 113.536C266.577 113.056 266.262 112.4 266.241 111.568H267.681C267.702 111.899 267.867 112.213 268.177 112.512C268.497 112.8 269.035 112.944 269.793 112.944C270.475 112.944 270.998 112.811 271.361 112.544C271.723 112.267 271.905 111.931 271.905 111.536C271.905 111.184 271.771 110.912 271.505 110.72C271.238 110.517 270.806 110.384 270.209 110.32L269.281 110.224C268.47 110.139 267.809 109.899 267.297 109.504C266.785 109.099 266.529 108.533 266.529 107.808C266.529 107.264 266.667 106.8 266.945 106.416C267.222 106.021 267.606 105.723 268.097 105.52C268.587 105.307 269.153 105.2 269.793 105.2C270.753 105.2 271.531 105.413 272.129 105.84C272.726 106.267 273.035 106.901 273.057 107.744H271.617C271.606 107.403 271.446 107.115 271.137 106.88C270.838 106.635 270.39 106.512 269.793 106.512C269.195 106.512 268.742 106.635 268.433 106.88C268.123 107.125 267.969 107.435 267.969 107.808C267.969 108.128 268.075 108.384 268.289 108.576C268.513 108.768 268.875 108.891 269.377 108.944L270.305 109.04C271.222 109.136 271.958 109.392 272.513 109.808C273.067 110.213 273.345 110.789 273.345 111.536C273.345 112.069 273.19 112.544 272.881 112.96C272.582 113.365 272.166 113.685 271.633 113.92C271.099 114.144 270.486 114.256 269.793 114.256ZM278.883 114.288C278.136 114.288 277.491 114.16 276.947 113.904C276.403 113.648 275.96 113.312 275.619 112.896C275.277 112.469 275.021 111.995 274.851 111.472C274.691 110.949 274.611 110.416 274.611 109.872V109.584C274.611 109.029 274.691 108.491 274.851 107.968C275.021 107.445 275.277 106.976 275.619 106.56C275.96 106.133 276.392 105.797 276.915 105.552C277.448 105.296 278.072 105.168 278.787 105.168C279.715 105.168 280.477 105.371 281.075 105.776C281.683 106.171 282.131 106.683 282.419 107.312C282.717 107.941 282.867 108.613 282.867 109.328V110.016H275.283V108.864H281.747L281.395 109.488C281.395 108.88 281.299 108.357 281.107 107.92C280.915 107.472 280.627 107.125 280.243 106.88C279.859 106.635 279.373 106.512 278.787 106.512C278.179 106.512 277.672 106.651 277.267 106.928C276.872 107.205 276.573 107.584 276.371 108.064C276.179 108.544 276.083 109.099 276.083 109.728C276.083 110.336 276.179 110.885 276.371 111.376C276.573 111.856 276.883 112.24 277.299 112.528C277.715 112.805 278.243 112.944 278.883 112.944C279.555 112.944 280.099 112.795 280.515 112.496C280.941 112.197 281.197 111.851 281.283 111.456H282.723C282.605 112.043 282.371 112.549 282.019 112.976C281.667 113.403 281.224 113.728 280.691 113.952C280.157 114.176 279.555 114.288 278.883 114.288ZM288.36 114.288C287.613 114.288 286.968 114.16 286.424 113.904C285.88 113.648 285.437 113.312 285.096 112.896C284.754 112.469 284.498 111.995 284.328 111.472C284.168 110.949 284.088 110.416 284.088 109.872V109.584C284.088 109.029 284.168 108.491 284.328 107.968C284.498 107.445 284.754 106.976 285.096 106.56C285.437 106.133 285.869 105.797 286.392 105.552C286.925 105.296 287.549 105.168 288.264 105.168C289.192 105.168 289.954 105.371 290.552 105.776C291.16 106.171 291.608 106.683 291.896 107.312C292.194 107.941 292.344 108.613 292.344 109.328V110.016H284.76V108.864H291.224L290.872 109.488C290.872 108.88 290.776 108.357 290.584 107.92C290.392 107.472 290.104 107.125 289.72 106.88C289.336 106.635 288.85 106.512 288.264 106.512C287.656 106.512 287.149 106.651 286.744 106.928C286.349 107.205 286.05 107.584 285.848 108.064C285.656 108.544 285.56 109.099 285.56 109.728C285.56 110.336 285.656 110.885 285.848 111.376C286.05 111.856 286.36 112.24 286.776 112.528C287.192 112.805 287.72 112.944 288.36 112.944C289.032 112.944 289.576 112.795 289.992 112.496C290.418 112.197 290.674 111.851 290.76 111.456H292.2C292.082 112.043 291.848 112.549 291.496 112.976C291.144 113.403 290.701 113.728 290.168 113.952C289.634 114.176 289.032 114.288 288.36 114.288ZM294.204 114V105.456H295.42V109.12H295.228C295.228 108.277 295.34 107.568 295.564 106.992C295.799 106.405 296.151 105.963 296.62 105.664C297.09 105.355 297.682 105.2 298.396 105.2H298.46C299.538 105.2 300.332 105.536 300.844 106.208C301.367 106.88 301.628 107.851 301.628 109.12V114H300.092V108.8C300.092 108.139 299.906 107.611 299.532 107.216C299.159 106.811 298.647 106.608 297.996 106.608C297.324 106.608 296.78 106.816 296.364 107.232C295.948 107.648 295.74 108.203 295.74 108.896V114H294.204ZM303.815 114V112.048H305.671V114H303.815Z" fill="#545454"/>
<rect x="349" y="68" width="129" height="48" rx="24" fill="#22C553"/>
<path d="M382.528 97.288C381.621 97.288 380.8 97.1387 380.064 96.84C379.328 96.5413 378.693 96.12 378.16 95.576C377.637 95.032 377.232 94.392 376.944 93.656C376.656 92.9093 376.512 92.0987 376.512 91.224V90.872C376.512 90.1253 376.64 89.4053 376.896 88.712C377.163 88.008 377.541 87.3787 378.032 86.824C378.533 86.2587 379.141 85.816 379.856 85.496C380.571 85.1653 381.376 85 382.272 85C383.243 85 384.107 85.1867 384.864 85.56C385.621 85.9227 386.229 86.4347 386.688 87.096C387.147 87.7467 387.413 88.504 387.488 89.368H385.888C385.813 88.7173 385.6 88.1787 385.248 87.752C384.896 87.3147 384.459 86.9893 383.936 86.776C383.424 86.552 382.869 86.44 382.272 86.44C381.664 86.44 381.104 86.552 380.592 86.776C380.08 86.9893 379.637 87.2987 379.264 87.704C378.901 88.1093 378.619 88.5947 378.416 89.16C378.213 89.7253 378.112 90.36 378.112 91.064C378.112 91.864 378.219 92.568 378.432 93.176C378.656 93.7733 378.965 94.2747 379.36 94.68C379.755 95.0747 380.219 95.3733 380.752 95.576C381.296 95.7787 381.888 95.88 382.528 95.88C383.435 95.88 384.229 95.6987 384.912 95.336C385.605 94.9627 386.128 94.4827 386.48 93.896L385.904 95.8V92.328H387.376V95.112C386.853 95.7947 386.181 96.328 385.36 96.712C384.539 97.096 383.595 97.288 382.528 97.288ZM382.112 92.648V91.336H388.368V92.648H382.112ZM394.001 97.288C393.254 97.288 392.598 97.16 392.033 96.904C391.467 96.648 390.987 96.312 390.593 95.896C390.209 95.4693 389.915 94.9947 389.713 94.472C389.521 93.9493 389.425 93.416 389.425 92.872V92.584C389.425 92.04 389.526 91.5067 389.729 90.984C389.931 90.4507 390.23 89.976 390.625 89.56C391.019 89.1333 391.499 88.7973 392.065 88.552C392.63 88.296 393.275 88.168 394.001 88.168C394.726 88.168 395.371 88.296 395.937 88.552C396.502 88.7973 396.982 89.1333 397.377 89.56C397.771 89.976 398.07 90.4507 398.273 90.984C398.475 91.5067 398.577 92.04 398.577 92.584V92.872C398.577 93.416 398.475 93.9493 398.273 94.472C398.081 94.9947 397.787 95.4693 397.393 95.896C397.009 96.312 396.534 96.648 395.969 96.904C395.403 97.16 394.747 97.288 394.001 97.288ZM394.001 95.912C394.641 95.912 395.185 95.7733 395.633 95.496C396.091 95.208 396.438 94.824 396.673 94.344C396.918 93.864 397.041 93.3253 397.041 92.728C397.041 92.12 396.918 91.576 396.673 91.096C396.427 90.616 396.075 90.2373 395.617 89.96C395.169 89.6827 394.63 89.544 394.001 89.544C393.382 89.544 392.843 89.6827 392.385 89.96C391.926 90.2373 391.574 90.616 391.329 91.096C391.083 91.576 390.961 92.12 390.961 92.728C390.961 93.3253 391.078 93.864 391.313 94.344C391.558 94.824 391.905 95.208 392.353 95.496C392.811 95.7733 393.361 95.912 394.001 95.912ZM407.814 97.288C407.067 97.288 406.411 97.16 405.846 96.904C405.281 96.648 404.801 96.312 404.406 95.896C404.022 95.4693 403.729 94.9947 403.526 94.472C403.334 93.9493 403.238 93.416 403.238 92.872V92.584C403.238 92.04 403.339 91.5067 403.542 90.984C403.745 90.4507 404.043 89.976 404.438 89.56C404.833 89.1333 405.313 88.7973 405.878 88.552C406.443 88.296 407.089 88.168 407.814 88.168C408.539 88.168 409.185 88.296 409.75 88.552C410.315 88.7973 410.795 89.1333 411.19 89.56C411.585 89.976 411.883 90.4507 412.086 90.984C412.289 91.5067 412.39 92.04 412.39 92.584V92.872C412.39 93.416 412.289 93.9493 412.086 94.472C411.894 94.9947 411.601 95.4693 411.206 95.896C410.822 96.312 410.347 96.648 409.782 96.904C409.217 97.16 408.561 97.288 407.814 97.288ZM407.814 95.912C408.454 95.912 408.998 95.7733 409.446 95.496C409.905 95.208 410.251 94.824 410.486 94.344C410.731 93.864 410.854 93.3253 410.854 92.728C410.854 92.12 410.731 91.576 410.486 91.096C410.241 90.616 409.889 90.2373 409.43 89.96C408.982 89.6827 408.443 89.544 407.814 89.544C407.195 89.544 406.657 89.6827 406.198 89.96C405.739 90.2373 405.387 90.616 405.142 91.096C404.897 91.576 404.774 92.12 404.774 92.728C404.774 93.3253 404.891 93.864 405.126 94.344C405.371 94.824 405.718 95.208 406.166 95.496C406.625 95.7733 407.174 95.912 407.814 95.912ZM414.37 97V88.456H415.586V92.12H415.394C415.394 91.2773 415.506 90.568 415.73 89.992C415.965 89.4053 416.317 88.9627 416.786 88.664C417.256 88.3547 417.848 88.2 418.562 88.2H418.626C419.704 88.2 420.498 88.536 421.01 89.208C421.533 89.88 421.794 90.8507 421.794 92.12V97H420.258V91.8C420.258 91.1387 420.072 90.6107 419.698 90.216C419.325 89.8107 418.813 89.608 418.162 89.608C417.49 89.608 416.946 89.816 416.53 90.232C416.114 90.648 415.906 91.2027 415.906 91.896V97H414.37ZM424.381 97V85.32H425.917V97H424.381ZM423.197 86.536V85.32H425.917V86.536H423.197ZM428.959 97V88.456H430.495V97H428.959ZM427.647 89.672V88.456H430.495V89.672H427.647ZM429.391 87.08C429.05 87.08 428.794 86.9893 428.623 86.808C428.463 86.6267 428.383 86.3973 428.383 86.12C428.383 85.8427 428.463 85.6133 428.623 85.432C428.794 85.2507 429.05 85.16 429.391 85.16C429.732 85.16 429.983 85.2507 430.143 85.432C430.314 85.6133 430.399 85.8427 430.399 86.12C430.399 86.3973 430.314 86.6267 430.143 86.808C429.983 86.9893 429.732 87.08 429.391 87.08ZM433.145 97V88.456H434.361V92.12H434.169C434.169 91.2773 434.281 90.568 434.505 89.992C434.739 89.4053 435.091 88.9627 435.561 88.664C436.03 88.3547 436.622 88.2 437.337 88.2H437.401C438.478 88.2 439.273 88.536 439.785 89.208C440.307 89.88 440.569 90.8507 440.569 92.12V97H439.033V91.8C439.033 91.1387 438.846 90.6107 438.473 90.216C438.099 89.8107 437.587 89.608 436.937 89.608C436.265 89.608 435.721 89.816 435.305 90.232C434.889 90.648 434.681 91.2027 434.681 91.896V97H433.145ZM446.691 97.288C445.945 97.288 445.299 97.16 444.755 96.904C444.211 96.648 443.769 96.312 443.427 95.896C443.086 95.4693 442.83 94.9947 442.659 94.472C442.499 93.9493 442.419 93.416 442.419 92.872V92.584C442.419 92.0293 442.499 91.4907 442.659 90.968C442.83 90.4453 443.086 89.976 443.427 89.56C443.769 89.1333 444.201 88.7973 444.723 88.552C445.257 88.296 445.881 88.168 446.595 88.168C447.523 88.168 448.286 88.3707 448.883 88.776C449.491 89.1707 449.939 89.6827 450.227 90.312C450.526 90.9413 450.675 91.6133 450.675 92.328V93.016H443.091V91.864H449.555L449.203 92.488C449.203 91.88 449.107 91.3573 448.915 90.92C448.723 90.472 448.435 90.1253 448.051 89.88C447.667 89.6347 447.182 89.512 446.595 89.512C445.987 89.512 445.481 89.6507 445.075 89.928C444.681 90.2053 444.382 90.584 444.179 91.064C443.987 91.544 443.891 92.0987 443.891 92.728C443.891 93.336 443.987 93.8853 444.179 94.376C444.382 94.856 444.691 95.24 445.107 95.528C445.523 95.8053 446.051 95.944 446.691 95.944C447.363 95.944 447.907 95.7947 448.323 95.496C448.75 95.1973 449.006 94.8507 449.091 94.456H450.531C450.414 95.0427 450.179 95.5493 449.827 95.976C449.475 96.4027 449.033 96.728 448.499 96.952C447.966 97.176 447.363 97.288 446.691 97.288Z" fill="white"/>
</g>
<path d="M148 -19H473C485.15 -19 495 -9.15026 495 3V207C495 219.15 485.15 229 473 229H148C135.85 229 126 219.15 126 207V3C126 -9.15026 135.85 -19 148 -19Z" stroke="black" stroke-width="6"/>
</g>
<defs>
<filter id="filter0_d_4931_13493" x="98" y="111" width="425" height="142" filterUnits="userSpaceOnUse" color-interpolation-filters="sRGB">
<feFlood flood-opacity="0" result="BackgroundImageFix"/>
<feColorMatrix in="SourceAlpha" type="matrix" values="0 0 0 0 0 0 0 0 0 0 0 0 0 0 0 0 0 0 127 0" result="hardAlpha"/>
<feOffset dy="-4"/>
<feGaussianBlur stdDeviation="12.5"/>
<feComposite in2="hardAlpha" operator="out"/>
<feColorMatrix type="matrix" values="0 0 0 0 0 0 0 0 0 0 0 0 0 0 0 0 0 0 0.05 0"/>
<feBlend mode="normal" in2="BackgroundImageFix" result="effect1_dropShadow_4931_13493"/>
<feBlend mode="normal" in="SourceGraphic" in2="effect1_dropShadow_4931_13493" result="shape"/>
</filter>
<clipPath id="clip0_4931_13493">
<rect width="621" height="248" rx="8" fill="white"/>
</clipPath>
<clipPath id="clip1_4931_13493">
<path d="M123 3C123 -10.8071 134.193 -22 148 -22H473C486.807 -22 498 -10.8071 498 3V207C498 220.807 486.807 232 473 232H148C134.193 232 123 220.807 123 207V3Z" fill="white"/>
</clipPath>
</defs>
</svg>
