<svg width="621" height="248" viewBox="0 0 621 248" fill="none" xmlns="http://www.w3.org/2000/svg">
<g clip-path="url(#clip0_4931_13539)">
<rect width="621" height="248" rx="8" fill="#F6E6E6"/>
<g clip-path="url(#clip1_4931_13539)">
<g clip-path="url(#clip2_4931_13539)">
<rect x="123" y="-32" width="375" height="812" rx="25" fill="white"/>
<path d="M183.666 144.589C181.62 144.589 179.864 144.227 178.396 143.504C176.929 142.781 175.73 141.84 174.8 140.683C173.891 139.526 173.219 138.265 172.785 136.901C172.351 135.537 172.134 134.225 172.134 132.964V132.282C172.134 130.877 172.351 129.492 172.785 128.128C173.24 126.764 173.932 125.524 174.862 124.408C175.792 123.292 176.97 122.403 178.396 121.742C179.843 121.06 181.548 120.719 183.511 120.719C185.557 120.719 187.335 121.091 188.843 121.835C190.373 122.558 191.592 123.592 192.501 124.935C193.411 126.258 193.958 127.808 194.144 129.585H189.711C189.546 128.552 189.174 127.684 188.595 126.981C188.037 126.258 187.324 125.72 186.456 125.369C185.588 124.997 184.607 124.811 183.511 124.811C182.395 124.811 181.403 125.007 180.535 125.4C179.667 125.772 178.944 126.309 178.365 127.012C177.787 127.715 177.342 128.541 177.032 129.492C176.743 130.443 176.598 131.497 176.598 132.654C176.598 133.77 176.743 134.803 177.032 135.754C177.342 136.705 177.797 137.542 178.396 138.265C178.996 138.968 179.729 139.515 180.597 139.908C181.486 140.301 182.509 140.497 183.666 140.497C185.361 140.497 186.787 140.084 187.944 139.257C189.122 138.41 189.835 137.232 190.083 135.723H194.516C194.31 137.335 193.762 138.813 192.873 140.156C191.985 141.499 190.765 142.574 189.215 143.38C187.665 144.186 185.816 144.589 183.666 144.589ZM197.27 144V127.167H200.68V134.297H200.587C200.587 131.879 201.104 130.05 202.137 128.81C203.17 127.57 204.689 126.95 206.694 126.95H207.314V130.701H206.136C204.689 130.701 203.563 131.094 202.757 131.879C201.972 132.644 201.579 133.76 201.579 135.227V144H197.27ZM216.989 144.589C215.542 144.589 214.271 144.341 213.176 143.845C212.101 143.349 211.202 142.688 210.479 141.861C209.776 141.014 209.239 140.073 208.867 139.04C208.515 138.007 208.34 136.953 208.34 135.878V135.289C208.34 134.173 208.515 133.098 208.867 132.065C209.239 131.011 209.776 130.081 210.479 129.275C211.202 128.448 212.091 127.797 213.145 127.322C214.199 126.826 215.418 126.578 216.803 126.578C218.621 126.578 220.14 126.981 221.36 127.787C222.6 128.572 223.53 129.616 224.15 130.918C224.77 132.199 225.08 133.584 225.08 135.072V136.622H210.169V133.987H222.383L221.05 135.289C221.05 134.214 220.895 133.295 220.585 132.53C220.275 131.765 219.799 131.176 219.159 130.763C218.539 130.35 217.753 130.143 216.803 130.143C215.852 130.143 215.046 130.36 214.385 130.794C213.723 131.228 213.217 131.858 212.866 132.685C212.535 133.491 212.37 134.462 212.37 135.599C212.37 136.653 212.535 137.593 212.866 138.42C213.196 139.226 213.703 139.867 214.385 140.342C215.067 140.797 215.935 141.024 216.989 141.024C218.043 141.024 218.9 140.817 219.562 140.404C220.223 139.97 220.647 139.443 220.833 138.823H224.801C224.553 139.98 224.077 140.993 223.375 141.861C222.672 142.729 221.773 143.401 220.678 143.876C219.603 144.351 218.373 144.589 216.989 144.589ZM238.258 144V139.009H237.545V133.46C237.545 132.489 237.308 131.765 236.832 131.29C236.357 130.815 235.623 130.577 234.631 130.577C234.115 130.577 233.495 130.587 232.771 130.608C232.048 130.629 231.314 130.66 230.57 130.701C229.847 130.722 229.196 130.753 228.617 130.794V127.136C229.093 127.095 229.63 127.053 230.229 127.012C230.829 126.971 231.438 126.95 232.058 126.95C232.699 126.929 233.298 126.919 233.856 126.919C235.592 126.919 237.029 127.146 238.165 127.601C239.323 128.056 240.191 128.769 240.769 129.74C241.369 130.711 241.668 131.982 241.668 133.553V144H238.258ZM232.833 144.434C231.614 144.434 230.539 144.217 229.609 143.783C228.7 143.349 227.987 142.729 227.47 141.923C226.974 141.117 226.726 140.146 226.726 139.009C226.726 137.769 227.026 136.756 227.625 135.971C228.245 135.186 229.103 134.597 230.198 134.204C231.314 133.811 232.616 133.615 234.104 133.615H238.01V136.188H234.042C233.05 136.188 232.286 136.436 231.748 136.932C231.232 137.407 230.973 138.027 230.973 138.792C230.973 139.557 231.232 140.177 231.748 140.652C232.286 141.127 233.05 141.365 234.042 141.365C234.642 141.365 235.189 141.262 235.685 141.055C236.202 140.828 236.626 140.456 236.956 139.939C237.308 139.402 237.504 138.678 237.545 137.769L238.599 138.978C238.496 140.156 238.207 141.148 237.731 141.954C237.277 142.76 236.636 143.38 235.809 143.814C235.003 144.227 234.011 144.434 232.833 144.434ZM252.98 144.217C251.43 144.217 250.149 144.021 249.136 143.628C248.144 143.215 247.4 142.533 246.904 141.582C246.408 140.611 246.16 139.309 246.16 137.676L246.191 122.424H250.221L250.19 137.955C250.19 138.782 250.407 139.422 250.841 139.877C251.296 140.311 251.936 140.528 252.763 140.528H255.398V144.217H252.98ZM243.494 130.329V127.167H255.398V130.329H243.494ZM265.837 144.589C264.39 144.589 263.119 144.341 262.024 143.845C260.949 143.349 260.05 142.688 259.327 141.861C258.624 141.014 258.087 140.073 257.715 139.04C257.363 138.007 257.188 136.953 257.188 135.878V135.289C257.188 134.173 257.363 133.098 257.715 132.065C258.087 131.011 258.624 130.081 259.327 129.275C260.05 128.448 260.939 127.797 261.993 127.322C263.047 126.826 264.266 126.578 265.651 126.578C267.469 126.578 268.988 126.981 270.208 127.787C271.448 128.572 272.378 129.616 272.998 130.918C273.618 132.199 273.928 133.584 273.928 135.072V136.622H259.017V133.987H271.231L269.898 135.289C269.898 134.214 269.743 133.295 269.433 132.53C269.123 131.765 268.647 131.176 268.007 130.763C267.387 130.35 266.601 130.143 265.651 130.143C264.7 130.143 263.894 130.36 263.233 130.794C262.571 131.228 262.065 131.858 261.714 132.685C261.383 133.491 261.218 134.462 261.218 135.599C261.218 136.653 261.383 137.593 261.714 138.42C262.044 139.226 262.551 139.867 263.233 140.342C263.915 140.797 264.783 141.024 265.837 141.024C266.891 141.024 267.748 140.817 268.41 140.404C269.071 139.97 269.495 139.443 269.681 138.823H273.649C273.401 139.98 272.925 140.993 272.223 141.861C271.52 142.729 270.621 143.401 269.526 143.876C268.451 144.351 267.221 144.589 265.837 144.589ZM293.177 144V139.009H292.464V133.46C292.464 132.489 292.226 131.765 291.751 131.29C291.275 130.815 290.542 130.577 289.55 130.577C289.033 130.577 288.413 130.587 287.69 130.608C286.966 130.629 286.233 130.66 285.489 130.701C284.765 130.722 284.114 130.753 283.536 130.794V127.136C284.011 127.095 284.548 127.053 285.148 127.012C285.747 126.971 286.357 126.95 286.977 126.95C287.617 126.929 288.217 126.919 288.775 126.919C290.511 126.919 291.947 127.146 293.084 127.601C294.241 128.056 295.109 128.769 295.688 129.74C296.287 130.711 296.587 131.982 296.587 133.553V144H293.177ZM287.752 144.434C286.532 144.434 285.458 144.217 284.528 143.783C283.618 143.349 282.905 142.729 282.389 141.923C281.893 141.117 281.645 140.146 281.645 139.009C281.645 137.769 281.944 136.756 282.544 135.971C283.164 135.186 284.021 134.597 285.117 134.204C286.233 133.811 287.535 133.615 289.023 133.615H292.929V136.188H288.961C287.969 136.188 287.204 136.436 286.667 136.932C286.15 137.407 285.892 138.027 285.892 138.792C285.892 139.557 286.15 140.177 286.667 140.652C287.204 141.127 287.969 141.365 288.961 141.365C289.56 141.365 290.108 141.262 290.604 141.055C291.12 140.828 291.544 140.456 291.875 139.939C292.226 139.402 292.422 138.678 292.464 137.769L293.518 138.978C293.414 140.156 293.125 141.148 292.65 141.954C292.195 142.76 291.554 143.38 290.728 143.814C289.922 144.227 288.93 144.434 287.752 144.434ZM300.582 144V127.167H303.992V134.39H303.682C303.682 132.675 303.91 131.249 304.364 130.112C304.819 128.955 305.491 128.087 306.379 127.508C307.289 126.929 308.415 126.64 309.758 126.64H309.944C311.949 126.64 313.468 127.291 314.501 128.593C315.535 129.874 316.051 131.796 316.051 134.359V144H311.742V133.987C311.742 132.954 311.443 132.117 310.843 131.476C310.265 130.835 309.459 130.515 308.425 130.515C307.371 130.515 306.514 130.846 305.852 131.507C305.212 132.148 304.891 133.016 304.891 134.111V144H300.582ZM336.333 144V139.009H335.62V133.46C335.62 132.489 335.383 131.765 334.907 131.29C334.432 130.815 333.698 130.577 332.706 130.577C332.19 130.577 331.57 130.587 330.846 130.608C330.123 130.629 329.389 130.66 328.645 130.701C327.922 130.722 327.271 130.753 326.692 130.794V127.136C327.168 127.095 327.705 127.053 328.304 127.012C328.904 126.971 329.513 126.95 330.133 126.95C330.774 126.929 331.373 126.919 331.931 126.919C333.667 126.919 335.104 127.146 336.24 127.601C337.398 128.056 338.266 128.769 338.844 129.74C339.444 130.711 339.743 131.982 339.743 133.553V144H336.333ZM330.908 144.434C329.689 144.434 328.614 144.217 327.684 143.783C326.775 143.349 326.062 142.729 325.545 141.923C325.049 141.117 324.801 140.146 324.801 139.009C324.801 137.769 325.101 136.756 325.7 135.971C326.32 135.186 327.178 134.597 328.273 134.204C329.389 133.811 330.691 133.615 332.179 133.615H336.085V136.188H332.117C331.125 136.188 330.361 136.436 329.823 136.932C329.307 137.407 329.048 138.027 329.048 138.792C329.048 139.557 329.307 140.177 329.823 140.652C330.361 141.127 331.125 141.365 332.117 141.365C332.717 141.365 333.264 141.262 333.76 141.055C334.277 140.828 334.701 140.456 335.031 139.939C335.383 139.402 335.579 138.678 335.62 137.769L336.674 138.978C336.571 140.156 336.282 141.148 335.806 141.954C335.352 142.76 334.711 143.38 333.884 143.814C333.078 144.227 332.086 144.434 330.908 144.434ZM351.21 144.589C349.743 144.589 348.472 144.341 347.397 143.845C346.343 143.349 345.454 142.688 344.731 141.861C344.028 141.034 343.501 140.104 343.15 139.071C342.799 138.038 342.623 136.984 342.623 135.909V135.32C342.623 134.183 342.799 133.098 343.15 132.065C343.522 131.011 344.07 130.081 344.793 129.275C345.516 128.448 346.405 127.797 347.459 127.322C348.534 126.826 349.774 126.578 351.179 126.578C352.646 126.578 353.959 126.867 355.116 127.446C356.273 128.004 357.193 128.789 357.875 129.802C358.578 130.815 358.97 131.993 359.053 133.336H354.868C354.765 132.468 354.393 131.745 353.752 131.166C353.132 130.587 352.274 130.298 351.179 130.298C350.228 130.298 349.433 130.525 348.792 130.98C348.172 131.435 347.707 132.065 347.397 132.871C347.087 133.656 346.932 134.566 346.932 135.599C346.932 136.591 347.077 137.49 347.366 138.296C347.676 139.102 348.141 139.732 348.761 140.187C349.402 140.642 350.218 140.869 351.21 140.869C351.954 140.869 352.595 140.735 353.132 140.466C353.669 140.197 354.093 139.825 354.403 139.35C354.734 138.875 354.94 138.337 355.023 137.738H359.208C359.125 139.102 358.722 140.301 357.999 141.334C357.296 142.347 356.356 143.142 355.178 143.721C354.021 144.3 352.698 144.589 351.21 144.589ZM369.511 144.589C368.043 144.589 366.772 144.341 365.698 143.845C364.644 143.349 363.755 142.688 363.032 141.861C362.329 141.034 361.802 140.104 361.451 139.071C361.099 138.038 360.924 136.984 360.924 135.909V135.32C360.924 134.183 361.099 133.098 361.451 132.065C361.823 131.011 362.37 130.081 363.094 129.275C363.817 128.448 364.706 127.797 365.76 127.322C366.834 126.826 368.074 126.578 369.48 126.578C370.947 126.578 372.259 126.867 373.417 127.446C374.574 128.004 375.494 128.789 376.176 129.802C376.878 130.815 377.271 131.993 377.354 133.336H373.169C373.065 132.468 372.693 131.745 372.053 131.166C371.433 130.587 370.575 130.298 369.48 130.298C368.529 130.298 367.733 130.525 367.093 130.98C366.473 131.435 366.008 132.065 365.698 132.871C365.388 133.656 365.233 134.566 365.233 135.599C365.233 136.591 365.377 137.49 365.667 138.296C365.977 139.102 366.442 139.732 367.062 140.187C367.702 140.642 368.519 140.869 369.511 140.869C370.255 140.869 370.895 140.735 371.433 140.466C371.97 140.197 372.394 139.825 372.704 139.35C373.034 138.875 373.241 138.337 373.324 137.738H377.509C377.426 139.102 377.023 140.301 376.3 141.334C375.597 142.347 374.657 143.142 373.479 143.721C372.321 144.3 370.999 144.589 369.511 144.589ZM388.432 144.589C386.944 144.589 385.631 144.351 384.495 143.876C383.358 143.401 382.397 142.76 381.612 141.954C380.826 141.127 380.227 140.197 379.814 139.164C379.421 138.131 379.225 137.056 379.225 135.94V135.289C379.225 134.132 379.431 133.036 379.845 132.003C380.279 130.949 380.888 130.019 381.674 129.213C382.48 128.386 383.451 127.746 384.588 127.291C385.724 126.816 387.006 126.578 388.432 126.578C389.858 126.578 391.139 126.816 392.276 127.291C393.412 127.746 394.373 128.386 395.159 129.213C395.965 130.019 396.574 130.949 396.988 132.003C397.401 133.036 397.608 134.132 397.608 135.289V135.94C397.608 137.056 397.401 138.131 396.988 139.164C396.595 140.197 396.006 141.127 395.221 141.954C394.435 142.76 393.474 143.401 392.338 143.876C391.201 144.351 389.899 144.589 388.432 144.589ZM388.432 140.9C389.486 140.9 390.374 140.673 391.098 140.218C391.821 139.743 392.369 139.112 392.741 138.327C393.113 137.521 393.299 136.612 393.299 135.599C393.299 134.566 393.102 133.656 392.71 132.871C392.338 132.065 391.78 131.435 391.036 130.98C390.312 130.505 389.444 130.267 388.432 130.267C387.419 130.267 386.541 130.505 385.797 130.98C385.073 131.435 384.515 132.065 384.123 132.871C383.73 133.656 383.534 134.566 383.534 135.599C383.534 136.612 383.72 137.521 384.092 138.327C384.484 139.112 385.042 139.743 385.766 140.218C386.489 140.673 387.378 140.9 388.432 140.9ZM406.496 144.527C404.553 144.527 403.044 143.886 401.97 142.605C400.916 141.324 400.389 139.422 400.389 136.901V127.136H404.698V137.273C404.698 138.306 404.987 139.133 405.566 139.753C406.144 140.352 406.93 140.652 407.922 140.652C408.914 140.652 409.72 140.332 410.34 139.691C410.98 139.05 411.301 138.182 411.301 137.087V127.136H415.61V144H412.2V136.839H412.541C412.541 138.534 412.324 139.949 411.89 141.086C411.456 142.223 410.805 143.08 409.937 143.659C409.069 144.238 407.984 144.527 406.682 144.527H406.496ZM419.94 144V127.167H423.35V134.39H423.04C423.04 132.675 423.267 131.249 423.722 130.112C424.176 128.955 424.848 128.087 425.737 127.508C426.646 126.929 427.772 126.64 429.116 126.64H429.302C431.306 126.64 432.825 127.291 433.859 128.593C434.892 129.874 435.409 131.796 435.409 134.359V144H431.1V133.987C431.1 132.954 430.8 132.117 430.201 131.476C429.622 130.835 428.816 130.515 427.783 130.515C426.729 130.515 425.871 130.846 425.21 131.507C424.569 132.148 424.249 133.016 424.249 134.111V144H419.94ZM446.737 144.217C445.187 144.217 443.906 144.021 442.893 143.628C441.901 143.215 441.157 142.533 440.661 141.582C440.165 140.611 439.917 139.309 439.917 137.676L439.948 122.424H443.978L443.947 137.955C443.947 138.782 444.164 139.422 444.598 139.877C445.053 140.311 445.693 140.528 446.52 140.528H449.155V144.217H446.737ZM437.251 130.329V127.167H449.155V130.329H437.251Z" fill="#333333"/>
<path d="M186.751 181.456L183.039 174.32H184.671L187.807 180.432L187.199 180.256H189.087L188.447 180.432L191.391 174.32H192.927L189.439 181.456H186.751ZM187.327 186V181.136H188.863V186H187.327ZM197.418 186.288C196.672 186.288 196.016 186.16 195.45 185.904C194.885 185.648 194.405 185.312 194.01 184.896C193.626 184.469 193.333 183.995 193.13 183.472C192.938 182.949 192.842 182.416 192.842 181.872V181.584C192.842 181.04 192.944 180.507 193.146 179.984C193.349 179.451 193.648 178.976 194.042 178.56C194.437 178.133 194.917 177.797 195.482 177.552C196.048 177.296 196.693 177.168 197.418 177.168C198.144 177.168 198.789 177.296 199.354 177.552C199.92 177.797 200.4 178.133 200.794 178.56C201.189 178.976 201.488 179.451 201.69 179.984C201.893 180.507 201.994 181.04 201.994 181.584V181.872C201.994 182.416 201.893 182.949 201.69 183.472C201.498 183.995 201.205 184.469 200.81 184.896C200.426 185.312 199.952 185.648 199.386 185.904C198.821 186.16 198.165 186.288 197.418 186.288ZM197.418 184.912C198.058 184.912 198.602 184.773 199.05 184.496C199.509 184.208 199.856 183.824 200.09 183.344C200.336 182.864 200.458 182.325 200.458 181.728C200.458 181.12 200.336 180.576 200.09 180.096C199.845 179.616 199.493 179.237 199.034 178.96C198.586 178.683 198.048 178.544 197.418 178.544C196.8 178.544 196.261 178.683 195.802 178.96C195.344 179.237 194.992 179.616 194.746 180.096C194.501 180.576 194.378 181.12 194.378 181.728C194.378 182.325 194.496 182.864 194.73 183.344C194.976 183.824 195.322 184.208 195.77 184.496C196.229 184.773 196.778 184.912 197.418 184.912ZM206.935 186.256C205.921 186.256 205.143 185.925 204.599 185.264C204.055 184.603 203.783 183.648 203.783 182.4V177.44H205.319V182.704C205.319 183.376 205.5 183.904 205.863 184.288C206.225 184.661 206.716 184.848 207.335 184.848C207.975 184.848 208.497 184.645 208.903 184.24C209.308 183.824 209.511 183.259 209.511 182.544V177.44H211.047V186H209.831V182.336H210.023C210.023 183.179 209.911 183.893 209.687 184.48C209.463 185.056 209.127 185.499 208.679 185.808C208.241 186.107 207.681 186.256 206.999 186.256H206.935ZM212.998 179.184V178.352H213.142C213.483 178.352 213.755 178.293 213.958 178.176C214.16 178.059 214.304 177.877 214.39 177.632C214.486 177.376 214.534 177.056 214.534 176.672V175.472L214.918 176.192C214.843 176.235 214.742 176.267 214.614 176.288C214.496 176.309 214.379 176.32 214.262 176.32C213.963 176.32 213.712 176.229 213.51 176.048C213.318 175.856 213.222 175.595 213.222 175.264C213.222 174.955 213.312 174.699 213.494 174.496C213.686 174.293 213.942 174.192 214.262 174.192C214.464 174.192 214.656 174.24 214.838 174.336C215.019 174.432 215.168 174.603 215.286 174.848C215.403 175.093 215.462 175.445 215.462 175.904V176.24C215.462 177.019 215.366 177.621 215.174 178.048C214.982 178.475 214.71 178.773 214.358 178.944C214.006 179.104 213.59 179.184 213.11 179.184H212.998ZM217.571 186V174.32H219.107V186H217.571ZM216.387 175.536V174.32H219.107V175.536H216.387ZM221.83 186V174.32H223.366V186H221.83ZM220.646 175.536V174.32H223.366V175.536H220.646ZM229.312 186V177.456H230.528V181.12H230.336C230.336 180.277 230.448 179.568 230.672 178.992C230.907 178.405 231.259 177.963 231.728 177.664C232.198 177.355 232.79 177.2 233.504 177.2H233.568C234.646 177.2 235.44 177.536 235.952 178.208C236.475 178.88 236.736 179.851 236.736 181.12V186H235.2V180.8C235.2 180.139 235.014 179.611 234.64 179.216C234.267 178.811 233.755 178.608 233.104 178.608C232.432 178.608 231.888 178.816 231.472 179.232C231.056 179.648 230.848 180.203 230.848 180.896V186H229.312ZM242.859 186.288C242.112 186.288 241.467 186.16 240.923 185.904C240.379 185.648 239.936 185.312 239.595 184.896C239.253 184.469 238.997 183.995 238.827 183.472C238.667 182.949 238.587 182.416 238.587 181.872V181.584C238.587 181.029 238.667 180.491 238.827 179.968C238.997 179.445 239.253 178.976 239.595 178.56C239.936 178.133 240.368 177.797 240.891 177.552C241.424 177.296 242.048 177.168 242.763 177.168C243.691 177.168 244.453 177.371 245.051 177.776C245.659 178.171 246.107 178.683 246.395 179.312C246.693 179.941 246.843 180.613 246.843 181.328V182.016H239.259V180.864H245.723L245.371 181.488C245.371 180.88 245.275 180.357 245.083 179.92C244.891 179.472 244.603 179.125 244.219 178.88C243.835 178.635 243.349 178.512 242.763 178.512C242.155 178.512 241.648 178.651 241.243 178.928C240.848 179.205 240.549 179.584 240.347 180.064C240.155 180.544 240.059 181.099 240.059 181.728C240.059 182.336 240.155 182.885 240.347 183.376C240.549 183.856 240.859 184.24 241.275 184.528C241.691 184.805 242.219 184.944 242.859 184.944C243.531 184.944 244.075 184.795 244.491 184.496C244.917 184.197 245.173 183.851 245.259 183.456H246.699C246.581 184.043 246.347 184.549 245.995 184.976C245.643 185.403 245.2 185.728 244.667 185.952C244.133 186.176 243.531 186.288 242.859 186.288ZM252.336 186.288C251.589 186.288 250.944 186.16 250.4 185.904C249.856 185.648 249.413 185.312 249.072 184.896C248.73 184.469 248.474 183.995 248.304 183.472C248.144 182.949 248.064 182.416 248.064 181.872V181.584C248.064 181.029 248.144 180.491 248.304 179.968C248.474 179.445 248.73 178.976 249.072 178.56C249.413 178.133 249.845 177.797 250.368 177.552C250.901 177.296 251.525 177.168 252.24 177.168C253.168 177.168 253.93 177.371 254.528 177.776C255.136 178.171 255.584 178.683 255.872 179.312C256.17 179.941 256.32 180.613 256.32 181.328V182.016H248.736V180.864H255.2L254.848 181.488C254.848 180.88 254.752 180.357 254.56 179.92C254.368 179.472 254.08 179.125 253.696 178.88C253.312 178.635 252.826 178.512 252.24 178.512C251.632 178.512 251.125 178.651 250.72 178.928C250.325 179.205 250.026 179.584 249.824 180.064C249.632 180.544 249.536 181.099 249.536 181.728C249.536 182.336 249.632 182.885 249.824 183.376C250.026 183.856 250.336 184.24 250.752 184.528C251.168 184.805 251.696 184.944 252.336 184.944C253.008 184.944 253.552 184.795 253.968 184.496C254.394 184.197 254.65 183.851 254.736 183.456H256.176C256.058 184.043 255.824 184.549 255.472 184.976C255.12 185.403 254.677 185.728 254.144 185.952C253.61 186.176 253.008 186.288 252.336 186.288ZM261.748 186.288C261.14 186.288 260.58 186.176 260.068 185.952C259.556 185.728 259.108 185.413 258.724 185.008C258.351 184.603 258.058 184.133 257.844 183.6C257.642 183.067 257.54 182.491 257.54 181.872V181.584C257.54 180.976 257.642 180.405 257.844 179.872C258.047 179.339 258.33 178.869 258.692 178.464C259.066 178.059 259.503 177.744 260.004 177.52C260.516 177.285 261.082 177.168 261.7 177.168C262.351 177.168 262.943 177.307 263.476 177.584C264.01 177.851 264.447 178.272 264.788 178.848C265.13 179.424 265.322 180.171 265.364 181.088L264.724 180.064V174.32H266.26V186H265.044V182.208H265.492C265.45 183.179 265.247 183.968 264.884 184.576C264.522 185.173 264.063 185.611 263.508 185.888C262.964 186.155 262.378 186.288 261.748 186.288ZM261.956 184.944C262.479 184.944 262.954 184.827 263.38 184.592C263.807 184.357 264.148 184.021 264.404 183.584C264.66 183.136 264.788 182.613 264.788 182.016V181.28C264.788 180.693 264.655 180.197 264.388 179.792C264.132 179.376 263.786 179.061 263.348 178.848C262.922 178.624 262.452 178.512 261.94 178.512C261.375 178.512 260.874 178.645 260.436 178.912C260.01 179.179 259.674 179.552 259.428 180.032C259.194 180.512 259.076 181.077 259.076 181.728C259.076 182.379 259.199 182.949 259.444 183.44C259.69 183.92 260.031 184.293 260.468 184.56C260.906 184.816 261.402 184.944 261.956 184.944ZM275.54 186.096C274.9 186.096 274.346 186.005 273.876 185.824C273.418 185.643 273.06 185.333 272.804 184.896C272.559 184.448 272.436 183.845 272.436 183.088V174.864H273.908V183.28C273.908 183.739 274.031 184.096 274.276 184.352C274.532 184.597 274.89 184.72 275.348 184.72H276.852V186.096H275.54ZM270.964 178.608V177.456H276.852V178.608H270.964ZM282.578 186.288C281.832 186.288 281.176 186.16 280.61 185.904C280.045 185.648 279.565 185.312 279.17 184.896C278.786 184.469 278.493 183.995 278.29 183.472C278.098 182.949 278.002 182.416 278.002 181.872V181.584C278.002 181.04 278.104 180.507 278.306 179.984C278.509 179.451 278.808 178.976 279.202 178.56C279.597 178.133 280.077 177.797 280.642 177.552C281.208 177.296 281.853 177.168 282.578 177.168C283.304 177.168 283.949 177.296 284.514 177.552C285.08 177.797 285.56 178.133 285.954 178.56C286.349 178.976 286.648 179.451 286.85 179.984C287.053 180.507 287.154 181.04 287.154 181.584V181.872C287.154 182.416 287.053 182.949 286.85 183.472C286.658 183.995 286.365 184.469 285.97 184.896C285.586 185.312 285.112 185.648 284.546 185.904C283.981 186.16 283.325 186.288 282.578 186.288ZM282.578 184.912C283.218 184.912 283.762 184.773 284.21 184.496C284.669 184.208 285.016 183.824 285.25 183.344C285.496 182.864 285.618 182.325 285.618 181.728C285.618 181.12 285.496 180.576 285.25 180.096C285.005 179.616 284.653 179.237 284.194 178.96C283.746 178.683 283.208 178.544 282.578 178.544C281.96 178.544 281.421 178.683 280.962 178.96C280.504 179.237 280.152 179.616 279.906 180.096C279.661 180.576 279.538 181.12 279.538 181.728C279.538 182.325 279.656 182.864 279.89 183.344C280.136 183.824 280.482 184.208 280.93 184.496C281.389 184.773 281.938 184.912 282.578 184.912ZM294.279 186L291.367 177.456H292.967L295.815 186H294.279ZM294.663 186V184.784H296.519V186H294.663ZM295.399 186L297.879 177.456H299.383L296.855 186H295.399ZM304.549 186.288C303.802 186.288 303.157 186.16 302.613 185.904C302.069 185.648 301.626 185.312 301.285 184.896C300.943 184.469 300.687 183.995 300.517 183.472C300.357 182.949 300.277 182.416 300.277 181.872V181.584C300.277 181.029 300.357 180.491 300.517 179.968C300.687 179.445 300.943 178.976 301.285 178.56C301.626 178.133 302.058 177.797 302.581 177.552C303.114 177.296 303.738 177.168 304.453 177.168C305.381 177.168 306.143 177.371 306.741 177.776C307.349 178.171 307.797 178.683 308.085 179.312C308.383 179.941 308.533 180.613 308.533 181.328V182.016H300.949V180.864H307.413L307.061 181.488C307.061 180.88 306.965 180.357 306.773 179.92C306.581 179.472 306.293 179.125 305.909 178.88C305.525 178.635 305.039 178.512 304.453 178.512C303.845 178.512 303.338 178.651 302.933 178.928C302.538 179.205 302.239 179.584 302.037 180.064C301.845 180.544 301.749 181.099 301.749 181.728C301.749 182.336 301.845 182.885 302.037 183.376C302.239 183.856 302.549 184.24 302.965 184.528C303.381 184.805 303.909 184.944 304.549 184.944C305.221 184.944 305.765 184.795 306.181 184.496C306.607 184.197 306.863 183.851 306.949 183.456H308.389C308.271 184.043 308.037 184.549 307.685 184.976C307.333 185.403 306.89 185.728 306.357 185.952C305.823 186.176 305.221 186.288 304.549 186.288ZM310.394 186V177.456H311.61V180.976H311.546C311.546 179.728 311.818 178.816 312.362 178.24C312.916 177.653 313.743 177.36 314.842 177.36H315.13V178.736H314.586C313.732 178.736 313.076 178.965 312.618 179.424C312.159 179.872 311.93 180.523 311.93 181.376V186H310.394ZM317.052 186V177.456H318.588V186H317.052ZM315.74 178.672V177.456H318.588V178.672H315.74ZM317.484 176.08C317.143 176.08 316.887 175.989 316.716 175.808C316.556 175.627 316.476 175.397 316.476 175.12C316.476 174.843 316.556 174.613 316.716 174.432C316.887 174.251 317.143 174.16 317.484 174.16C317.825 174.16 318.076 174.251 318.236 174.432C318.407 174.613 318.492 174.843 318.492 175.12C318.492 175.397 318.407 175.627 318.236 175.808C318.076 175.989 317.825 176.08 317.484 176.08ZM321.462 186V177.024C321.462 176.075 321.713 175.376 322.214 174.928C322.715 174.48 323.451 174.256 324.422 174.256H325.478V175.536H324.166C323.771 175.536 323.467 175.648 323.254 175.872C323.041 176.085 322.934 176.384 322.934 176.768V186H321.462ZM320.278 178.704V177.552H325.638V178.704H320.278ZM326.654 189.328V187.952H327.886C328.249 187.952 328.553 187.904 328.798 187.808C329.054 187.723 329.262 187.573 329.422 187.36C329.593 187.147 329.732 186.864 329.838 186.512L332.526 177.456H334.03L331.182 186.912C331.012 187.477 330.772 187.936 330.462 188.288C330.153 188.651 329.774 188.912 329.326 189.072C328.889 189.243 328.377 189.328 327.79 189.328H326.654ZM329.262 185.808V184.528H331.118V185.808H329.262ZM329.102 185.808L326.046 177.456H327.614L330.542 185.808H329.102ZM342.309 186.096C341.669 186.096 341.114 186.005 340.645 185.824C340.186 185.643 339.829 185.333 339.573 184.896C339.328 184.448 339.205 183.845 339.205 183.088V174.864H340.677V183.28C340.677 183.739 340.8 184.096 341.045 184.352C341.301 184.597 341.658 184.72 342.117 184.72H343.621V186.096H342.309ZM337.733 178.608V177.456H343.621V178.608H337.733ZM345.474 186V174.32H347.01V181.296H346.626C346.626 180.453 346.732 179.728 346.946 179.12C347.17 178.501 347.511 178.027 347.97 177.696C348.428 177.365 349.015 177.2 349.73 177.2H349.794C350.818 177.2 351.591 177.541 352.114 178.224C352.636 178.896 352.898 179.861 352.898 181.12V186H351.362V180.8C351.362 180.107 351.164 179.568 350.77 179.184C350.386 178.8 349.884 178.608 349.266 178.608C348.583 178.608 348.034 178.837 347.618 179.296C347.212 179.744 347.01 180.336 347.01 181.072V186H345.474ZM355.804 186V177.456H357.34V186H355.804ZM354.492 178.672V177.456H357.34V178.672H354.492ZM356.236 176.08C355.895 176.08 355.639 175.989 355.468 175.808C355.308 175.627 355.228 175.397 355.228 175.12C355.228 174.843 355.308 174.613 355.468 174.432C355.639 174.251 355.895 174.16 356.236 174.16C356.577 174.16 356.828 174.251 356.988 174.432C357.159 174.613 357.244 174.843 357.244 175.12C357.244 175.397 357.159 175.627 356.988 175.808C356.828 175.989 356.577 176.08 356.236 176.08ZM362.79 186.256C361.67 186.256 360.8 186.016 360.182 185.536C359.574 185.056 359.259 184.4 359.238 183.568H360.678C360.699 183.899 360.864 184.213 361.174 184.512C361.494 184.8 362.032 184.944 362.79 184.944C363.472 184.944 363.995 184.811 364.358 184.544C364.72 184.267 364.902 183.931 364.902 183.536C364.902 183.184 364.768 182.912 364.502 182.72C364.235 182.517 363.803 182.384 363.206 182.32L362.278 182.224C361.467 182.139 360.806 181.899 360.294 181.504C359.782 181.099 359.526 180.533 359.526 179.808C359.526 179.264 359.664 178.8 359.942 178.416C360.219 178.021 360.603 177.723 361.094 177.52C361.584 177.307 362.15 177.2 362.79 177.2C363.75 177.2 364.528 177.413 365.126 177.84C365.723 178.267 366.032 178.901 366.054 179.744H364.614C364.603 179.403 364.443 179.115 364.134 178.88C363.835 178.635 363.387 178.512 362.79 178.512C362.192 178.512 361.739 178.635 361.43 178.88C361.12 179.125 360.966 179.435 360.966 179.808C360.966 180.128 361.072 180.384 361.286 180.576C361.51 180.768 361.872 180.891 362.374 180.944L363.302 181.04C364.219 181.136 364.955 181.392 365.51 181.808C366.064 182.213 366.342 182.789 366.342 183.536C366.342 184.069 366.187 184.544 365.878 184.96C365.579 185.365 365.163 185.685 364.63 185.92C364.096 186.144 363.483 186.256 362.79 186.256ZM375.201 186.288C374.454 186.288 373.809 186.16 373.265 185.904C372.721 185.648 372.278 185.312 371.937 184.896C371.595 184.469 371.339 183.995 371.169 183.472C371.009 182.949 370.929 182.416 370.929 181.872V181.584C370.929 181.029 371.009 180.491 371.169 179.968C371.339 179.445 371.595 178.976 371.937 178.56C372.278 178.133 372.71 177.797 373.233 177.552C373.766 177.296 374.39 177.168 375.105 177.168C376.033 177.168 376.795 177.371 377.393 177.776C378.001 178.171 378.449 178.683 378.737 179.312C379.035 179.941 379.185 180.613 379.185 181.328V182.016H371.601V180.864H378.065L377.713 181.488C377.713 180.88 377.617 180.357 377.425 179.92C377.233 179.472 376.945 179.125 376.561 178.88C376.177 178.635 375.691 178.512 375.105 178.512C374.497 178.512 373.99 178.651 373.585 178.928C373.19 179.205 372.891 179.584 372.689 180.064C372.497 180.544 372.401 181.099 372.401 181.728C372.401 182.336 372.497 182.885 372.689 183.376C372.891 183.856 373.201 184.24 373.617 184.528C374.033 184.805 374.561 184.944 375.201 184.944C375.873 184.944 376.417 184.795 376.833 184.496C377.259 184.197 377.515 183.851 377.601 183.456H379.041C378.923 184.043 378.689 184.549 378.337 184.976C377.985 185.403 377.542 185.728 377.009 185.952C376.475 186.176 375.873 186.288 375.201 186.288ZM381.045 186V177.456H382.261V181.12H382.069C382.069 180.288 382.176 179.584 382.389 179.008C382.613 178.421 382.944 177.973 383.381 177.664C383.819 177.355 384.373 177.2 385.045 177.2H385.109C385.781 177.2 386.336 177.355 386.773 177.664C387.221 177.973 387.552 178.421 387.765 179.008C387.979 179.584 388.085 180.288 388.085 181.12H387.637C387.637 180.288 387.749 179.584 387.973 179.008C388.197 178.421 388.528 177.973 388.965 177.664C389.413 177.355 389.973 177.2 390.645 177.2H390.709C391.381 177.2 391.941 177.355 392.389 177.664C392.837 177.973 393.168 178.421 393.381 179.008C393.605 179.584 393.717 180.288 393.717 181.12V186H392.181V180.784C392.181 180.091 392.011 179.557 391.669 179.184C391.328 178.8 390.853 178.608 390.245 178.608C389.616 178.608 389.109 178.811 388.725 179.216C388.341 179.611 388.149 180.165 388.149 180.88V186H386.613V180.784C386.613 180.091 386.443 179.557 386.101 179.184C385.76 178.8 385.285 178.608 384.677 178.608C384.048 178.608 383.541 178.811 383.157 179.216C382.773 179.611 382.581 180.165 382.581 180.88V186H381.045ZM401.378 186V183.44H401.122V180.48C401.122 179.893 400.967 179.451 400.658 179.152C400.359 178.853 399.916 178.704 399.33 178.704C398.999 178.704 398.658 178.709 398.306 178.72C397.954 178.731 397.618 178.741 397.298 178.752C396.978 178.763 396.7 178.779 396.466 178.8V177.456C396.7 177.435 396.946 177.419 397.202 177.408C397.468 177.387 397.74 177.376 398.018 177.376C398.295 177.365 398.562 177.36 398.818 177.36C399.692 177.36 400.407 177.467 400.962 177.68C401.516 177.883 401.927 178.219 402.194 178.688C402.46 179.157 402.594 179.792 402.594 180.592V186H401.378ZM398.578 186.224C397.938 186.224 397.383 186.117 396.914 185.904C396.455 185.68 396.098 185.36 395.842 184.944C395.596 184.528 395.474 184.027 395.474 183.44C395.474 182.832 395.607 182.325 395.874 181.92C396.151 181.515 396.551 181.211 397.074 181.008C397.596 180.795 398.226 180.688 398.962 180.688H401.282V181.84H398.898C398.279 181.84 397.804 181.989 397.474 182.288C397.143 182.587 396.978 182.971 396.978 183.44C396.978 183.909 397.143 184.288 397.474 184.576C397.804 184.864 398.279 185.008 398.898 185.008C399.26 185.008 399.607 184.944 399.938 184.816C400.268 184.677 400.54 184.453 400.754 184.144C400.978 183.824 401.1 183.387 401.122 182.832L401.538 183.44C401.484 184.048 401.335 184.56 401.09 184.976C400.855 185.381 400.524 185.691 400.098 185.904C399.682 186.117 399.175 186.224 398.578 186.224ZM405.509 186V177.456H407.045V186H405.509ZM404.197 178.672V177.456H407.045V178.672H404.197ZM405.941 176.08C405.6 176.08 405.344 175.989 405.173 175.808C405.013 175.627 404.933 175.397 404.933 175.12C404.933 174.843 405.013 174.613 405.173 174.432C405.344 174.251 405.6 174.16 405.941 174.16C406.282 174.16 406.533 174.251 406.693 174.432C406.864 174.613 406.949 174.843 406.949 175.12C406.949 175.397 406.864 175.627 406.693 175.808C406.533 175.989 406.282 176.08 405.941 176.08ZM409.791 186V174.32H411.327V186H409.791ZM408.607 175.536V174.32H411.327V175.536H408.607ZM417.498 186V177.024C417.498 176.075 417.748 175.376 418.25 174.928C418.751 174.48 419.487 174.256 420.458 174.256H421.514V175.536H420.202C419.807 175.536 419.503 175.648 419.29 175.872C419.076 176.085 418.97 176.384 418.97 176.768V186H417.498ZM416.314 178.704V177.552H421.674V178.704H416.314ZM426.89 186.288C426.143 186.288 425.487 186.16 424.922 185.904C424.356 185.648 423.876 185.312 423.482 184.896C423.098 184.469 422.804 183.995 422.602 183.472C422.41 182.949 422.314 182.416 422.314 181.872V181.584C422.314 181.04 422.415 180.507 422.618 179.984C422.82 179.451 423.119 178.976 423.514 178.56C423.908 178.133 424.388 177.797 424.954 177.552C425.519 177.296 426.164 177.168 426.89 177.168C427.615 177.168 428.26 177.296 428.826 177.552C429.391 177.797 429.871 178.133 430.266 178.56C430.66 178.976 430.959 179.451 431.162 179.984C431.364 180.507 431.466 181.04 431.466 181.584V181.872C431.466 182.416 431.364 182.949 431.162 183.472C430.97 183.995 430.676 184.469 430.282 184.896C429.898 185.312 429.423 185.648 428.858 185.904C428.292 186.16 427.636 186.288 426.89 186.288ZM426.89 184.912C427.53 184.912 428.074 184.773 428.522 184.496C428.98 184.208 429.327 183.824 429.562 183.344C429.807 182.864 429.93 182.325 429.93 181.728C429.93 181.12 429.807 180.576 429.562 180.096C429.316 179.616 428.964 179.237 428.506 178.96C428.058 178.683 427.519 178.544 426.89 178.544C426.271 178.544 425.732 178.683 425.274 178.96C424.815 179.237 424.463 179.616 424.218 180.096C423.972 180.576 423.85 181.12 423.85 181.728C423.85 182.325 423.967 182.864 424.202 183.344C424.447 183.824 424.794 184.208 425.242 184.496C425.7 184.773 426.25 184.912 426.89 184.912ZM433.446 186V177.456H434.662V180.976H434.598C434.598 179.728 434.87 178.816 435.414 178.24C435.969 177.653 436.795 177.36 437.894 177.36H438.182V178.736H437.638C436.785 178.736 436.129 178.965 435.67 179.424C435.211 179.872 434.982 180.523 434.982 181.376V186H433.446ZM211.544 212V203.024C211.544 202.075 211.794 201.376 212.296 200.928C212.797 200.48 213.533 200.256 214.504 200.256H215.56V201.536H214.248C213.853 201.536 213.549 201.648 213.336 201.872C213.122 202.085 213.016 202.384 213.016 202.768V212H211.544ZM210.36 204.704V203.552H215.72V204.704H210.36ZM220.022 212.256C219.009 212.256 218.23 211.925 217.686 211.264C217.142 210.603 216.87 209.648 216.87 208.4V203.44H218.406V208.704C218.406 209.376 218.588 209.904 218.95 210.288C219.313 210.661 219.804 210.848 220.422 210.848C221.062 210.848 221.585 210.645 221.99 210.24C222.396 209.824 222.598 209.259 222.598 208.544V203.44H224.134V212H222.918V208.336H223.11C223.11 209.179 222.998 209.893 222.774 210.48C222.55 211.056 222.214 211.499 221.766 211.808C221.329 212.107 220.769 212.256 220.086 212.256H220.022ZM230.117 212.096C229.477 212.096 228.923 212.005 228.453 211.824C227.995 211.643 227.637 211.333 227.381 210.896C227.136 210.448 227.013 209.845 227.013 209.088V200.864H228.485V209.28C228.485 209.739 228.608 210.096 228.853 210.352C229.109 210.597 229.467 210.72 229.925 210.72H231.429V212.096H230.117ZM225.541 204.608V203.456H231.429V204.608H225.541ZM236.242 212.256C235.228 212.256 234.45 211.925 233.906 211.264C233.362 210.603 233.09 209.648 233.09 208.4V203.44H234.626V208.704C234.626 209.376 234.807 209.904 235.17 210.288C235.532 210.661 236.023 210.848 236.642 210.848C237.282 210.848 237.804 210.645 238.21 210.24C238.615 209.824 238.818 209.259 238.818 208.544V203.44H240.354V212H239.138V208.336H239.33C239.33 209.179 239.218 209.893 238.994 210.48C238.77 211.056 238.434 211.499 237.986 211.808C237.548 212.107 236.988 212.256 236.306 212.256H236.242ZM243.009 212V203.456H244.225V206.976H244.161C244.161 205.728 244.433 204.816 244.977 204.24C245.531 203.653 246.358 203.36 247.457 203.36H247.745V204.736H247.201C246.347 204.736 245.691 204.965 245.233 205.424C244.774 205.872 244.545 206.523 244.545 207.376V212H243.009ZM252.789 212.288C252.043 212.288 251.397 212.16 250.853 211.904C250.309 211.648 249.867 211.312 249.525 210.896C249.184 210.469 248.928 209.995 248.757 209.472C248.597 208.949 248.517 208.416 248.517 207.872V207.584C248.517 207.029 248.597 206.491 248.757 205.968C248.928 205.445 249.184 204.976 249.525 204.56C249.867 204.133 250.299 203.797 250.821 203.552C251.355 203.296 251.979 203.168 252.693 203.168C253.621 203.168 254.384 203.371 254.981 203.776C255.589 204.171 256.037 204.683 256.325 205.312C256.624 205.941 256.773 206.613 256.773 207.328V208.016H249.189V206.864H255.653L255.301 207.488C255.301 206.88 255.205 206.357 255.013 205.92C254.821 205.472 254.533 205.125 254.149 204.88C253.765 204.635 253.28 204.512 252.693 204.512C252.085 204.512 251.579 204.651 251.173 204.928C250.779 205.205 250.48 205.584 250.277 206.064C250.085 206.544 249.989 207.099 249.989 207.728C249.989 208.336 250.085 208.885 250.277 209.376C250.48 209.856 250.789 210.24 251.205 210.528C251.621 210.805 252.149 210.944 252.789 210.944C253.461 210.944 254.005 210.795 254.421 210.496C254.848 210.197 255.104 209.851 255.189 209.456H256.629C256.512 210.043 256.277 210.549 255.925 210.976C255.573 211.403 255.131 211.728 254.597 211.952C254.064 212.176 253.461 212.288 252.789 212.288ZM262.371 212V203.456H263.907V212H262.371ZM261.059 204.672V203.456H263.907V204.672H261.059ZM262.803 202.08C262.461 202.08 262.205 201.989 262.035 201.808C261.875 201.627 261.795 201.397 261.795 201.12C261.795 200.843 261.875 200.613 262.035 200.432C262.205 200.251 262.461 200.16 262.803 200.16C263.144 200.16 263.395 200.251 263.555 200.432C263.725 200.613 263.811 200.843 263.811 201.12C263.811 201.397 263.725 201.627 263.555 201.808C263.395 201.989 263.144 202.08 262.803 202.08ZM266.557 212V203.456H267.773V207.12H267.581C267.581 206.288 267.687 205.584 267.901 205.008C268.125 204.421 268.455 203.973 268.893 203.664C269.33 203.355 269.885 203.2 270.557 203.2H270.621C271.293 203.2 271.847 203.355 272.285 203.664C272.733 203.973 273.063 204.421 273.277 205.008C273.49 205.584 273.597 206.288 273.597 207.12H273.149C273.149 206.288 273.261 205.584 273.485 205.008C273.709 204.421 274.039 203.973 274.477 203.664C274.925 203.355 275.485 203.2 276.157 203.2H276.221C276.893 203.2 277.453 203.355 277.901 203.664C278.349 203.973 278.679 204.421 278.893 205.008C279.117 205.584 279.229 206.288 279.229 207.12V212H277.693V206.784C277.693 206.091 277.522 205.557 277.181 205.184C276.839 204.8 276.365 204.608 275.757 204.608C275.127 204.608 274.621 204.811 274.237 205.216C273.853 205.611 273.661 206.165 273.661 206.88V212H272.125V206.784C272.125 206.091 271.954 205.557 271.613 205.184C271.271 204.8 270.797 204.608 270.189 204.608C269.559 204.608 269.053 204.811 268.669 205.216C268.285 205.611 268.093 206.165 268.093 206.88V212H266.557ZM281.721 215.2V203.456H282.937V207.152L282.649 207.12C282.702 206.203 282.894 205.456 283.225 204.88C283.566 204.293 284.009 203.861 284.553 203.584C285.097 203.307 285.689 203.168 286.329 203.168C286.948 203.168 287.508 203.285 288.009 203.52C288.521 203.755 288.958 204.075 289.321 204.48C289.684 204.885 289.961 205.355 290.153 205.888C290.345 206.421 290.441 206.987 290.441 207.584V207.872C290.441 208.469 290.34 209.035 290.137 209.568C289.934 210.101 289.646 210.571 289.273 210.976C288.91 211.381 288.473 211.701 287.961 211.936C287.46 212.171 286.905 212.288 286.297 212.288C285.689 212.288 285.108 212.155 284.553 211.888C283.998 211.621 283.54 211.189 283.177 210.592C282.814 209.995 282.606 209.211 282.553 208.24L283.257 209.52V215.2H281.721ZM286.057 210.944C286.633 210.944 287.134 210.811 287.561 210.544C287.988 210.267 288.318 209.888 288.553 209.408C288.788 208.917 288.905 208.357 288.905 207.728C288.905 207.088 288.788 206.528 288.553 206.048C288.318 205.568 287.988 205.195 287.561 204.928C287.134 204.651 286.633 204.512 286.057 204.512C285.545 204.512 285.07 204.629 284.633 204.864C284.196 205.088 283.844 205.419 283.577 205.856C283.321 206.283 283.193 206.8 283.193 207.408V208.144C283.193 208.731 283.326 209.232 283.593 209.648C283.86 210.064 284.212 210.384 284.649 210.608C285.086 210.832 285.556 210.944 286.057 210.944ZM296.368 212.288C295.622 212.288 294.966 212.16 294.4 211.904C293.835 211.648 293.355 211.312 292.96 210.896C292.576 210.469 292.283 209.995 292.08 209.472C291.888 208.949 291.792 208.416 291.792 207.872V207.584C291.792 207.04 291.894 206.507 292.096 205.984C292.299 205.451 292.598 204.976 292.992 204.56C293.387 204.133 293.867 203.797 294.432 203.552C294.998 203.296 295.643 203.168 296.368 203.168C297.094 203.168 297.739 203.296 298.304 203.552C298.87 203.797 299.35 204.133 299.744 204.56C300.139 204.976 300.438 205.451 300.64 205.984C300.843 206.507 300.944 207.04 300.944 207.584V207.872C300.944 208.416 300.843 208.949 300.64 209.472C300.448 209.995 300.155 210.469 299.76 210.896C299.376 211.312 298.902 211.648 298.336 211.904C297.771 212.16 297.115 212.288 296.368 212.288ZM296.368 210.912C297.008 210.912 297.552 210.773 298 210.496C298.459 210.208 298.806 209.824 299.04 209.344C299.286 208.864 299.408 208.325 299.408 207.728C299.408 207.12 299.286 206.576 299.04 206.096C298.795 205.616 298.443 205.237 297.984 204.96C297.536 204.683 296.998 204.544 296.368 204.544C295.75 204.544 295.211 204.683 294.752 204.96C294.294 205.237 293.942 205.616 293.696 206.096C293.451 206.576 293.328 207.12 293.328 207.728C293.328 208.325 293.446 208.864 293.68 209.344C293.926 209.824 294.272 210.208 294.72 210.496C295.179 210.773 295.728 210.912 296.368 210.912ZM302.925 212V203.456H304.141V206.976H304.077C304.077 205.728 304.349 204.816 304.893 204.24C305.447 203.653 306.274 203.36 307.373 203.36H307.661V204.736H307.117C306.263 204.736 305.607 204.965 305.149 205.424C304.69 205.872 304.461 206.523 304.461 207.376V212H302.925ZM312.652 212.096C312.012 212.096 311.457 212.005 310.988 211.824C310.529 211.643 310.172 211.333 309.916 210.896C309.67 210.448 309.548 209.845 309.548 209.088V200.864H311.02V209.28C311.02 209.739 311.142 210.096 311.388 210.352C311.644 210.597 312.001 210.72 312.46 210.72H313.964V212.096H312.652ZM308.076 204.608V203.456H313.964V204.608H308.076ZM320.953 212V209.44H320.697V206.48C320.697 205.893 320.542 205.451 320.233 205.152C319.934 204.853 319.491 204.704 318.905 204.704C318.574 204.704 318.233 204.709 317.881 204.72C317.529 204.731 317.193 204.741 316.873 204.752C316.553 204.763 316.275 204.779 316.041 204.8V203.456C316.275 203.435 316.521 203.419 316.777 203.408C317.043 203.387 317.315 203.376 317.593 203.376C317.87 203.365 318.137 203.36 318.393 203.36C319.267 203.36 319.982 203.467 320.537 203.68C321.091 203.883 321.502 204.219 321.769 204.688C322.035 205.157 322.169 205.792 322.169 206.592V212H320.953ZM318.153 212.224C317.513 212.224 316.958 212.117 316.489 211.904C316.03 211.68 315.673 211.36 315.417 210.944C315.171 210.528 315.049 210.027 315.049 209.44C315.049 208.832 315.182 208.325 315.449 207.92C315.726 207.515 316.126 207.211 316.649 207.008C317.171 206.795 317.801 206.688 318.537 206.688H320.857V207.84H318.473C317.854 207.84 317.379 207.989 317.049 208.288C316.718 208.587 316.553 208.971 316.553 209.44C316.553 209.909 316.718 210.288 317.049 210.576C317.379 210.864 317.854 211.008 318.473 211.008C318.835 211.008 319.182 210.944 319.513 210.816C319.843 210.677 320.115 210.453 320.329 210.144C320.553 209.824 320.675 209.387 320.697 208.832L321.113 209.44C321.059 210.048 320.91 210.56 320.665 210.976C320.43 211.381 320.099 211.691 319.673 211.904C319.257 212.117 318.75 212.224 318.153 212.224ZM324.668 212V203.456H325.884V207.12H325.692C325.692 206.277 325.804 205.568 326.028 204.992C326.263 204.405 326.615 203.963 327.084 203.664C327.553 203.355 328.145 203.2 328.86 203.2H328.924C330.001 203.2 330.796 203.536 331.308 204.208C331.831 204.88 332.092 205.851 332.092 207.12V212H330.556V206.8C330.556 206.139 330.369 205.611 329.996 205.216C329.623 204.811 329.111 204.608 328.46 204.608C327.788 204.608 327.244 204.816 326.828 205.232C326.412 205.648 326.204 206.203 326.204 206.896V212H324.668ZM337.91 212.096C337.27 212.096 336.716 212.005 336.246 211.824C335.788 211.643 335.43 211.333 335.174 210.896C334.929 210.448 334.806 209.845 334.806 209.088V200.864H336.278V209.28C336.278 209.739 336.401 210.096 336.646 210.352C336.902 210.597 337.26 210.72 337.718 210.72H339.222V212.096H337.91ZM333.334 204.608V203.456H339.222V204.608H333.334ZM347.355 212.256C346.342 212.256 345.563 211.925 345.019 211.264C344.475 210.603 344.203 209.648 344.203 208.4V203.44H345.739V208.704C345.739 209.376 345.921 209.904 346.283 210.288C346.646 210.661 347.137 210.848 347.755 210.848C348.395 210.848 348.918 210.645 349.323 210.24C349.729 209.824 349.931 209.259 349.931 208.544V203.44H351.467V212H350.251V208.336H350.443C350.443 209.179 350.331 209.893 350.107 210.48C349.883 211.056 349.547 211.499 349.099 211.808C348.662 212.107 348.102 212.256 347.419 212.256H347.355ZM354.122 215.2V203.456H355.338V207.152L355.05 207.12C355.104 206.203 355.296 205.456 355.626 204.88C355.968 204.293 356.41 203.861 356.954 203.584C357.498 203.307 358.09 203.168 358.73 203.168C359.349 203.168 359.909 203.285 360.41 203.52C360.922 203.755 361.36 204.075 361.722 204.48C362.085 204.885 362.362 205.355 362.554 205.888C362.746 206.421 362.842 206.987 362.842 207.584V207.872C362.842 208.469 362.741 209.035 362.538 209.568C362.336 210.101 362.048 210.571 361.674 210.976C361.312 211.381 360.874 211.701 360.362 211.936C359.861 212.171 359.306 212.288 358.698 212.288C358.09 212.288 357.509 212.155 356.954 211.888C356.4 211.621 355.941 211.189 355.578 210.592C355.216 209.995 355.008 209.211 354.954 208.24L355.658 209.52V215.2H354.122ZM358.458 210.944C359.034 210.944 359.536 210.811 359.962 210.544C360.389 210.267 360.72 209.888 360.954 209.408C361.189 208.917 361.306 208.357 361.306 207.728C361.306 207.088 361.189 206.528 360.954 206.048C360.72 205.568 360.389 205.195 359.962 204.928C359.536 204.651 359.034 204.512 358.458 204.512C357.946 204.512 357.472 204.629 357.034 204.864C356.597 205.088 356.245 205.419 355.978 205.856C355.722 206.283 355.594 206.8 355.594 207.408V208.144C355.594 208.731 355.728 209.232 355.994 209.648C356.261 210.064 356.613 210.384 357.05 210.608C357.488 210.832 357.957 210.944 358.458 210.944ZM368.402 212.288C367.794 212.288 367.234 212.176 366.722 211.952C366.21 211.728 365.762 211.413 365.378 211.008C365.004 210.603 364.711 210.133 364.498 209.6C364.295 209.067 364.194 208.491 364.194 207.872V207.584C364.194 206.976 364.295 206.405 364.498 205.872C364.7 205.339 364.983 204.869 365.346 204.464C365.719 204.059 366.156 203.744 366.658 203.52C367.17 203.285 367.735 203.168 368.354 203.168C369.004 203.168 369.596 203.307 370.13 203.584C370.663 203.851 371.1 204.272 371.442 204.848C371.783 205.424 371.975 206.171 372.018 207.088L371.378 206.064V200.32H372.914V212H371.698V208.208H372.146C372.103 209.179 371.9 209.968 371.538 210.576C371.175 211.173 370.716 211.611 370.162 211.888C369.618 212.155 369.031 212.288 368.402 212.288ZM368.61 210.944C369.132 210.944 369.607 210.827 370.034 210.592C370.46 210.357 370.802 210.021 371.058 209.584C371.314 209.136 371.442 208.613 371.442 208.016V207.28C371.442 206.693 371.308 206.197 371.042 205.792C370.786 205.376 370.439 205.061 370.002 204.848C369.575 204.624 369.106 204.512 368.594 204.512C368.028 204.512 367.527 204.645 367.09 204.912C366.663 205.179 366.327 205.552 366.082 206.032C365.847 206.512 365.73 207.077 365.73 207.728C365.73 208.379 365.852 208.949 366.098 209.44C366.343 209.92 366.684 210.293 367.122 210.56C367.559 210.816 368.055 210.944 368.61 210.944ZM380.713 212V209.44H380.457V206.48C380.457 205.893 380.302 205.451 379.993 205.152C379.694 204.853 379.251 204.704 378.665 204.704C378.334 204.704 377.993 204.709 377.641 204.72C377.289 204.731 376.953 204.741 376.633 204.752C376.313 204.763 376.035 204.779 375.801 204.8V203.456C376.035 203.435 376.281 203.419 376.537 203.408C376.803 203.387 377.075 203.376 377.353 203.376C377.63 203.365 377.897 203.36 378.153 203.36C379.027 203.36 379.742 203.467 380.297 203.68C380.851 203.883 381.262 204.219 381.529 204.688C381.795 205.157 381.929 205.792 381.929 206.592V212H380.713ZM377.913 212.224C377.273 212.224 376.718 212.117 376.249 211.904C375.79 211.68 375.433 211.36 375.177 210.944C374.931 210.528 374.809 210.027 374.809 209.44C374.809 208.832 374.942 208.325 375.209 207.92C375.486 207.515 375.886 207.211 376.409 207.008C376.931 206.795 377.561 206.688 378.297 206.688H380.617V207.84H378.233C377.614 207.84 377.139 207.989 376.809 208.288C376.478 208.587 376.313 208.971 376.313 209.44C376.313 209.909 376.478 210.288 376.809 210.576C377.139 210.864 377.614 211.008 378.233 211.008C378.595 211.008 378.942 210.944 379.273 210.816C379.603 210.677 379.875 210.453 380.089 210.144C380.313 209.824 380.435 209.387 380.457 208.832L380.873 209.44C380.819 210.048 380.67 210.56 380.425 210.976C380.19 211.381 379.859 211.691 379.433 211.904C379.017 212.117 378.51 212.224 377.913 212.224ZM387.756 212.096C387.116 212.096 386.561 212.005 386.092 211.824C385.633 211.643 385.276 211.333 385.02 210.896C384.775 210.448 384.652 209.845 384.652 209.088V200.864H386.124V209.28C386.124 209.739 386.247 210.096 386.492 210.352C386.748 210.597 387.105 210.72 387.564 210.72H389.068V212.096H387.756ZM383.18 204.608V203.456H389.068V204.608H383.18ZM394.49 212.288C393.743 212.288 393.098 212.16 392.554 211.904C392.01 211.648 391.567 211.312 391.226 210.896C390.885 210.469 390.629 209.995 390.458 209.472C390.298 208.949 390.218 208.416 390.218 207.872V207.584C390.218 207.029 390.298 206.491 390.458 205.968C390.629 205.445 390.885 204.976 391.226 204.56C391.567 204.133 391.999 203.797 392.522 203.552C393.055 203.296 393.679 203.168 394.394 203.168C395.322 203.168 396.085 203.371 396.682 203.776C397.29 204.171 397.738 204.683 398.026 205.312C398.325 205.941 398.474 206.613 398.474 207.328V208.016H390.89V206.864H397.354L397.002 207.488C397.002 206.88 396.906 206.357 396.714 205.92C396.522 205.472 396.234 205.125 395.85 204.88C395.466 204.635 394.981 204.512 394.394 204.512C393.786 204.512 393.279 204.651 392.874 204.928C392.479 205.205 392.181 205.584 391.978 206.064C391.786 206.544 391.69 207.099 391.69 207.728C391.69 208.336 391.786 208.885 391.978 209.376C392.181 209.856 392.49 210.24 392.906 210.528C393.322 210.805 393.85 210.944 394.49 210.944C395.162 210.944 395.706 210.795 396.122 210.496C396.549 210.197 396.805 209.851 396.89 209.456H398.33C398.213 210.043 397.978 210.549 397.626 210.976C397.274 211.403 396.831 211.728 396.298 211.952C395.765 212.176 395.162 212.288 394.49 212.288ZM403.135 212.256C402.015 212.256 401.145 212.016 400.527 211.536C399.919 211.056 399.604 210.4 399.583 209.568H401.023C401.044 209.899 401.209 210.213 401.519 210.512C401.839 210.8 402.377 210.944 403.135 210.944C403.817 210.944 404.34 210.811 404.703 210.544C405.065 210.267 405.247 209.931 405.247 209.536C405.247 209.184 405.113 208.912 404.847 208.72C404.58 208.517 404.148 208.384 403.551 208.32L402.623 208.224C401.812 208.139 401.151 207.899 400.639 207.504C400.127 207.099 399.871 206.533 399.871 205.808C399.871 205.264 400.009 204.8 400.287 204.416C400.564 204.021 400.948 203.723 401.439 203.52C401.929 203.307 402.495 203.2 403.135 203.2C404.095 203.2 404.873 203.413 405.471 203.84C406.068 204.267 406.377 204.901 406.399 205.744H404.959C404.948 205.403 404.788 205.115 404.479 204.88C404.18 204.635 403.732 204.512 403.135 204.512C402.537 204.512 402.084 204.635 401.775 204.88C401.465 205.125 401.311 205.435 401.311 205.808C401.311 206.128 401.417 206.384 401.631 206.576C401.855 206.768 402.217 206.891 402.719 206.944L403.647 207.04C404.564 207.136 405.3 207.392 405.855 207.808C406.409 208.213 406.687 208.789 406.687 209.536C406.687 210.069 406.532 210.544 406.223 210.96C405.924 211.365 405.508 211.685 404.975 211.92C404.441 212.144 403.828 212.256 403.135 212.256ZM408.133 212V210.048H409.989V212H408.133Z" fill="#545454"/>
<path fill-rule="evenodd" clip-rule="evenodd" d="M154.53 39.4697C154.823 39.7626 154.823 40.2374 154.53 40.5303L149.811 45.25H164C164.414 45.25 164.75 45.5858 164.75 46C164.75 46.4142 164.414 46.75 164 46.75H149.811L154.53 51.4697C154.823 51.7626 154.823 52.2374 154.53 52.5303C154.237 52.8232 153.763 52.8232 153.47 52.5303L147.47 46.5303C147.177 46.2374 147.177 45.7626 147.47 45.4697L153.47 39.4697C153.763 39.1768 154.237 39.1768 154.53 39.4697Z" fill="#02093A"/>
</g>
</g>
<rect x="126" y="19" width="369" height="242" rx="22" stroke="black" stroke-width="6"/>
</g>
<defs>
<clipPath id="clip0_4931_13539">
<rect width="621" height="248" rx="8" fill="white"/>
</clipPath>
<clipPath id="clip1_4931_13539">
<rect x="123" y="16" width="375" height="248" rx="25" fill="white"/>
</clipPath>
<clipPath id="clip2_4931_13539">
<rect x="123" y="-32" width="375" height="812" rx="25" fill="white"/>
</clipPath>
</defs>
</svg>
