<svg width="35" height="30" viewBox="0 0 35 30" fill="none" xmlns="http://www.w3.org/2000/svg">
<path d="M30 11.25C31.3256 11.2483 32.5964 10.721 33.5337 9.78371C34.471 8.84638 34.9983 7.57557 35 6.25V2.5H31.25C29.9702 2.50202 28.7404 2.99716 27.8162 3.8825C27.1691 2.70718 26.2185 1.72699 25.0636 1.0441C23.9087 0.361219 22.5917 0.000654518 21.25 0H17.5V3.75C17.5023 5.73841 18.2932 7.64472 19.6993 9.05074C21.1053 10.4568 23.0116 11.2477 25 11.25H26.25V27.5H11.25V21.25H12.5C13.8256 21.2483 15.0964 20.721 16.0337 19.7837C16.971 18.8464 17.4983 17.5756 17.5 16.25V12.5H13.75C12.4702 12.502 11.2404 12.9972 10.3162 13.8825C9.6691 12.7072 8.71851 11.727 7.56359 11.0441C6.40867 10.3612 5.09171 10.0007 3.75 10H0V13.75C0.00231576 15.7384 0.793236 17.6447 2.19926 19.0507C3.60528 20.4568 5.51159 21.2477 7.5 21.25H8.75V27.5H0V30H35V27.5H28.75V11.25H30ZM28.75 7.5C28.75 6.83696 29.0134 6.20107 29.4822 5.73223C29.9511 5.26339 30.587 5 31.25 5H32.5V6.25C32.5 6.91304 32.2366 7.54893 31.7678 8.01777C31.2989 8.48661 30.663 8.75 30 8.75H28.75V7.5ZM11.25 17.5C11.25 16.837 11.5134 16.2011 11.9822 15.7322C12.4511 15.2634 13.087 15 13.75 15H15V16.25C15 16.913 14.7366 17.5489 14.2678 18.0178C13.7989 18.4866 13.163 18.75 12.5 18.75H11.25V17.5ZM8.75 18.75H7.5C6.17443 18.7483 4.90362 18.221 3.96629 17.2837C3.02897 16.3464 2.50165 15.0756 2.5 13.75V12.5H3.75C5.07557 12.5017 6.34638 13.029 7.28371 13.9663C8.22103 14.9036 8.74835 16.1744 8.75 17.5V18.75ZM26.25 8.75H25C23.6744 8.74835 22.4036 8.22103 21.4663 7.28371C20.529 6.34638 20.0017 5.07557 20 3.75V2.5H21.25C22.5756 2.50165 23.8464 3.02897 24.7837 3.96629C25.721 4.90362 26.2483 6.17443 26.25 7.5V8.75Z" fill="#22C553"/>
</svg>
