<svg width="40" height="40" viewBox="0 0 40 40" fill="none" xmlns="http://www.w3.org/2000/svg">
<rect width="40" height="40" rx="5" fill="#DC2626"/>
<path d="M11 29V27C11 25.9391 11.4214 24.9217 12.1716 24.1716C12.9217 23.4214 13.9391 23 15 23H19C20.0609 23 21.0783 23.4214 21.8284 24.1716C22.5786 24.9217 23 25.9391 23 27V29M24 11.13C24.8604 11.3503 25.623 11.8507 26.1676 12.5523C26.7122 13.2539 27.0078 14.1168 27.0078 15.005C27.0078 15.8932 26.7122 16.7561 26.1676 17.4577C25.623 18.1593 24.8604 18.6597 24 18.88M29 29V27C28.9949 26.1172 28.6979 25.2608 28.1553 24.5644C27.6126 23.868 26.8548 23.3707 26 23.15M13 15C13 16.0609 13.4214 17.0783 14.1716 17.8284C14.9217 18.5786 15.9391 19 17 19C18.0609 19 19.0783 18.5786 19.8284 17.8284C20.5786 17.0783 21 16.0609 21 15C21 13.9391 20.5786 12.9217 19.8284 12.1716C19.0783 11.4214 18.0609 11 17 11C15.9391 11 14.9217 11.4214 14.1716 12.1716C13.4214 12.9217 13 13.9391 13 15Z" stroke="white" stroke-width="2" stroke-linecap="round" stroke-linejoin="round"/>
</svg>
