<svg width="168" height="48" viewBox="0 0 168 48" fill="none" xmlns="http://www.w3.org/2000/svg">
<path d="M44.3531 21.6645C44.3531 23.1702 44.2081 24.6284 43.9435 26.0318C43.8747 26.3899 43.4869 26.5873 43.1571 26.4375C42.3633 26.0756 41.0441 25.4726 40.4026 25.1803C40.1815 25.0779 40.0511 24.844 40.08 24.6028C43.3564 -3.05912 0.883431 -2.97506 4.25764 24.6613C4.28663 24.9025 4.15978 25.1364 3.93508 25.2387L1.23136 26.474C0.894304 26.6275 0.506506 26.4228 0.441269 26.061C-5.09301 -5.07648 43.2368 -10.4561 44.3531 21.6645Z" fill="#A20602"/>
<path d="M36.782 21.8583C36.782 22.1982 36.7711 22.5344 36.7458 22.867C36.7168 23.258 36.3072 23.5029 35.9484 23.3384L35.9339 23.3311L33.85 22.3809H33.8463C33.647 22.2895 33.5202 22.0885 33.5202 21.8729V21.8583C33.5202 15.6344 28.4389 10.5874 22.1725 10.5874C15.9061 10.5874 10.8249 15.6344 10.8249 21.8583C10.8249 21.8839 10.8249 21.9058 10.8249 21.9314C10.8249 22.1506 10.6981 22.3553 10.4951 22.4467L8.422 23.3896L8.40026 23.4005C8.04145 23.565 7.63191 23.3201 7.60292 22.9291C7.57755 22.5746 7.56305 22.2164 7.56305 21.8583C7.56305 13.8473 14.1049 7.34937 22.1725 7.34937C30.2402 7.34937 36.7784 13.8437 36.7784 21.8583H36.782Z" fill="#A20602"/>
<path d="M40.9394 32.7493C38.493 31.6346 35.6334 30.3299 33.0783 29.1641C32.879 29.0763 32.7521 28.879 32.7521 28.6597V26.1855C32.7521 25.5094 32.7449 24.8297 32.7449 24.1499C32.7449 23.5652 32.6434 22.995 32.4006 22.4541C32.165 21.9315 31.7772 21.5697 31.1719 21.5588C30.7334 21.5514 30.5703 21.3322 30.4724 20.9411C30.168 19.7205 29.7403 18.5437 29.1749 17.4144C28.5008 16.0768 27.4425 15.3934 25.924 15.408C24.6591 15.4226 23.3942 15.4117 22.133 15.4117C20.8681 15.4117 19.6068 15.4117 18.342 15.408C17.059 15.4007 16.0949 15.9452 15.4244 17.0234C14.6633 18.2403 14.203 19.5816 13.8007 20.9448C13.7137 21.2372 13.6558 21.5405 13.2426 21.5441C12.4163 21.5478 12.0647 22.107 11.8291 22.7794C11.6407 23.3093 11.608 23.8648 11.608 24.4276C11.6117 25.2646 11.6008 26.1051 11.6008 26.942V28.5464C11.6008 28.762 11.4739 28.9594 11.2746 29.0544C8.71949 30.2166 5.89255 31.503 3.42441 32.6323C3.12359 32.7675 3.00762 33.1257 3.17071 33.4144C7.38213 40.9795 14.8228 46.1325 19.3531 47.9306C20.8101 46.9292 22.3214 45.9937 22.6005 43.651C22.6694 43.0663 22.644 42.5473 22.5498 42.0795H27.062C27.1743 42.445 27.2504 42.8507 27.2758 43.3038C27.399 45.5734 26.1704 46.7794 24.9526 47.9964C29.5482 46.2787 36.9998 41.1549 41.2039 33.5277C41.3634 33.2426 41.2474 32.8808 40.9466 32.7456L40.9394 32.7493ZM16.5914 18.8251H27.4063V21.3066H16.5914V18.8251ZM21.1906 39.5396C20.2737 38.4322 19.1828 37.4418 18.7624 35.9946H21.959C22.528 37.6794 23.9523 38.5126 25.181 39.5396H21.187H21.1906ZM18.6536 33.8676C18.7769 33.1111 19.0668 32.4825 19.4582 31.9379H22.3613C22.0315 32.4898 21.7959 33.1147 21.727 33.8676H18.6536ZM28.9357 29.0033H24.9526C24.5793 29.4345 24.1662 29.8365 23.7639 30.2458H21.1906C21.7415 29.8219 22.3105 29.4272 22.8252 29.0033H15.062V26.5254H28.9357V29.0033Z" fill="#A20602"/>
<path d="M57.0455 32.9908L55.4472 37.7455H50.3551L59.0063 14.597H63.446L72.1298 37.7455H67.0377L65.4394 32.9908H57.0492H57.0455ZM64.131 29.1169L61.2243 20.4554L58.3503 29.1169H64.1274H64.131Z" fill="#02093A"/>
<path d="M78.2944 25.5971V37.7415H73.6916V20.55H78.0334L78.1639 22.5345C79.2077 21.2006 80.8749 20.2211 83.1256 20.2211C87.1087 20.2211 88.5765 22.7611 88.5765 26.7995V37.7378H83.9736V26.7666C83.9736 24.8114 83.1582 23.9671 81.2301 23.9671C79.7949 23.9671 78.8453 24.6834 78.2908 25.5934L78.2944 25.5971Z" fill="#02093A"/>
<path d="M91.8423 40.9356C93.5384 40.9356 94.4227 40.3508 94.8468 39.079L95.3687 37.778L89.298 20.5536H94.2596L97.4599 31.2325L100.66 20.5536H105.589L98.703 40.3179C97.8876 42.6605 96.4487 44.6816 93.1869 44.6816C92.404 44.6816 91.7516 44.6158 91.1645 44.3892V40.9063C91.3928 40.9063 91.6212 40.9392 91.8495 40.9392L91.8423 40.9356Z" fill="#02093A"/>
<path d="M120.351 28.0714L125.378 37.515V37.7415H120.253L115.911 29.2774H112.091V37.7415H107.293V14.5931H115.944C119.862 14.5931 122.703 15.8612 123.91 18.5657C124.301 19.4464 124.497 20.4551 124.497 21.5954C124.497 25.1769 122.801 26.9348 120.351 28.075V28.0714ZM115.944 18.467H112.091V25.4035H115.944C118.263 25.4035 119.731 24.2632 119.731 21.9864C119.731 19.7096 118.361 18.4706 115.944 18.4706V18.467Z" fill="#A20602"/>
<path d="M127.23 16.0917C127.23 14.6591 128.306 13.7162 129.81 13.7162C131.314 13.7162 132.391 14.597 132.391 16.0917C132.391 17.5864 131.347 18.4672 129.81 18.4672C128.273 18.4672 127.23 17.5864 127.23 16.0917ZM127.523 37.7454V20.554H132.126V37.7454H127.523Z" fill="#A20602"/>
<path d="M141.107 38.0706C138.787 38.0706 137.189 36.9961 136.145 35.5964C135.036 34.098 134.384 31.9162 134.384 29.347V29.0217C134.384 25.1478 135.689 22.1839 138.269 20.8828C139.117 20.4589 140.063 20.2323 141.143 20.2323C143.1 20.2323 144.376 21.0144 145.322 22.1217V13.3323H149.925V37.7526H145.779L145.55 35.929C144.539 37.1679 143.231 38.0779 141.111 38.0779L141.107 38.0706ZM142.314 23.971C139.701 23.971 138.983 26.4123 138.983 29.018V29.3433C138.983 31.9491 139.701 34.3575 142.281 34.3575C143.847 34.3575 144.796 33.6083 145.318 32.5338V25.7618C144.796 24.6873 143.883 23.971 142.314 23.971Z" fill="#A20602"/>
<path d="M160.881 38.0706C156.735 38.0706 154.06 35.9546 152.915 32.9578C152.524 31.9491 152.328 30.8747 152.328 29.7344V29.1168C152.328 25.0455 154.154 22.1474 157.029 20.8792C158.007 20.4553 159.149 20.2287 160.392 20.2287C164.244 20.2287 166.593 22.2461 167.51 25.21C167.836 26.2515 167.999 27.4247 167.999 28.6928V30.6481H157C157.195 32.3731 158.174 33.5791 159.58 34.098C160.069 34.2917 160.591 34.3575 161.211 34.3575C163.135 34.3575 164.476 33.6083 165.357 32.4352L167.611 34.9752C166.274 36.7988 164.085 38.067 160.888 38.067L160.881 38.0706ZM160.359 23.9382C158.206 23.9382 157.289 25.5974 157.061 27.5197H163.458V27.1287C163.458 25.1442 162.349 23.9382 160.356 23.9382H160.359Z" fill="#A20602"/>
<path d="M136.395 10.9971C134.913 9.093 132.597 7.8687 130.002 7.87601C126.668 7.88332 123.801 9.92261 122.583 12.8134H124.189C125.301 10.7412 127.491 9.33055 130.006 9.32325C131.934 9.31959 133.67 10.1419 134.884 11.4539C135.257 11.8523 135.58 12.3018 135.837 12.7842H137.446C137.175 12.141 136.819 11.5416 136.395 11.0007V10.9971Z" fill="#A20602"/>
<path d="M140.317 9.80575C138.222 6.30095 134.377 3.95102 129.995 3.95833C124.471 3.97295 119.821 7.72626 118.451 12.8099H119.959C121.289 8.53393 125.283 5.41653 129.998 5.40557C133.721 5.39826 137.004 7.3279 138.885 10.237C139.389 11.0118 139.788 11.8633 140.074 12.7587H141.582C141.295 11.7062 140.868 10.7158 140.32 9.80209L140.317 9.80575Z" fill="#A20602"/>
</svg>
