<svg width="33" height="34" viewBox="0 0 33 34" fill="none" xmlns="http://www.w3.org/2000/svg">
<path fill-rule="evenodd" clip-rule="evenodd" d="M29.6667 13.6334C29.15 8.33336 26.0167 0 16.3334 0C6.65004 0 3.51668 8.33336 3.00004 13.6334C1.18754 14.3212 -0.0080065 16.0614 4.03712e-05 18V20.3334C4.03712e-05 22.9107 2.08942 25 4.66668 25C7.24402 25 9.3334 22.9106 9.3334 20.3334V18C9.32496 16.1032 8.1734 14.3988 6.41668 13.6834C6.75004 10.6166 8.3834 3.33336 16.3334 3.33336C24.2834 3.33336 25.9 10.6166 26.2334 13.6834C24.4803 14.4004 23.3345 16.1059 23.3334 18V20.3334C23.337 21.2115 23.5873 22.0709 24.0559 22.8135C24.5245 23.5561 25.1924 24.1521 25.9834 24.5334C25.2834 25.85 23.5 27.6334 19.1167 28.1666C18.2405 26.8362 16.5453 26.3116 15.0707 26.9148C13.5963 27.518 12.7547 29.0802 13.0622 30.6434C13.3697 32.2065 14.7403 33.3334 16.3334 33.3334C16.9507 33.3299 17.5549 33.1551 18.0787 32.8285C18.6025 32.5018 19.0253 32.0362 19.3 31.4834C26.45 30.6666 28.7334 26.9834 29.45 24.8166C31.3889 24.1886 32.6929 22.3713 32.6667 20.3334V18C32.6747 16.0614 31.4792 14.3212 29.6667 13.6334ZM6.00004 20.3334C6.00004 21.0697 5.40309 21.6666 4.66668 21.6666C3.93027 21.6666 3.3334 21.0698 3.3334 20.3334V18C3.33205 17.824 3.36555 17.6496 3.43195 17.4866C3.49835 17.3237 3.59635 17.1755 3.72029 17.0506C3.84423 16.9257 3.99167 16.8266 4.15411 16.7589C4.31654 16.6913 4.49076 16.6564 4.66672 16.6564C4.84268 16.6564 5.0169 16.6913 5.17933 16.7589C5.34177 16.8266 5.48921 16.9257 5.61315 17.0506C5.73709 17.1755 5.83509 17.3237 5.90149 17.4866C5.96789 17.6496 6.00139 17.824 6.00004 18V20.3334ZM26.6667 18C26.6667 17.2636 27.2636 16.6666 28 16.6666C28.7364 16.6666 29.3334 17.2636 29.3334 18V20.3334C29.3334 21.0697 28.7364 21.6666 28 21.6666C27.2636 21.6666 26.6667 21.0698 26.6667 20.3334V18Z" fill="black"/>
</svg>
