<svg width="40" height="40" viewBox="0 0 40 40" fill="none" xmlns="http://www.w3.org/2000/svg">
<rect width="40" height="40" rx="5" fill="#DC2626"/>
<path d="M29.7097 16.7102C30.9597 15.4602 30.3897 14.0002 29.7097 13.2902L26.7097 10.2902C25.4497 9.04017 23.9997 9.61017 23.2897 10.2902L21.5897 12.0002H18.9997C17.0997 12.0002 15.9997 13.0002 15.4397 14.1502L10.9997 18.5902V22.5902L10.2897 23.2902C9.03968 24.5502 9.60968 26.0002 10.2897 26.7102L13.2897 29.7102C13.8297 30.2502 14.4097 30.4502 14.9597 30.4502C15.6697 30.4502 16.3197 30.1002 16.7097 29.7102L19.4097 27.0002H22.9997C24.6997 27.0002 25.5597 25.9402 25.8697 24.9002C26.9997 24.6002 27.6197 23.7402 27.8697 22.9002C29.4197 22.5002 29.9997 21.0302 29.9997 20.0002V17.0002H29.4097L29.7097 16.7102ZM27.9997 20.0002C27.9997 20.4502 27.8097 21.0002 26.9997 21.0002H25.9997V22.0002C25.9997 22.4502 25.8097 23.0002 24.9997 23.0002H23.9997V24.0002C23.9997 24.4502 23.8097 25.0002 22.9997 25.0002H18.5897L15.3097 28.2802C14.9997 28.5702 14.8197 28.4002 14.7097 28.2902L11.7197 25.3102C11.4297 25.0002 11.5997 24.8202 11.7097 24.7102L12.9997 23.4102V19.4102L14.9997 17.4102V19.0002C14.9997 20.2102 15.7997 22.0002 17.9997 22.0002C20.1997 22.0002 20.9997 20.2102 20.9997 19.0002H27.9997V20.0002ZM28.2897 15.2902L26.5897 17.0002H18.9997V19.0002C18.9997 19.4502 18.8097 20.0002 17.9997 20.0002C17.1897 20.0002 16.9997 19.4502 16.9997 19.0002V16.0002C16.9997 15.5402 17.1697 14.0002 18.9997 14.0002H22.4097L24.6897 11.7202C24.9997 11.4302 25.1797 11.6002 25.2897 11.7102L28.2797 14.6902C28.5697 15.0002 28.3997 15.1802 28.2897 15.2902Z" fill="white"/>
</svg>
