<svg width="40" height="40" viewBox="0 0 40 40" fill="none" xmlns="http://www.w3.org/2000/svg">
<path d="M3.33301 18.3335L8.01134 13.0718C8.6368 12.368 9.40427 11.8046 10.2632 11.4188C11.1221 11.033 12.0531 10.8335 12.9947 10.8335H13.333M3.33301 32.5002H12.4997L19.1663 27.5002C19.1663 27.5002 20.5163 26.5885 22.4997 25.0002C26.6663 21.6668 22.4997 16.3902 18.333 19.1668C14.9397 21.4285 11.6663 23.3335 11.6663 23.3335" stroke="#3B82F6" stroke-width="2" stroke-linecap="round" stroke-linejoin="round"/>
<path d="M13.333 22.5002V11.6668C13.333 10.7828 13.6842 9.93493 14.3093 9.30981C14.9344 8.68469 15.7823 8.3335 16.6663 8.3335H33.333C34.2171 8.3335 35.0649 8.68469 35.69 9.30981C36.3152 9.93493 36.6663 10.7828 36.6663 11.6668V21.6668C36.6663 22.5509 36.3152 23.3987 35.69 24.0239C35.0649 24.649 34.2171 25.0002 33.333 25.0002H22.4997" stroke="#3B82F6" stroke-width="2"/>
<path d="M32.5 16.6835L32.5167 16.6652M17.5 16.6835L17.5167 16.6652M25 20.0002C24.1159 20.0002 23.2681 19.649 22.643 19.0239C22.0179 18.3987 21.6667 17.5509 21.6667 16.6668C21.6667 15.7828 22.0179 14.9349 22.643 14.3098C23.2681 13.6847 24.1159 13.3335 25 13.3335C25.8841 13.3335 26.7319 13.6847 27.357 14.3098C27.9821 14.9349 28.3333 15.7828 28.3333 16.6668C28.3333 17.5509 27.9821 18.3987 27.357 19.0239C26.7319 19.649 25.8841 20.0002 25 20.0002Z" stroke="#3B82F6" stroke-width="2" stroke-linecap="round" stroke-linejoin="round"/>
</svg>
