<svg width="621" height="248" viewBox="0 0 621 248" fill="none" xmlns="http://www.w3.org/2000/svg">
<g clip-path="url(#clip0_4986_5035)">
<rect width="621" height="248" fill="#F6E6E6"/>
<g clip-path="url(#clip1_4986_5035)">
<g clip-path="url(#clip2_4986_5035)">
<rect x="123" y="-56" width="375" height="812" rx="25" fill="white"/>
<line x1="170" y1="233" x2="170" y2="259" stroke="#B1B3C2" stroke-width="2" stroke-linecap="round" stroke-dasharray="4 4"/>
<line x1="170" y1="163" x2="170" y2="189" stroke="#B1B3C2" stroke-width="2" stroke-linecap="round" stroke-dasharray="4 4"/>
<path d="M145.05 74V55.75H149.05V74H145.05ZM148.55 74V70.6H156.525V74H148.55ZM148.55 66.425V63.025H155.95V66.425H148.55ZM148.55 59.15V55.75H156.35V59.15H148.55ZM158.669 74V60.3H161.844V66.175H161.619C161.619 64.775 161.794 63.6083 162.144 62.675C162.51 61.7417 163.06 61.0417 163.794 60.575C164.527 60.1083 165.419 59.875 166.469 59.875H166.644C168.244 59.875 169.46 60.4 170.294 61.45C171.144 62.4833 171.569 64.0583 171.569 66.175V74H167.569V65.95C167.569 65.2167 167.352 64.6167 166.919 64.15C166.485 63.6833 165.902 63.45 165.169 63.45C164.419 63.45 163.81 63.6917 163.344 64.175C162.894 64.6417 162.669 65.2583 162.669 66.025V74H158.669ZM180.202 74.175C178.819 74.175 177.702 74.0083 176.852 73.675C176.002 73.325 175.377 72.75 174.977 71.95C174.594 71.1333 174.402 70.0333 174.402 68.65V56.6H178.127V68.8C178.127 69.45 178.294 69.95 178.627 70.3C178.977 70.6333 179.469 70.8 180.102 70.8H182.127V74.175H180.202ZM172.327 63.225V60.3H182.127V63.225H172.327ZM190.043 74.475C188.877 74.475 187.843 74.275 186.943 73.875C186.06 73.475 185.318 72.9417 184.718 72.275C184.135 71.5917 183.685 70.8333 183.368 70C183.068 69.15 182.918 68.2833 182.918 67.4V66.9C182.918 65.9833 183.068 65.1083 183.368 64.275C183.685 63.425 184.135 62.6667 184.718 62C185.302 61.3333 186.027 60.8083 186.893 60.425C187.777 60.025 188.777 59.825 189.893 59.825C191.36 59.825 192.593 60.1583 193.593 60.825C194.61 61.475 195.385 62.3333 195.918 63.4C196.452 64.45 196.718 65.6 196.718 66.85V68.2H184.593V65.925H194.293L192.993 66.975C192.993 66.1583 192.877 65.4583 192.643 64.875C192.41 64.2917 192.06 63.85 191.593 63.55C191.143 63.2333 190.577 63.075 189.893 63.075C189.193 63.075 188.602 63.2333 188.118 63.55C187.635 63.8667 187.268 64.3333 187.018 64.95C186.768 65.55 186.643 66.2917 186.643 67.175C186.643 67.9917 186.76 68.7083 186.993 69.325C187.227 69.925 187.593 70.3917 188.093 70.725C188.593 71.0583 189.243 71.225 190.043 71.225C190.777 71.225 191.377 71.0833 191.843 70.8C192.31 70.5167 192.627 70.1667 192.793 69.75H196.468C196.268 70.6667 195.877 71.4833 195.293 72.2C194.71 72.9167 193.977 73.475 193.093 73.875C192.21 74.275 191.193 74.475 190.043 74.475ZM198.369 74V60.3H201.544V66.175H201.469C201.469 64.2417 201.877 62.75 202.694 61.7C203.527 60.65 204.727 60.125 206.294 60.125H206.819V63.575H205.819C204.719 63.575 203.869 63.875 203.269 64.475C202.669 65.0583 202.369 65.9083 202.369 67.025V74H198.369ZM211.99 79.425V76.025H214.84C215.274 76.025 215.64 75.9667 215.94 75.85C216.24 75.75 216.482 75.575 216.665 75.325C216.849 75.075 216.999 74.7333 217.115 74.3L220.49 60.3H224.29L220.465 75.1C220.199 76.1667 219.824 77.0167 219.34 77.65C218.874 78.2833 218.24 78.7333 217.44 79C216.657 79.2833 215.657 79.425 214.44 79.425H211.99ZM216.29 73.7V70.575H219.19V73.7H216.29ZM214.64 73.7L210.44 60.3H214.465L218.44 73.7H214.64ZM231.756 74.475C230.556 74.475 229.489 74.2917 228.556 73.925C227.623 73.5417 226.831 73.025 226.181 72.375C225.548 71.725 225.064 70.9833 224.731 70.15C224.398 69.3 224.231 68.4083 224.231 67.475V66.9C224.231 65.95 224.398 65.05 224.731 64.2C225.081 63.3333 225.581 62.575 226.231 61.925C226.898 61.275 227.698 60.7667 228.631 60.4C229.564 60.0167 230.606 59.825 231.756 59.825C232.939 59.825 233.989 60.0167 234.906 60.4C235.839 60.7667 236.631 61.275 237.281 61.925C237.931 62.575 238.431 63.3333 238.781 64.2C239.131 65.05 239.306 65.95 239.306 66.9V67.475C239.306 68.4083 239.139 69.3 238.806 70.15C238.473 70.9833 237.981 71.725 237.331 72.375C236.698 73.025 235.914 73.5417 234.981 73.925C234.048 74.2917 232.973 74.475 231.756 74.475ZM231.756 71.1C232.539 71.1 233.189 70.9333 233.706 70.6C234.223 70.2667 234.614 69.8 234.881 69.2C235.164 68.6 235.306 67.9333 235.306 67.2C235.306 66.4167 235.164 65.7333 234.881 65.15C234.598 64.55 234.189 64.075 233.656 63.725C233.139 63.375 232.506 63.2 231.756 63.2C231.023 63.2 230.389 63.375 229.856 63.725C229.323 64.075 228.914 64.55 228.631 65.15C228.364 65.7333 228.231 66.4167 228.231 67.2C228.231 67.9333 228.364 68.6 228.631 69.2C228.898 69.8 229.298 70.2667 229.831 70.6C230.364 70.9333 231.006 71.1 231.756 71.1ZM245.722 74.425C244.139 74.425 242.922 73.9167 242.072 72.9C241.222 71.8667 240.797 70.3167 240.797 68.25V60.3H244.797V68.45C244.797 69.1833 245.006 69.7667 245.422 70.2C245.839 70.6333 246.397 70.85 247.097 70.85C247.814 70.85 248.397 70.625 248.847 70.175C249.297 69.725 249.522 69.1167 249.522 68.35V60.3H253.522V74H250.347V68.225H250.622C250.622 69.6083 250.439 70.7667 250.072 71.7C249.722 72.6167 249.197 73.3 248.497 73.75C247.797 74.2 246.931 74.425 245.897 74.425H245.722ZM256.211 74V60.3H259.386V66.175H259.311C259.311 64.2417 259.719 62.75 260.536 61.7C261.369 60.65 262.569 60.125 264.136 60.125H264.661V63.575H263.661C262.561 63.575 261.711 63.875 261.111 64.475C260.511 65.0583 260.211 65.9083 260.211 67.025V74H256.211ZM269.982 74V60.3H273.157V66.175H273.082C273.082 64.2417 273.491 62.75 274.307 61.7C275.141 60.65 276.341 60.125 277.907 60.125H278.432V63.575H277.432C276.332 63.575 275.482 63.875 274.882 64.475C274.282 65.0583 273.982 65.9083 273.982 67.025V74H269.982ZM286.106 74.475C284.906 74.475 283.84 74.2917 282.906 73.925C281.973 73.5417 281.181 73.025 280.531 72.375C279.898 71.725 279.415 70.9833 279.081 70.15C278.748 69.3 278.581 68.4083 278.581 67.475V66.9C278.581 65.95 278.748 65.05 279.081 64.2C279.431 63.3333 279.931 62.575 280.581 61.925C281.248 61.275 282.048 60.7667 282.981 60.4C283.915 60.0167 284.956 59.825 286.106 59.825C287.29 59.825 288.34 60.0167 289.256 60.4C290.19 60.7667 290.981 61.275 291.631 61.925C292.281 62.575 292.781 63.3333 293.131 64.2C293.481 65.05 293.656 65.95 293.656 66.9V67.475C293.656 68.4083 293.49 69.3 293.156 70.15C292.823 70.9833 292.331 71.725 291.681 72.375C291.048 73.025 290.265 73.5417 289.331 73.925C288.398 74.2917 287.323 74.475 286.106 74.475ZM286.106 71.1C286.89 71.1 287.54 70.9333 288.056 70.6C288.573 70.2667 288.965 69.8 289.231 69.2C289.515 68.6 289.656 67.9333 289.656 67.2C289.656 66.4167 289.515 65.7333 289.231 65.15C288.948 64.55 288.54 64.075 288.006 63.725C287.49 63.375 286.856 63.2 286.106 63.2C285.373 63.2 284.74 63.375 284.206 63.725C283.673 64.075 283.265 64.55 282.981 65.15C282.715 65.7333 282.581 66.4167 282.581 67.2C282.581 67.9333 282.715 68.6 282.981 69.2C283.248 69.8 283.648 70.2667 284.181 70.6C284.715 70.9333 285.356 71.1 286.106 71.1ZM300.073 74.425C298.49 74.425 297.273 73.9167 296.423 72.9C295.573 71.8667 295.148 70.3167 295.148 68.25V60.3H299.148V68.45C299.148 69.1833 299.356 69.7667 299.773 70.2C300.19 70.6333 300.748 70.85 301.448 70.85C302.165 70.85 302.748 70.625 303.198 70.175C303.648 69.725 303.873 69.1167 303.873 68.35V60.3H307.873V74H304.698V68.225H304.973C304.973 69.6083 304.79 70.7667 304.423 71.7C304.073 72.6167 303.548 73.3 302.848 73.75C302.148 74.2 301.281 74.425 300.248 74.425H300.073ZM316.786 74.175C315.403 74.175 314.286 74.0083 313.436 73.675C312.586 73.325 311.961 72.75 311.561 71.95C311.178 71.1333 310.986 70.0333 310.986 68.65V56.6H314.711V68.8C314.711 69.45 314.878 69.95 315.211 70.3C315.561 70.6333 316.053 70.8 316.686 70.8H318.711V74.175H316.786ZM308.911 63.225V60.3H318.711V63.225H308.911ZM326.627 74.475C325.461 74.475 324.427 74.275 323.527 73.875C322.644 73.475 321.902 72.9417 321.302 72.275C320.719 71.5917 320.269 70.8333 319.952 70C319.652 69.15 319.502 68.2833 319.502 67.4V66.9C319.502 65.9833 319.652 65.1083 319.952 64.275C320.269 63.425 320.719 62.6667 321.302 62C321.886 61.3333 322.611 60.8083 323.477 60.425C324.361 60.025 325.361 59.825 326.477 59.825C327.944 59.825 329.177 60.1583 330.177 60.825C331.194 61.475 331.969 62.3333 332.502 63.4C333.036 64.45 333.302 65.6 333.302 66.85V68.2H321.177V65.925H330.877L329.577 66.975C329.577 66.1583 329.461 65.4583 329.227 64.875C328.994 64.2917 328.644 63.85 328.177 63.55C327.727 63.2333 327.161 63.075 326.477 63.075C325.777 63.075 325.186 63.2333 324.702 63.55C324.219 63.8667 323.852 64.3333 323.602 64.95C323.352 65.55 323.227 66.2917 323.227 67.175C323.227 67.9917 323.344 68.7083 323.577 69.325C323.811 69.925 324.177 70.3917 324.677 70.725C325.177 71.0583 325.827 71.225 326.627 71.225C327.361 71.225 327.961 71.0833 328.427 70.8C328.894 70.5167 329.211 70.1667 329.377 69.75H333.052C332.852 70.6667 332.461 71.4833 331.877 72.2C331.294 72.9167 330.561 73.475 329.677 73.875C328.794 74.275 327.777 74.475 326.627 74.475Z" fill="#333333"/>
<rect x="143" y="104" width="296" height="56" rx="8" fill="#F5F5F7"/>
<path fill-rule="evenodd" clip-rule="evenodd" d="M160.656 124.461C161.227 123.916 162.129 123.678 163.003 124.067L176.761 130.202C178.358 130.915 178.358 133.086 176.761 133.798L163.003 139.934C162.129 140.323 161.227 140.084 160.656 139.54C160.081 138.99 159.815 138.093 160.275 137.234L162.901 132.314L163.453 132.608L162.901 132.314C163.007 132.115 163.007 131.886 162.901 131.687L160.275 126.767C159.815 125.907 160.081 125.01 160.656 124.461ZM161.52 125.365C161.291 125.583 161.219 125.882 161.377 126.178L160.826 126.473L161.377 126.178L164.004 131.098C164.306 131.665 164.306 132.336 164.004 132.902L161.377 137.822C161.219 138.119 161.291 138.417 161.52 138.635C161.753 138.858 162.12 138.959 162.493 138.792L176.252 132.657C176.861 132.385 176.861 131.616 176.252 131.344L162.493 125.209C162.12 125.042 161.753 125.142 161.52 125.365Z" fill="#02093A"/>
<path d="M188.7 122.33V121.66H190.4C190.793 121.66 191.113 121.587 191.36 121.44C191.607 121.287 191.79 121.087 191.91 120.84C192.03 120.587 192.09 120.307 192.09 120C192.09 119.687 192.03 119.407 191.91 119.16C191.79 118.907 191.607 118.707 191.36 118.56C191.113 118.413 190.793 118.34 190.4 118.34H188.7V117.67H190.27C190.857 117.67 191.34 117.767 191.72 117.96C192.107 118.153 192.393 118.42 192.58 118.76C192.773 119.1 192.87 119.49 192.87 119.93V120.07C192.87 120.503 192.773 120.893 192.58 121.24C192.393 121.58 192.107 121.847 191.72 122.04C191.34 122.233 190.857 122.33 190.27 122.33H188.7ZM188.14 125V117.67H188.9V125H188.14ZM194.568 125V119.71H195.308V125H194.568ZM193.718 120.31V119.71H195.308V120.31H193.718ZM194.728 118.73C194.548 118.73 194.412 118.683 194.318 118.59C194.232 118.49 194.188 118.367 194.188 118.22C194.188 118.073 194.232 117.953 194.318 117.86C194.412 117.76 194.548 117.71 194.728 117.71C194.908 117.71 195.042 117.76 195.128 117.86C195.215 117.953 195.258 118.073 195.258 118.22C195.258 118.367 195.215 118.49 195.128 118.59C195.042 118.683 194.908 118.73 194.728 118.73ZM199.507 125.17C199.06 125.17 198.67 125.093 198.337 124.94C198.01 124.78 197.737 124.567 197.517 124.3C197.297 124.027 197.13 123.727 197.017 123.4C196.91 123.073 196.857 122.743 196.857 122.41V122.27C196.857 121.93 196.91 121.6 197.017 121.28C197.13 120.953 197.297 120.66 197.517 120.4C197.737 120.133 198.01 119.923 198.337 119.77C198.67 119.61 199.053 119.53 199.487 119.53C199.927 119.53 200.317 119.61 200.657 119.77C201.003 119.93 201.283 120.157 201.497 120.45C201.71 120.743 201.837 121.09 201.877 121.49H201.157C201.097 121.123 200.923 120.82 200.637 120.58C200.357 120.333 199.973 120.21 199.487 120.21C199.067 120.21 198.717 120.307 198.437 120.5C198.163 120.687 197.957 120.943 197.817 121.27C197.677 121.59 197.607 121.947 197.607 122.34C197.607 122.727 197.677 123.087 197.817 123.42C197.957 123.747 198.167 124.01 198.447 124.21C198.727 124.403 199.08 124.5 199.507 124.5C199.833 124.5 200.117 124.443 200.357 124.33C200.603 124.21 200.8 124.05 200.947 123.85C201.1 123.65 201.19 123.43 201.217 123.19H201.937C201.91 123.59 201.783 123.94 201.557 124.24C201.337 124.533 201.05 124.763 200.697 124.93C200.343 125.09 199.947 125.17 199.507 125.17ZM206.912 125L204.782 122.52H203.922L206.432 119.71H207.232L204.982 122.22L205.032 121.81L207.792 125H206.912ZM203.312 125V117.7H204.062V125H203.312ZM210.571 125.15C209.938 125.15 209.455 124.947 209.121 124.54C208.788 124.127 208.621 123.553 208.621 122.82V119.7H209.361V122.97C209.361 123.43 209.481 123.797 209.721 124.07C209.968 124.337 210.308 124.47 210.741 124.47C211.195 124.47 211.555 124.327 211.821 124.04C212.095 123.753 212.231 123.37 212.231 122.89V119.7H212.981V125H212.381V122.79H212.501C212.501 123.283 212.431 123.707 212.291 124.06C212.151 124.407 211.941 124.677 211.661 124.87C211.381 125.057 211.028 125.15 210.601 125.15H210.571ZM214.943 127V119.71H215.543V121.98L215.363 122C215.389 121.467 215.503 121.017 215.703 120.65C215.909 120.283 216.186 120.007 216.533 119.82C216.886 119.627 217.279 119.53 217.713 119.53C218.099 119.53 218.449 119.607 218.763 119.76C219.083 119.907 219.353 120.11 219.573 120.37C219.799 120.623 219.969 120.917 220.083 121.25C220.203 121.577 220.263 121.92 220.263 122.28V122.42C220.263 122.78 220.203 123.127 220.083 123.46C219.963 123.787 219.789 124.08 219.563 124.34C219.343 124.593 219.073 124.797 218.753 124.95C218.439 125.097 218.086 125.17 217.693 125.17C217.273 125.17 216.886 125.077 216.533 124.89C216.186 124.697 215.903 124.413 215.683 124.04C215.469 123.667 215.353 123.207 215.333 122.66L215.693 123.41V127H214.943ZM217.593 124.51C217.993 124.51 218.336 124.417 218.623 124.23C218.909 124.037 219.129 123.777 219.283 123.45C219.436 123.117 219.513 122.75 219.513 122.35C219.513 121.937 219.433 121.57 219.273 121.25C219.119 120.923 218.899 120.667 218.613 120.48C218.326 120.287 217.986 120.19 217.593 120.19C217.233 120.19 216.906 120.27 216.613 120.43C216.319 120.59 216.086 120.817 215.913 121.11C215.746 121.397 215.663 121.737 215.663 122.13V122.62C215.663 122.993 215.746 123.323 215.913 123.61C216.086 123.89 216.319 124.11 216.613 124.27C216.906 124.43 217.233 124.51 217.593 124.51Z" fill="#555A7B"/>
<path d="M187.392 143L191.074 132.78H193.398L197.192 143H195.778L192.348 133.676L193.02 134.012H191.368L192.082 133.676L188.764 143H187.392ZM189.59 139.948L190.052 138.716H194.462L194.924 139.948H189.59ZM202.818 143.252C202.202 143.252 201.651 143.117 201.166 142.846C200.69 142.575 200.312 142.183 200.032 141.67C199.752 141.147 199.598 140.522 199.57 139.794H199.934V143H198.87V132.78H200.214V137.75L199.738 138.772C199.775 137.96 199.939 137.297 200.228 136.784C200.517 136.271 200.895 135.893 201.362 135.65C201.838 135.398 202.361 135.272 202.93 135.272C203.462 135.272 203.947 135.375 204.386 135.58C204.825 135.776 205.203 136.051 205.52 136.406C205.837 136.751 206.08 137.157 206.248 137.624C206.416 138.081 206.5 138.576 206.5 139.108V139.36C206.5 139.892 206.411 140.391 206.234 140.858C206.066 141.325 205.819 141.74 205.492 142.104C205.165 142.459 204.773 142.739 204.316 142.944C203.868 143.149 203.369 143.252 202.818 143.252ZM202.664 142.076C203.168 142.076 203.607 141.955 203.98 141.712C204.353 141.469 204.643 141.138 204.848 140.718C205.053 140.289 205.156 139.794 205.156 139.234C205.156 138.674 205.049 138.184 204.834 137.764C204.629 137.344 204.339 137.022 203.966 136.798C203.593 136.565 203.159 136.448 202.664 136.448C202.216 136.448 201.801 136.551 201.418 136.756C201.035 136.952 200.727 137.241 200.494 137.624C200.27 137.997 200.158 138.45 200.158 138.982V139.626C200.158 140.139 200.275 140.578 200.508 140.942C200.741 141.306 201.049 141.586 201.432 141.782C201.815 141.978 202.225 142.076 202.664 142.076ZM211.112 143.224C210.226 143.224 209.544 142.935 209.068 142.356C208.592 141.777 208.354 140.942 208.354 139.85V135.51H209.698V140.116C209.698 140.704 209.857 141.166 210.174 141.502C210.492 141.829 210.921 141.992 211.462 141.992C212.022 141.992 212.48 141.815 212.834 141.46C213.189 141.096 213.366 140.601 213.366 139.976V135.51H214.71V143H213.646V139.794H213.814C213.814 140.531 213.716 141.157 213.52 141.67C213.324 142.174 213.03 142.561 212.638 142.832C212.256 143.093 211.766 143.224 211.168 143.224H211.112ZM215.997 145.856V144.652H216.781C217.136 144.652 217.407 144.554 217.593 144.358C217.789 144.162 217.887 143.891 217.887 143.546V135.524H219.175V143.35C219.175 143.975 219.087 144.47 218.909 144.834C218.741 145.198 218.466 145.459 218.083 145.618C217.71 145.777 217.211 145.856 216.585 145.856H215.997ZM216.711 136.588V135.524H219.175V136.588H216.711ZM218.209 134.208C217.911 134.208 217.687 134.129 217.537 133.97C217.397 133.811 217.327 133.611 217.327 133.368C217.327 133.125 217.397 132.925 217.537 132.766C217.687 132.607 217.911 132.528 218.209 132.528C218.508 132.528 218.727 132.607 218.867 132.766C219.017 132.925 219.091 133.125 219.091 133.368C219.091 133.611 219.017 133.811 218.867 133.97C218.727 134.129 218.508 134.208 218.209 134.208ZM226.279 143V140.76H226.055V138.17C226.055 137.657 225.919 137.269 225.649 137.008C225.387 136.747 225 136.616 224.487 136.616C224.197 136.616 223.899 136.621 223.591 136.63C223.283 136.639 222.989 136.649 222.709 136.658C222.429 136.667 222.186 136.681 221.981 136.7V135.524C222.186 135.505 222.401 135.491 222.625 135.482C222.858 135.463 223.096 135.454 223.339 135.454C223.581 135.445 223.815 135.44 224.039 135.44C224.804 135.44 225.429 135.533 225.915 135.72C226.4 135.897 226.759 136.191 226.993 136.602C227.226 137.013 227.343 137.568 227.343 138.268V143H226.279ZM223.829 143.196C223.269 143.196 222.783 143.103 222.373 142.916C221.971 142.72 221.659 142.44 221.435 142.076C221.22 141.712 221.113 141.273 221.113 140.76C221.113 140.228 221.229 139.785 221.463 139.43C221.705 139.075 222.055 138.809 222.513 138.632C222.97 138.445 223.521 138.352 224.165 138.352H226.195V139.36H224.109C223.567 139.36 223.152 139.491 222.863 139.752C222.573 140.013 222.429 140.349 222.429 140.76C222.429 141.171 222.573 141.502 222.863 141.754C223.152 142.006 223.567 142.132 224.109 142.132C224.426 142.132 224.729 142.076 225.019 141.964C225.308 141.843 225.546 141.647 225.733 141.376C225.929 141.096 226.036 140.713 226.055 140.228L226.419 140.76C226.372 141.292 226.241 141.74 226.027 142.104C225.821 142.459 225.532 142.729 225.159 142.916C224.795 143.103 224.351 143.196 223.829 143.196ZM229.963 145.198L228.885 144.792L230.187 141.18L231.293 141.6L229.963 145.198ZM236.855 143V132.78H239.095L244.289 141.768H244.737L244.457 142.02V132.78H245.773V143H243.505L238.311 134.012H237.863L238.143 133.76V143H236.855ZM248.904 143V135.524H250.248V143H248.904ZM247.756 136.588V135.524H250.248V136.588H247.756ZM249.282 134.32C248.983 134.32 248.759 134.241 248.61 134.082C248.47 133.923 248.4 133.723 248.4 133.48C248.4 133.237 248.47 133.037 248.61 132.878C248.759 132.719 248.983 132.64 249.282 132.64C249.581 132.64 249.8 132.719 249.94 132.878C250.089 133.037 250.164 133.237 250.164 133.48C250.164 133.723 250.089 133.923 249.94 134.082C249.8 134.241 249.581 134.32 249.282 134.32ZM255.675 145.912C255.329 145.912 254.979 145.898 254.625 145.87C254.279 145.842 253.948 145.805 253.631 145.758V144.624C253.967 144.671 254.317 144.708 254.681 144.736C255.054 144.773 255.404 144.792 255.731 144.792C256.412 144.792 256.953 144.699 257.355 144.512C257.765 144.335 258.059 144.05 258.237 143.658C258.423 143.275 258.517 142.781 258.517 142.174V140.746L258.965 139.682C258.937 140.438 258.778 141.068 258.489 141.572C258.199 142.067 257.821 142.44 257.355 142.692C256.897 142.935 256.389 143.056 255.829 143.056C255.306 143.056 254.825 142.958 254.387 142.762C253.957 142.557 253.584 142.277 253.267 141.922C252.959 141.567 252.716 141.161 252.539 140.704C252.371 140.237 252.287 139.747 252.287 139.234V138.982C252.287 138.459 252.375 137.974 252.553 137.526C252.73 137.069 252.977 136.672 253.295 136.336C253.612 136 253.99 135.739 254.429 135.552C254.877 135.365 255.367 135.272 255.899 135.272C256.524 135.272 257.075 135.407 257.551 135.678C258.027 135.939 258.4 136.327 258.671 136.84C258.951 137.344 259.105 137.965 259.133 138.702L258.741 138.716V135.524H259.805V142.118C259.805 143.014 259.665 143.737 259.385 144.288C259.114 144.848 258.675 145.259 258.069 145.52C257.471 145.781 256.673 145.912 255.675 145.912ZM256.081 141.824C256.529 141.824 256.935 141.726 257.299 141.53C257.672 141.334 257.966 141.054 258.181 140.69C258.405 140.317 258.517 139.873 258.517 139.36V138.716C258.517 138.212 258.4 137.787 258.167 137.442C257.943 137.097 257.649 136.835 257.285 136.658C256.921 136.481 256.524 136.392 256.095 136.392C255.609 136.392 255.18 136.504 254.807 136.728C254.433 136.952 254.144 137.269 253.939 137.68C253.733 138.081 253.631 138.557 253.631 139.108C253.631 139.659 253.733 140.139 253.939 140.55C254.153 140.961 254.443 141.278 254.807 141.502C255.18 141.717 255.605 141.824 256.081 141.824ZM265.472 143.252C264.819 143.252 264.254 143.14 263.778 142.916C263.302 142.692 262.915 142.398 262.616 142.034C262.317 141.661 262.093 141.245 261.944 140.788C261.804 140.331 261.734 139.864 261.734 139.388V139.136C261.734 138.651 261.804 138.179 261.944 137.722C262.093 137.265 262.317 136.854 262.616 136.49C262.915 136.117 263.293 135.823 263.75 135.608C264.217 135.384 264.763 135.272 265.388 135.272C266.2 135.272 266.867 135.449 267.39 135.804C267.922 136.149 268.314 136.597 268.566 137.148C268.827 137.699 268.958 138.287 268.958 138.912V139.514H262.322V138.506H267.978L267.67 139.052C267.67 138.52 267.586 138.063 267.418 137.68C267.25 137.288 266.998 136.985 266.662 136.77C266.326 136.555 265.901 136.448 265.388 136.448C264.856 136.448 264.413 136.569 264.058 136.812C263.713 137.055 263.451 137.386 263.274 137.806C263.106 138.226 263.022 138.711 263.022 139.262C263.022 139.794 263.106 140.275 263.274 140.704C263.451 141.124 263.722 141.46 264.086 141.712C264.45 141.955 264.912 142.076 265.472 142.076C266.06 142.076 266.536 141.945 266.9 141.684C267.273 141.423 267.497 141.119 267.572 140.774H268.832C268.729 141.287 268.524 141.731 268.216 142.104C267.908 142.477 267.521 142.762 267.054 142.958C266.587 143.154 266.06 143.252 265.472 143.252ZM270.866 143V135.524H271.93V138.604H271.874C271.874 137.512 272.112 136.714 272.588 136.21C273.073 135.697 273.797 135.44 274.758 135.44H275.01V136.644H274.534C273.787 136.644 273.213 136.845 272.812 137.246C272.411 137.638 272.21 138.207 272.21 138.954V143H270.866ZM276.972 143V135.524H278.316V143H276.972ZM275.824 136.588V135.524H278.316V136.588H275.824ZM277.35 134.32C277.052 134.32 276.828 134.241 276.678 134.082C276.538 133.923 276.468 133.723 276.468 133.48C276.468 133.237 276.538 133.037 276.678 132.878C276.828 132.719 277.052 132.64 277.35 132.64C277.649 132.64 277.868 132.719 278.008 132.878C278.158 133.037 278.232 133.237 278.232 133.48C278.232 133.723 278.158 133.923 278.008 134.082C277.868 134.241 277.649 134.32 277.35 134.32ZM285.437 143V140.76H285.213V138.17C285.213 137.657 285.078 137.269 284.807 137.008C284.546 136.747 284.158 136.616 283.645 136.616C283.356 136.616 283.057 136.621 282.749 136.63C282.441 136.639 282.147 136.649 281.867 136.658C281.587 136.667 281.344 136.681 281.139 136.7V135.524C281.344 135.505 281.559 135.491 281.783 135.482C282.016 135.463 282.254 135.454 282.497 135.454C282.74 135.445 282.973 135.44 283.197 135.44C283.962 135.44 284.588 135.533 285.073 135.72C285.558 135.897 285.918 136.191 286.151 136.602C286.384 137.013 286.501 137.568 286.501 138.268V143H285.437ZM282.987 143.196C282.427 143.196 281.942 143.103 281.531 142.916C281.13 142.72 280.817 142.44 280.593 142.076C280.378 141.712 280.271 141.273 280.271 140.76C280.271 140.228 280.388 139.785 280.621 139.43C280.864 139.075 281.214 138.809 281.671 138.632C282.128 138.445 282.679 138.352 283.323 138.352H285.353V139.36H283.267C282.726 139.36 282.31 139.491 282.021 139.752C281.732 140.013 281.587 140.349 281.587 140.76C281.587 141.171 281.732 141.502 282.021 141.754C282.31 142.006 282.726 142.132 283.267 142.132C283.584 142.132 283.888 142.076 284.177 141.964C284.466 141.843 284.704 141.647 284.891 141.376C285.087 141.096 285.194 140.713 285.213 140.228L285.577 140.76C285.53 141.292 285.4 141.74 285.185 142.104C284.98 142.459 284.69 142.729 284.317 142.916C283.953 143.103 283.51 143.196 282.987 143.196Z" fill="#02093A"/>
<path d="M413 138C413 138.265 413.105 138.52 413.293 138.707C413.48 138.895 413.735 139 414 139C414.265 139 414.52 138.895 414.707 138.707C414.895 138.52 415 138.265 415 138C415 137.735 414.895 137.48 414.707 137.293C414.52 137.105 414.265 137 414 137C413.735 137 413.48 137.105 413.293 137.293C413.105 137.48 413 137.735 413 138ZM407 138C407 138.265 407.105 138.52 407.293 138.707C407.48 138.895 407.735 139 408 139C408.265 139 408.52 138.895 408.707 138.707C408.895 138.52 409 138.265 409 138C409 137.735 408.895 137.48 408.707 137.293C408.52 137.105 408.265 137 408 137C407.735 137 407.48 137.105 407.293 137.293C407.105 137.48 407 137.735 407 138ZM413 132C413 132.265 413.105 132.52 413.293 132.707C413.48 132.895 413.735 133 414 133C414.265 133 414.52 132.895 414.707 132.707C414.895 132.52 415 132.265 415 132C415 131.735 414.895 131.48 414.707 131.293C414.52 131.105 414.265 131 414 131C413.735 131 413.48 131.105 413.293 131.293C413.105 131.48 413 131.735 413 132ZM407 132C407 132.265 407.105 132.52 407.293 132.707C407.48 132.895 407.735 133 408 133C408.265 133 408.52 132.895 408.707 132.707C408.895 132.52 409 132.265 409 132C409 131.735 408.895 131.48 408.707 131.293C408.52 131.105 408.265 131 408 131C407.735 131 407.48 131.105 407.293 131.293C407.105 131.48 407 131.735 407 132ZM413 126C413 126.265 413.105 126.52 413.293 126.707C413.48 126.895 413.735 127 414 127C414.265 127 414.52 126.895 414.707 126.707C414.895 126.52 415 126.265 415 126C415 125.735 414.895 125.48 414.707 125.293C414.52 125.105 414.265 125 414 125C413.735 125 413.48 125.105 413.293 125.293C413.105 125.48 413 125.735 413 126ZM407 126C407 126.265 407.105 126.52 407.293 126.707C407.48 126.895 407.735 127 408 127C408.265 127 408.52 126.895 408.707 126.707C408.895 126.52 409 126.265 409 126C409 125.735 408.895 125.48 408.707 125.293C408.52 125.105 408.265 125 408 125C407.735 125 407.48 125.105 407.293 125.293C407.105 125.48 407 125.735 407 126Z" stroke="#8B8EA4" stroke-width="2" stroke-linecap="round" stroke-linejoin="round"/>
<path d="M473 132.998H468V137.998C468 138.263 467.895 138.518 467.707 138.705C467.52 138.893 467.265 138.998 467 138.998C466.735 138.998 466.48 138.893 466.293 138.705C466.105 138.518 466 138.263 466 137.998V132.998H461C460.735 132.998 460.48 132.893 460.293 132.705C460.105 132.518 460 132.263 460 131.998C460 131.733 460.105 131.478 460.293 131.291C460.48 131.103 460.735 130.998 461 130.998H466V125.998C466 125.733 466.105 125.478 466.293 125.291C466.48 125.103 466.735 124.998 467 124.998C467.265 124.998 467.52 125.103 467.707 125.291C467.895 125.478 468 125.733 468 125.998V130.998H473C473.265 130.998 473.52 131.103 473.707 131.291C473.895 131.478 474 131.733 474 131.998C474 132.263 473.895 132.518 473.707 132.705C473.52 132.893 473.265 132.998 473 132.998Z" fill="#02093A"/>
<rect x="143" y="176" width="296" height="56" rx="8" fill="#F5F5F7"/>
<path fill-rule="evenodd" clip-rule="evenodd" d="M160.656 196.461C161.227 195.916 162.129 195.678 163.003 196.067L176.761 202.202C178.358 202.915 178.358 205.086 176.761 205.798L163.003 211.934C162.129 212.323 161.227 212.084 160.656 211.54C160.081 210.99 159.815 210.093 160.275 209.234L162.901 204.314L163.453 204.608L162.901 204.314C163.007 204.115 163.007 203.886 162.901 203.687L160.275 198.767C159.815 197.907 160.081 197.01 160.656 196.461ZM161.52 197.365C161.291 197.583 161.219 197.882 161.377 198.178L160.826 198.473L161.377 198.178L164.004 203.098C164.306 203.665 164.306 204.336 164.004 204.902L161.377 209.822C161.219 210.119 161.291 210.417 161.52 210.635C161.753 210.858 162.12 210.959 162.493 210.792L176.252 204.657C176.861 204.385 176.861 203.616 176.252 203.344L162.493 197.209C162.12 197.042 161.753 197.142 161.52 197.365Z" fill="#02093A"/>
<path d="M188.7 197.04V196.34H190.69C191.183 196.34 191.613 196.26 191.98 196.1C192.353 195.94 192.667 195.723 192.92 195.45C193.173 195.17 193.363 194.85 193.49 194.49C193.617 194.13 193.68 193.747 193.68 193.34C193.68 192.92 193.613 192.53 193.48 192.17C193.353 191.81 193.163 191.493 192.91 191.22C192.657 190.947 192.343 190.737 191.97 190.59C191.603 190.443 191.177 190.37 190.69 190.37H188.7V189.67H190.61C191.263 189.67 191.83 189.77 192.31 189.97C192.79 190.17 193.19 190.443 193.51 190.79C193.83 191.13 194.067 191.513 194.22 191.94C194.373 192.367 194.45 192.8 194.45 193.24V193.43C194.45 193.863 194.373 194.293 194.22 194.72C194.067 195.147 193.833 195.537 193.52 195.89C193.207 196.237 192.807 196.517 192.32 196.73C191.84 196.937 191.27 197.04 190.61 197.04H188.7ZM188.14 197.04V189.67H188.9V197.04H188.14ZM198.129 197.17C197.676 197.17 197.283 197.093 196.949 196.94C196.616 196.78 196.343 196.57 196.129 196.31C195.916 196.043 195.756 195.747 195.649 195.42C195.549 195.093 195.499 194.757 195.499 194.41V194.27C195.499 193.93 195.549 193.597 195.649 193.27C195.756 192.943 195.916 192.65 196.129 192.39C196.343 192.13 196.609 191.923 196.929 191.77C197.256 191.61 197.636 191.53 198.069 191.53C198.623 191.53 199.083 191.653 199.449 191.9C199.823 192.147 200.103 192.463 200.289 192.85C200.476 193.23 200.569 193.64 200.569 194.08V194.47H195.839V193.89H200.049L199.859 194.18C199.859 193.787 199.789 193.443 199.649 193.15C199.516 192.85 199.316 192.617 199.049 192.45C198.789 192.277 198.463 192.19 198.069 192.19C197.656 192.19 197.313 192.287 197.039 192.48C196.766 192.673 196.559 192.93 196.419 193.25C196.286 193.57 196.219 193.933 196.219 194.34C196.219 194.74 196.286 195.107 196.419 195.44C196.559 195.767 196.769 196.027 197.049 196.22C197.336 196.413 197.696 196.51 198.129 196.51C198.589 196.51 198.963 196.407 199.249 196.2C199.536 195.987 199.713 195.737 199.779 195.45H200.479C200.413 195.803 200.273 196.11 200.059 196.37C199.846 196.623 199.576 196.82 199.249 196.96C198.923 197.1 198.549 197.17 198.129 197.17ZM203.683 197.15C203.003 197.15 202.48 197.003 202.113 196.71C201.746 196.41 201.56 196.01 201.553 195.51H202.253C202.266 195.763 202.38 195.993 202.593 196.2C202.813 196.407 203.176 196.51 203.683 196.51C204.156 196.51 204.51 196.413 204.743 196.22C204.983 196.02 205.103 195.78 205.103 195.5C205.103 195.24 205.003 195.04 204.803 194.9C204.61 194.753 204.326 194.66 203.953 194.62L203.353 194.56C202.873 194.507 202.483 194.36 202.183 194.12C201.89 193.873 201.743 193.537 201.743 193.11C201.743 192.797 201.823 192.523 201.983 192.29C202.143 192.057 202.366 191.877 202.653 191.75C202.946 191.617 203.29 191.55 203.683 191.55C204.25 191.55 204.71 191.683 205.063 191.95C205.423 192.217 205.606 192.597 205.613 193.09H204.913C204.906 192.837 204.8 192.623 204.593 192.45C204.386 192.277 204.083 192.19 203.683 192.19C203.27 192.19 202.96 192.28 202.753 192.46C202.553 192.64 202.453 192.86 202.453 193.12C202.453 193.34 202.53 193.523 202.683 193.67C202.836 193.81 203.076 193.897 203.403 193.93L204.003 193.99C204.536 194.05 204.97 194.203 205.303 194.45C205.643 194.697 205.813 195.05 205.813 195.51C205.813 195.823 205.723 196.107 205.543 196.36C205.37 196.607 205.123 196.8 204.803 196.94C204.483 197.08 204.11 197.15 203.683 197.15ZM209.226 197.06C208.859 197.06 208.543 197.007 208.276 196.9C208.009 196.793 207.803 196.613 207.656 196.36C207.509 196.1 207.436 195.753 207.436 195.32V190.04H208.156V195.43C208.156 195.737 208.239 195.973 208.406 196.14C208.573 196.3 208.809 196.38 209.116 196.38H210.066V197.06H209.226ZM206.486 192.28V191.71H210.066V192.28H206.486ZM211.795 197V191.71H212.535V197H211.795ZM210.945 192.31V191.71H212.535V192.31H210.945ZM211.955 190.73C211.775 190.73 211.638 190.683 211.545 190.59C211.458 190.49 211.415 190.367 211.415 190.22C211.415 190.073 211.458 189.953 211.545 189.86C211.638 189.76 211.775 189.71 211.955 189.71C212.135 189.71 212.268 189.76 212.355 189.86C212.442 189.953 212.485 190.073 212.485 190.22C212.485 190.367 212.442 190.49 212.355 190.59C212.268 190.683 212.135 190.73 211.955 190.73ZM214.503 197V191.71H215.103V193.93H214.983C214.983 193.437 215.057 193.013 215.203 192.66C215.35 192.307 215.57 192.033 215.863 191.84C216.157 191.647 216.527 191.55 216.973 191.55H217.003C217.67 191.55 218.167 191.76 218.493 192.18C218.82 192.593 218.983 193.177 218.983 193.93V197H218.243V193.77C218.243 193.31 218.117 192.94 217.863 192.66C217.61 192.38 217.257 192.24 216.803 192.24C216.337 192.24 215.96 192.387 215.673 192.68C215.393 192.967 215.253 193.347 215.253 193.82V197H214.503ZM224.071 197V195.41H223.951V193.53C223.951 193.137 223.848 192.837 223.641 192.63C223.434 192.417 223.114 192.31 222.681 192.31C222.481 192.31 222.278 192.313 222.071 192.32C221.871 192.327 221.678 192.337 221.491 192.35C221.311 192.357 221.151 192.367 221.011 192.38V191.72C221.158 191.707 221.308 191.693 221.461 191.68C221.614 191.667 221.771 191.66 221.931 191.66C222.098 191.653 222.258 191.65 222.411 191.65C222.951 191.65 223.384 191.717 223.711 191.85C224.044 191.983 224.288 192.193 224.441 192.48C224.594 192.76 224.671 193.133 224.671 193.6V197H224.071ZM222.281 197.14C221.908 197.14 221.578 197.073 221.291 196.94C221.004 196.807 220.781 196.613 220.621 196.36C220.468 196.107 220.391 195.8 220.391 195.44C220.391 195.087 220.471 194.787 220.631 194.54C220.798 194.293 221.034 194.107 221.341 193.98C221.654 193.847 222.031 193.78 222.471 193.78H224.021V194.35H222.421C222.001 194.35 221.678 194.453 221.451 194.66C221.231 194.86 221.121 195.123 221.121 195.45C221.121 195.783 221.238 196.05 221.471 196.25C221.704 196.443 222.021 196.54 222.421 196.54C222.668 196.54 222.904 196.497 223.131 196.41C223.358 196.317 223.548 196.163 223.701 195.95C223.854 195.73 223.938 195.43 223.951 195.05L224.171 195.36C224.144 195.753 224.051 196.083 223.891 196.35C223.731 196.61 223.514 196.807 223.241 196.94C222.968 197.073 222.648 197.14 222.281 197.14ZM228.464 197.06C228.098 197.06 227.781 197.007 227.514 196.9C227.248 196.793 227.041 196.613 226.894 196.36C226.748 196.1 226.674 195.753 226.674 195.32V190.04H227.394V195.43C227.394 195.737 227.478 195.973 227.644 196.14C227.811 196.3 228.048 196.38 228.354 196.38H229.304V197.06H228.464ZM225.724 192.28V191.71H229.304V192.28H225.724ZM231.033 197V191.71H231.773V197H231.033ZM230.183 192.31V191.71H231.773V192.31H230.183ZM231.193 190.73C231.013 190.73 230.877 190.683 230.783 190.59C230.697 190.49 230.653 190.367 230.653 190.22C230.653 190.073 230.697 189.953 230.783 189.86C230.877 189.76 231.013 189.71 231.193 189.71C231.373 189.71 231.507 189.76 231.593 189.86C231.68 189.953 231.723 190.073 231.723 190.22C231.723 190.367 231.68 190.49 231.593 190.59C231.507 190.683 231.373 190.73 231.193 190.73ZM236.111 197.17C235.658 197.17 235.258 197.093 234.911 196.94C234.571 196.78 234.281 196.57 234.041 196.31C233.808 196.043 233.628 195.747 233.501 195.42C233.381 195.093 233.321 194.76 233.321 194.42V194.28C233.321 193.94 233.385 193.607 233.511 193.28C233.638 192.947 233.821 192.65 234.061 192.39C234.301 192.13 234.591 191.923 234.931 191.77C235.278 191.61 235.671 191.53 236.111 191.53C236.558 191.53 236.951 191.61 237.291 191.77C237.638 191.923 237.931 192.13 238.171 192.39C238.411 192.65 238.591 192.947 238.711 193.28C238.838 193.607 238.901 193.94 238.901 194.28V194.42C238.901 194.76 238.841 195.093 238.721 195.42C238.601 195.747 238.421 196.043 238.181 196.31C237.948 196.57 237.658 196.78 237.311 196.94C236.965 197.093 236.565 197.17 236.111 197.17ZM236.111 196.5C236.551 196.5 236.921 196.403 237.221 196.21C237.528 196.01 237.761 195.75 237.921 195.43C238.081 195.103 238.161 194.743 238.161 194.35C238.161 193.95 238.078 193.59 237.911 193.27C237.751 192.943 237.518 192.687 237.211 192.5C236.905 192.307 236.538 192.21 236.111 192.21C235.691 192.21 235.328 192.307 235.021 192.5C234.715 192.687 234.478 192.943 234.311 193.27C234.151 193.59 234.071 193.95 234.071 194.35C234.071 194.743 234.151 195.103 234.311 195.43C234.471 195.75 234.701 196.01 235.001 196.21C235.308 196.403 235.678 196.5 236.111 196.5ZM240.431 197V191.71H241.031V193.93H240.911C240.911 193.437 240.984 193.013 241.131 192.66C241.278 192.307 241.498 192.033 241.791 191.84C242.084 191.647 242.454 191.55 242.901 191.55H242.931C243.598 191.55 244.094 191.76 244.421 192.18C244.748 192.593 244.911 193.177 244.911 193.93V197H244.171V193.77C244.171 193.31 244.044 192.94 243.791 192.66C243.538 192.38 243.184 192.24 242.731 192.24C242.264 192.24 241.888 192.387 241.601 192.68C241.321 192.967 241.181 193.347 241.181 193.82V197H240.431Z" fill="#555A7B"/>
<path d="M187.392 215L191.074 204.78H193.398L197.192 215H195.778L192.348 205.676L193.02 206.012H191.368L192.082 205.676L188.764 215H187.392ZM189.59 211.948L190.052 210.716H194.462L194.924 211.948H189.59ZM202.818 215.252C202.202 215.252 201.651 215.117 201.166 214.846C200.69 214.575 200.312 214.183 200.032 213.67C199.752 213.147 199.598 212.522 199.57 211.794H199.934V215H198.87V204.78H200.214V209.75L199.738 210.772C199.775 209.96 199.939 209.297 200.228 208.784C200.517 208.271 200.895 207.893 201.362 207.65C201.838 207.398 202.361 207.272 202.93 207.272C203.462 207.272 203.947 207.375 204.386 207.58C204.825 207.776 205.203 208.051 205.52 208.406C205.837 208.751 206.08 209.157 206.248 209.624C206.416 210.081 206.5 210.576 206.5 211.108V211.36C206.5 211.892 206.411 212.391 206.234 212.858C206.066 213.325 205.819 213.74 205.492 214.104C205.165 214.459 204.773 214.739 204.316 214.944C203.868 215.149 203.369 215.252 202.818 215.252ZM202.664 214.076C203.168 214.076 203.607 213.955 203.98 213.712C204.353 213.469 204.643 213.138 204.848 212.718C205.053 212.289 205.156 211.794 205.156 211.234C205.156 210.674 205.049 210.184 204.834 209.764C204.629 209.344 204.339 209.022 203.966 208.798C203.593 208.565 203.159 208.448 202.664 208.448C202.216 208.448 201.801 208.551 201.418 208.756C201.035 208.952 200.727 209.241 200.494 209.624C200.27 209.997 200.158 210.45 200.158 210.982V211.626C200.158 212.139 200.275 212.578 200.508 212.942C200.741 213.306 201.049 213.586 201.432 213.782C201.815 213.978 202.225 214.076 202.664 214.076ZM211.112 215.224C210.226 215.224 209.544 214.935 209.068 214.356C208.592 213.777 208.354 212.942 208.354 211.85V207.51H209.698V212.116C209.698 212.704 209.857 213.166 210.174 213.502C210.492 213.829 210.921 213.992 211.462 213.992C212.022 213.992 212.48 213.815 212.834 213.46C213.189 213.096 213.366 212.601 213.366 211.976V207.51H214.71V215H213.646V211.794H213.814C213.814 212.531 213.716 213.157 213.52 213.67C213.324 214.174 213.03 214.561 212.638 214.832C212.256 215.093 211.766 215.224 211.168 215.224H211.112ZM215.997 217.856V216.652H216.781C217.136 216.652 217.407 216.554 217.593 216.358C217.789 216.162 217.887 215.891 217.887 215.546V207.524H219.175V215.35C219.175 215.975 219.087 216.47 218.909 216.834C218.741 217.198 218.466 217.459 218.083 217.618C217.71 217.777 217.211 217.856 216.585 217.856H215.997ZM216.711 208.588V207.524H219.175V208.588H216.711ZM218.209 206.208C217.911 206.208 217.687 206.129 217.537 205.97C217.397 205.811 217.327 205.611 217.327 205.368C217.327 205.125 217.397 204.925 217.537 204.766C217.687 204.607 217.911 204.528 218.209 204.528C218.508 204.528 218.727 204.607 218.867 204.766C219.017 204.925 219.091 205.125 219.091 205.368C219.091 205.611 219.017 205.811 218.867 205.97C218.727 206.129 218.508 206.208 218.209 206.208ZM226.279 215V212.76H226.055V210.17C226.055 209.657 225.919 209.269 225.649 209.008C225.387 208.747 225 208.616 224.487 208.616C224.197 208.616 223.899 208.621 223.591 208.63C223.283 208.639 222.989 208.649 222.709 208.658C222.429 208.667 222.186 208.681 221.981 208.7V207.524C222.186 207.505 222.401 207.491 222.625 207.482C222.858 207.463 223.096 207.454 223.339 207.454C223.581 207.445 223.815 207.44 224.039 207.44C224.804 207.44 225.429 207.533 225.915 207.72C226.4 207.897 226.759 208.191 226.993 208.602C227.226 209.013 227.343 209.568 227.343 210.268V215H226.279ZM223.829 215.196C223.269 215.196 222.783 215.103 222.373 214.916C221.971 214.72 221.659 214.44 221.435 214.076C221.22 213.712 221.113 213.273 221.113 212.76C221.113 212.228 221.229 211.785 221.463 211.43C221.705 211.075 222.055 210.809 222.513 210.632C222.97 210.445 223.521 210.352 224.165 210.352H226.195V211.36H224.109C223.567 211.36 223.152 211.491 222.863 211.752C222.573 212.013 222.429 212.349 222.429 212.76C222.429 213.171 222.573 213.502 222.863 213.754C223.152 214.006 223.567 214.132 224.109 214.132C224.426 214.132 224.729 214.076 225.019 213.964C225.308 213.843 225.546 213.647 225.733 213.376C225.929 213.096 226.036 212.713 226.055 212.228L226.419 212.76C226.372 213.292 226.241 213.74 226.027 214.104C225.821 214.459 225.532 214.729 225.159 214.916C224.795 215.103 224.351 215.196 223.829 215.196ZM229.963 217.198L228.885 216.792L230.187 213.18L231.293 213.6L229.963 217.198ZM236.855 215V204.78H239.095L244.289 213.768H244.737L244.457 214.02V204.78H245.773V215H243.505L238.311 206.012H237.863L238.143 205.76V215H236.855ZM248.904 215V207.524H250.248V215H248.904ZM247.756 208.588V207.524H250.248V208.588H247.756ZM249.282 206.32C248.983 206.32 248.759 206.241 248.61 206.082C248.47 205.923 248.4 205.723 248.4 205.48C248.4 205.237 248.47 205.037 248.61 204.878C248.759 204.719 248.983 204.64 249.282 204.64C249.581 204.64 249.8 204.719 249.94 204.878C250.089 205.037 250.164 205.237 250.164 205.48C250.164 205.723 250.089 205.923 249.94 206.082C249.8 206.241 249.581 206.32 249.282 206.32ZM255.675 217.912C255.329 217.912 254.979 217.898 254.625 217.87C254.279 217.842 253.948 217.805 253.631 217.758V216.624C253.967 216.671 254.317 216.708 254.681 216.736C255.054 216.773 255.404 216.792 255.731 216.792C256.412 216.792 256.953 216.699 257.355 216.512C257.765 216.335 258.059 216.05 258.237 215.658C258.423 215.275 258.517 214.781 258.517 214.174V212.746L258.965 211.682C258.937 212.438 258.778 213.068 258.489 213.572C258.199 214.067 257.821 214.44 257.355 214.692C256.897 214.935 256.389 215.056 255.829 215.056C255.306 215.056 254.825 214.958 254.387 214.762C253.957 214.557 253.584 214.277 253.267 213.922C252.959 213.567 252.716 213.161 252.539 212.704C252.371 212.237 252.287 211.747 252.287 211.234V210.982C252.287 210.459 252.375 209.974 252.553 209.526C252.73 209.069 252.977 208.672 253.295 208.336C253.612 208 253.99 207.739 254.429 207.552C254.877 207.365 255.367 207.272 255.899 207.272C256.524 207.272 257.075 207.407 257.551 207.678C258.027 207.939 258.4 208.327 258.671 208.84C258.951 209.344 259.105 209.965 259.133 210.702L258.741 210.716V207.524H259.805V214.118C259.805 215.014 259.665 215.737 259.385 216.288C259.114 216.848 258.675 217.259 258.069 217.52C257.471 217.781 256.673 217.912 255.675 217.912ZM256.081 213.824C256.529 213.824 256.935 213.726 257.299 213.53C257.672 213.334 257.966 213.054 258.181 212.69C258.405 212.317 258.517 211.873 258.517 211.36V210.716C258.517 210.212 258.4 209.787 258.167 209.442C257.943 209.097 257.649 208.835 257.285 208.658C256.921 208.481 256.524 208.392 256.095 208.392C255.609 208.392 255.18 208.504 254.807 208.728C254.433 208.952 254.144 209.269 253.939 209.68C253.733 210.081 253.631 210.557 253.631 211.108C253.631 211.659 253.733 212.139 253.939 212.55C254.153 212.961 254.443 213.278 254.807 213.502C255.18 213.717 255.605 213.824 256.081 213.824ZM265.472 215.252C264.819 215.252 264.254 215.14 263.778 214.916C263.302 214.692 262.915 214.398 262.616 214.034C262.317 213.661 262.093 213.245 261.944 212.788C261.804 212.331 261.734 211.864 261.734 211.388V211.136C261.734 210.651 261.804 210.179 261.944 209.722C262.093 209.265 262.317 208.854 262.616 208.49C262.915 208.117 263.293 207.823 263.75 207.608C264.217 207.384 264.763 207.272 265.388 207.272C266.2 207.272 266.867 207.449 267.39 207.804C267.922 208.149 268.314 208.597 268.566 209.148C268.827 209.699 268.958 210.287 268.958 210.912V211.514H262.322V210.506H267.978L267.67 211.052C267.67 210.52 267.586 210.063 267.418 209.68C267.25 209.288 266.998 208.985 266.662 208.77C266.326 208.555 265.901 208.448 265.388 208.448C264.856 208.448 264.413 208.569 264.058 208.812C263.713 209.055 263.451 209.386 263.274 209.806C263.106 210.226 263.022 210.711 263.022 211.262C263.022 211.794 263.106 212.275 263.274 212.704C263.451 213.124 263.722 213.46 264.086 213.712C264.45 213.955 264.912 214.076 265.472 214.076C266.06 214.076 266.536 213.945 266.9 213.684C267.273 213.423 267.497 213.119 267.572 212.774H268.832C268.729 213.287 268.524 213.731 268.216 214.104C267.908 214.477 267.521 214.762 267.054 214.958C266.587 215.154 266.06 215.252 265.472 215.252ZM270.866 215V207.524H271.93V210.604H271.874C271.874 209.512 272.112 208.714 272.588 208.21C273.073 207.697 273.797 207.44 274.758 207.44H275.01V208.644H274.534C273.787 208.644 273.213 208.845 272.812 209.246C272.411 209.638 272.21 210.207 272.21 210.954V215H270.866ZM276.972 215V207.524H278.316V215H276.972ZM275.824 208.588V207.524H278.316V208.588H275.824ZM277.35 206.32C277.052 206.32 276.828 206.241 276.678 206.082C276.538 205.923 276.468 205.723 276.468 205.48C276.468 205.237 276.538 205.037 276.678 204.878C276.828 204.719 277.052 204.64 277.35 204.64C277.649 204.64 277.868 204.719 278.008 204.878C278.158 205.037 278.232 205.237 278.232 205.48C278.232 205.723 278.158 205.923 278.008 206.082C277.868 206.241 277.649 206.32 277.35 206.32ZM285.437 215V212.76H285.213V210.17C285.213 209.657 285.078 209.269 284.807 209.008C284.546 208.747 284.158 208.616 283.645 208.616C283.356 208.616 283.057 208.621 282.749 208.63C282.441 208.639 282.147 208.649 281.867 208.658C281.587 208.667 281.344 208.681 281.139 208.7V207.524C281.344 207.505 281.559 207.491 281.783 207.482C282.016 207.463 282.254 207.454 282.497 207.454C282.74 207.445 282.973 207.44 283.197 207.44C283.962 207.44 284.588 207.533 285.073 207.72C285.558 207.897 285.918 208.191 286.151 208.602C286.384 209.013 286.501 209.568 286.501 210.268V215H285.437ZM282.987 215.196C282.427 215.196 281.942 215.103 281.531 214.916C281.13 214.72 280.817 214.44 280.593 214.076C280.378 213.712 280.271 213.273 280.271 212.76C280.271 212.228 280.388 211.785 280.621 211.43C280.864 211.075 281.214 210.809 281.671 210.632C282.128 210.445 282.679 210.352 283.323 210.352H285.353V211.36H283.267C282.726 211.36 282.31 211.491 282.021 211.752C281.732 212.013 281.587 212.349 281.587 212.76C281.587 213.171 281.732 213.502 282.021 213.754C282.31 214.006 282.726 214.132 283.267 214.132C283.584 214.132 283.888 214.076 284.177 213.964C284.466 213.843 284.704 213.647 284.891 213.376C285.087 213.096 285.194 212.713 285.213 212.228L285.577 212.76C285.53 213.292 285.4 213.74 285.185 214.104C284.98 214.459 284.69 214.729 284.317 214.916C283.953 215.103 283.51 215.196 282.987 215.196Z" fill="#02093A"/>
<path d="M413 210C413 210.265 413.105 210.52 413.293 210.707C413.48 210.895 413.735 211 414 211C414.265 211 414.52 210.895 414.707 210.707C414.895 210.52 415 210.265 415 210C415 209.735 414.895 209.48 414.707 209.293C414.52 209.105 414.265 209 414 209C413.735 209 413.48 209.105 413.293 209.293C413.105 209.48 413 209.735 413 210ZM407 210C407 210.265 407.105 210.52 407.293 210.707C407.48 210.895 407.735 211 408 211C408.265 211 408.52 210.895 408.707 210.707C408.895 210.52 409 210.265 409 210C409 209.735 408.895 209.48 408.707 209.293C408.52 209.105 408.265 209 408 209C407.735 209 407.48 209.105 407.293 209.293C407.105 209.48 407 209.735 407 210ZM413 204C413 204.265 413.105 204.52 413.293 204.707C413.48 204.895 413.735 205 414 205C414.265 205 414.52 204.895 414.707 204.707C414.895 204.52 415 204.265 415 204C415 203.735 414.895 203.48 414.707 203.293C414.52 203.105 414.265 203 414 203C413.735 203 413.48 203.105 413.293 203.293C413.105 203.48 413 203.735 413 204ZM407 204C407 204.265 407.105 204.52 407.293 204.707C407.48 204.895 407.735 205 408 205C408.265 205 408.52 204.895 408.707 204.707C408.895 204.52 409 204.265 409 204C409 203.735 408.895 203.48 408.707 203.293C408.52 203.105 408.265 203 408 203C407.735 203 407.48 203.105 407.293 203.293C407.105 203.48 407 203.735 407 204ZM413 198C413 198.265 413.105 198.52 413.293 198.707C413.48 198.895 413.735 199 414 199C414.265 199 414.52 198.895 414.707 198.707C414.895 198.52 415 198.265 415 198C415 197.735 414.895 197.48 414.707 197.293C414.52 197.105 414.265 197 414 197C413.735 197 413.48 197.105 413.293 197.293C413.105 197.48 413 197.735 413 198ZM407 198C407 198.265 407.105 198.52 407.293 198.707C407.48 198.895 407.735 199 408 199C408.265 199 408.52 198.895 408.707 198.707C408.895 198.52 409 198.265 409 198C409 197.735 408.895 197.48 408.707 197.293C408.52 197.105 408.265 197 408 197C407.735 197 407.48 197.105 407.293 197.293C407.105 197.48 407 197.735 407 198Z" stroke="#8B8EA4" stroke-width="2" stroke-linecap="round" stroke-linejoin="round"/>
<path d="M461.758 209.243L467.001 204L472.244 209.243M472.244 198.757L467 204L461.758 198.757" stroke="#EF4444" stroke-width="1.5" stroke-linecap="round" stroke-linejoin="round"/>
<path fill-rule="evenodd" clip-rule="evenodd" d="M153.53 15.4697C153.823 15.7626 153.823 16.2374 153.53 16.5303L148.811 21.25H163C163.414 21.25 163.75 21.5858 163.75 22C163.75 22.4142 163.414 22.75 163 22.75H148.811L153.53 27.4697C153.823 27.7626 153.823 28.2374 153.53 28.5303C153.237 28.8232 152.763 28.8232 152.47 28.5303L146.47 22.5303C146.177 22.2374 146.177 21.7626 146.47 21.4697L152.47 15.4697C152.763 15.1768 153.237 15.1768 153.53 15.4697Z" fill="#02093A"/>
<path d="M438.802 29.252C437.953 29.252 437.229 29.112 436.632 28.832C436.035 28.552 435.577 28.1647 435.26 27.67C434.943 27.1753 434.784 26.6153 434.784 25.99H436.156C436.156 26.298 436.235 26.606 436.394 26.914C436.562 27.222 436.837 27.4787 437.22 27.684C437.612 27.8893 438.139 27.992 438.802 27.992C439.418 27.992 439.922 27.9033 440.314 27.726C440.706 27.5393 440.995 27.3013 441.182 27.012C441.369 26.7133 441.462 26.3913 441.462 26.046C441.462 25.626 441.28 25.2807 440.916 25.01C440.552 24.73 440.02 24.5573 439.32 24.492L438.186 24.394C437.281 24.3193 436.557 24.0393 436.016 23.554C435.475 23.0687 435.204 22.4293 435.204 21.636C435.204 21.0107 435.353 20.4647 435.652 19.998C435.96 19.5313 436.385 19.1673 436.926 18.906C437.467 18.6353 438.097 18.5 438.816 18.5C439.525 18.5 440.151 18.6307 440.692 18.892C441.233 19.1533 441.653 19.522 441.952 19.998C442.26 20.4647 442.414 21.0247 442.414 21.678H441.042C441.042 21.3513 440.963 21.0433 440.804 20.754C440.655 20.4647 440.417 20.2267 440.09 20.04C439.763 19.8533 439.339 19.76 438.816 19.76C438.312 19.76 437.892 19.8487 437.556 20.026C437.229 20.2033 436.982 20.4367 436.814 20.726C436.655 21.006 436.576 21.3093 436.576 21.636C436.576 22.0093 436.721 22.3407 437.01 22.63C437.299 22.9193 437.729 23.0873 438.298 23.134L439.432 23.232C440.132 23.288 440.734 23.4373 441.238 23.68C441.751 23.9133 442.143 24.2307 442.414 24.632C442.694 25.024 442.834 25.4953 442.834 26.046C442.834 26.6713 442.666 27.2267 442.33 27.712C441.994 28.1973 441.523 28.5753 440.916 28.846C440.309 29.1167 439.605 29.252 438.802 29.252ZM449.462 29V26.76H449.238V24.17C449.238 23.6567 449.103 23.2693 448.832 23.008C448.571 22.7467 448.184 22.616 447.67 22.616C447.381 22.616 447.082 22.6207 446.774 22.63C446.466 22.6393 446.172 22.6487 445.892 22.658C445.612 22.6673 445.37 22.6813 445.164 22.7V21.524C445.37 21.5053 445.584 21.4913 445.808 21.482C446.042 21.4633 446.28 21.454 446.522 21.454C446.765 21.4447 446.998 21.44 447.222 21.44C447.988 21.44 448.613 21.5333 449.098 21.72C449.584 21.8973 449.943 22.1913 450.176 22.602C450.41 23.0127 450.526 23.568 450.526 24.268V29H449.462ZM447.012 29.196C446.452 29.196 445.967 29.1027 445.556 28.916C445.155 28.72 444.842 28.44 444.618 28.076C444.404 27.712 444.296 27.2733 444.296 26.76C444.296 26.228 444.413 25.7847 444.646 25.43C444.889 25.0753 445.239 24.8093 445.696 24.632C446.154 24.4453 446.704 24.352 447.348 24.352H449.378V25.36H447.292C446.751 25.36 446.336 25.4907 446.046 25.752C445.757 26.0133 445.612 26.3493 445.612 26.76C445.612 27.1707 445.757 27.502 446.046 27.754C446.336 28.006 446.751 28.132 447.292 28.132C447.61 28.132 447.913 28.076 448.202 27.964C448.492 27.8427 448.73 27.6467 448.916 27.376C449.112 27.096 449.22 26.7133 449.238 26.228L449.602 26.76C449.556 27.292 449.425 27.74 449.21 28.104C449.005 28.4587 448.716 28.7293 448.342 28.916C447.978 29.1027 447.535 29.196 447.012 29.196ZM454.562 29L452.014 21.524H453.414L455.906 29H454.562ZM454.898 29V27.936H456.522V29H454.898ZM455.542 29L457.712 21.524H459.028L456.816 29H455.542ZM463.827 29.252C463.174 29.252 462.609 29.14 462.133 28.916C461.657 28.692 461.27 28.398 460.971 28.034C460.673 27.6607 460.449 27.2453 460.299 26.788C460.159 26.3307 460.089 25.864 460.089 25.388V25.136C460.089 24.6507 460.159 24.1793 460.299 23.722C460.449 23.2647 460.673 22.854 460.971 22.49C461.27 22.1167 461.648 21.8227 462.105 21.608C462.572 21.384 463.118 21.272 463.743 21.272C464.555 21.272 465.223 21.4493 465.745 21.804C466.277 22.1493 466.669 22.5973 466.921 23.148C467.183 23.6987 467.313 24.2867 467.313 24.912V25.514H460.677V24.506H466.333L466.025 25.052C466.025 24.52 465.941 24.0627 465.773 23.68C465.605 23.288 465.353 22.9847 465.017 22.77C464.681 22.5553 464.257 22.448 463.743 22.448C463.211 22.448 462.768 22.5693 462.413 22.812C462.068 23.0547 461.807 23.386 461.629 23.806C461.461 24.226 461.377 24.7113 461.377 25.262C461.377 25.794 461.461 26.2747 461.629 26.704C461.807 27.124 462.077 27.46 462.441 27.712C462.805 27.9547 463.267 28.076 463.827 28.076C464.415 28.076 464.891 27.9453 465.255 27.684C465.629 27.4227 465.853 27.1193 465.927 26.774H467.187C467.085 27.2873 466.879 27.7307 466.571 28.104C466.263 28.4773 465.876 28.762 465.409 28.958C464.943 29.154 464.415 29.252 463.827 29.252ZM472.344 29.252C471.812 29.252 471.322 29.154 470.874 28.958C470.426 28.762 470.034 28.4867 469.698 28.132C469.371 27.7773 469.114 27.3667 468.928 26.9C468.75 26.4333 468.662 25.9293 468.662 25.388V25.136C468.662 24.604 468.75 24.1047 468.928 23.638C469.105 23.1713 469.352 22.7607 469.67 22.406C469.996 22.0513 470.379 21.776 470.818 21.58C471.266 21.3747 471.76 21.272 472.302 21.272C472.871 21.272 473.389 21.3933 473.856 21.636C474.322 21.8693 474.705 22.238 475.004 22.742C475.302 23.246 475.47 23.8993 475.508 24.702L474.948 23.806V18.78H476.292V29H475.228V25.682H475.62C475.582 26.5313 475.405 27.222 475.088 27.754C474.77 28.2767 474.369 28.6593 473.884 28.902C473.408 29.1353 472.894 29.252 472.344 29.252ZM472.526 28.076C472.983 28.076 473.398 27.9733 473.772 27.768C474.145 27.5627 474.444 27.2687 474.668 26.886C474.892 26.494 475.004 26.0367 475.004 25.514V24.87C475.004 24.3567 474.887 23.9227 474.654 23.568C474.43 23.204 474.126 22.9287 473.744 22.742C473.37 22.546 472.96 22.448 472.512 22.448C472.017 22.448 471.578 22.5647 471.196 22.798C470.822 23.0313 470.528 23.358 470.314 23.778C470.108 24.198 470.006 24.6927 470.006 25.262C470.006 25.8313 470.113 26.3307 470.328 26.76C470.542 27.18 470.841 27.5067 471.224 27.74C471.606 27.964 472.04 28.076 472.526 28.076Z" fill="#A20602"/>
</g>
</g>
<rect x="126" y="27" width="369" height="262" rx="22" stroke="black" stroke-width="6"/>
</g>
<defs>
<clipPath id="clip0_4986_5035">
<rect width="621" height="248" fill="white"/>
</clipPath>
<clipPath id="clip1_4986_5035">
<rect x="123" y="24" width="375" height="268" rx="25" fill="white"/>
</clipPath>
<clipPath id="clip2_4986_5035">
<rect x="123" y="-56" width="375" height="812" rx="25" fill="white"/>
</clipPath>
</defs>
</svg>
