<svg width="24" height="20" viewBox="0 0 24 20" fill="none" xmlns="http://www.w3.org/2000/svg">
<path fill-rule="evenodd" clip-rule="evenodd" d="M11.9436 1.0415H12.0564C12.7182 1.0415 13.3304 1.04149 13.8961 1.04745C13.9301 1.04353 13.9648 1.0415 14 1.0415C14.0428 1.0415 14.0848 1.0445 14.1257 1.05025C15.0329 1.06287 15.8162 1.09373 16.489 1.16912C17.6614 1.30047 18.6104 1.57724 19.3588 2.20087C20.1071 2.82451 20.4392 3.6153 20.5969 4.59232C20.75 5.54166 20.75 6.75469 20.75 8.28616V10.0468C20.75 10.3087 20.75 10.5613 20.7492 10.8048C20.7497 10.8142 20.75 10.8237 20.75 10.8332C20.75 10.8439 20.7497 10.8546 20.749 10.8651C20.7448 12.0185 20.7217 12.9671 20.5969 13.7407C20.4392 14.7177 20.1071 15.5085 19.3588 16.1321C18.9533 16.47 18.4889 16.7061 17.962 16.8724L18.6708 18.0537C18.8561 18.3624 18.7059 18.7378 18.3354 18.8922C17.9649 19.0466 17.5144 18.9214 17.3292 18.6127L16.4617 17.1669C15.3266 17.2915 13.8795 17.2915 12.0564 17.2915H11.9436C10.1205 17.2915 8.67342 17.2915 7.53828 17.1669L6.67082 18.6127C6.48558 18.9214 6.03507 19.0466 5.66459 18.8922C5.29411 18.7378 5.14394 18.3624 5.32918 18.0537L6.03795 16.8724C5.51107 16.7061 5.04672 16.47 4.64124 16.1321C3.89288 15.5085 3.56076 14.7177 3.40314 13.7407C3.27833 12.9671 3.25523 12.0185 3.25096 10.8651C3.25032 10.8545 3.25 10.8439 3.25 10.8332C3.25 10.8237 3.25026 10.8142 3.25076 10.8048C3.24999 10.5613 3.25 10.3087 3.25 10.0469V8.28616C3.24998 6.75469 3.24997 5.54166 3.40314 4.59232C3.56076 3.6153 3.89288 2.82451 4.64124 2.20087C5.38961 1.57724 6.33856 1.30047 7.51098 1.16912C8.18385 1.09373 8.96711 1.06287 9.87429 1.05025C9.91517 1.0445 9.95716 1.0415 10 1.0415C10.0352 1.0415 10.0699 1.04353 10.1039 1.04745C10.6696 1.0415 11.2818 1.0415 11.9436 1.0415ZM9.26364 2.31286C8.67113 2.32909 8.15979 2.35767 7.71085 2.40797C6.70476 2.52069 6.12511 2.73208 5.7019 3.08476C5.27869 3.43743 5.02502 3.92047 4.88976 4.75888C4.75159 5.61526 4.75 6.74415 4.75 8.33317V9.99984C4.75 10.0702 4.75 10.1396 4.75002 10.2082H19.25C19.25 10.1396 19.25 10.0702 19.25 9.99984V8.33317C19.25 6.74415 19.2484 5.61526 19.1102 4.75888C18.975 3.92047 18.7213 3.43743 18.2981 3.08476C17.8749 2.73208 17.2952 2.52069 16.2892 2.40797C15.8402 2.35767 15.3289 2.32909 14.7364 2.31286C14.5981 3.47066 13.4258 4.37484 12 4.37484C10.5742 4.37484 9.40191 3.47066 9.26364 2.31286ZM13.2246 2.29306C13.1081 2.76775 12.6041 3.12484 12 3.12484C11.3959 3.12484 10.8919 2.76775 10.7754 2.29306C11.1565 2.29157 11.5638 2.2915 12 2.2915C12.4362 2.2915 12.8435 2.29157 13.2246 2.29306ZM19.2443 11.4582H4.75573C4.76662 12.3195 4.79821 13.0067 4.88976 13.5741C5.02502 14.4125 5.27869 14.8956 5.7019 15.2483C6.12511 15.6009 6.70476 15.8123 7.71085 15.925C8.73851 16.0402 10.0932 16.0415 12 16.0415C13.9068 16.0415 15.2615 16.0402 16.2892 15.925C17.2952 15.8123 17.8749 15.6009 18.2981 15.2483C18.7213 14.8956 18.975 14.4125 19.1102 13.5741C19.2018 13.0067 19.2334 12.3195 19.2443 11.4582ZM6.25 13.3332C6.25 12.988 6.58579 12.7082 7 12.7082H8.5C8.91421 12.7082 9.25 12.988 9.25 13.3332C9.25 13.6783 8.91421 13.9582 8.5 13.9582H7C6.58579 13.9582 6.25 13.6783 6.25 13.3332ZM14.75 13.3332C14.75 12.988 15.0858 12.7082 15.5 12.7082H17C17.4142 12.7082 17.75 12.988 17.75 13.3332C17.75 13.6783 17.4142 13.9582 17 13.9582H15.5C15.0858 13.9582 14.75 13.6783 14.75 13.3332Z" fill="#02093A"/>
</svg>
