<svg width="40" height="40" viewBox="0 0 40 40" fill="none" xmlns="http://www.w3.org/2000/svg">
<rect width="40" height="40" rx="5" fill="#DC2626"/>
<path d="M27 20C27 20.5523 26.5523 21 26 21C25.4477 21 25 20.5523 25 20C25 19.4477 25.4477 19 26 19C26.5523 19 27 19.4477 27 20Z" fill="white"/>
<path fill-rule="evenodd" clip-rule="evenodd" d="M17.9436 11.25H21.0564C22.8942 11.25 24.3498 11.25 25.489 11.4031C26.6614 11.5608 27.6104 11.8929 28.3588 12.6412C29.2831 13.5656 29.5777 14.8036 29.6847 16.4101C30.2619 16.6641 30.6978 17.2013 30.7458 17.8818C30.7501 17.942 30.75 18.0069 30.75 18.067C30.75 18.0725 30.75 18.0779 30.75 18.0833V21.9167C30.75 21.9221 30.75 21.9275 30.75 21.933C30.75 21.9931 30.7501 22.058 30.7458 22.1182C30.6978 22.7987 30.2619 23.3359 29.6847 23.5899C29.5777 25.1964 29.2831 26.4344 28.3588 27.3588C27.6104 28.1071 26.6614 28.4392 25.489 28.5969C24.3498 28.75 22.8942 28.75 21.0564 28.75H17.9436C16.1058 28.75 14.6502 28.75 13.511 28.5969C12.3386 28.4392 11.3896 28.1071 10.6412 27.3588C9.89288 26.6104 9.56076 25.6614 9.40314 24.489C9.24997 23.3498 9.24998 21.8942 9.25 20.0564V19.9436C9.24998 18.1058 9.24997 16.6502 9.40314 15.511C9.56076 14.3386 9.89288 13.3896 10.6412 12.6412C11.3896 11.8929 12.3386 11.5608 13.511 11.4031C14.6502 11.25 16.1058 11.25 17.9436 11.25ZM28.1679 23.75H26.2308C24.0856 23.75 22.25 22.1224 22.25 20C22.25 17.8776 24.0856 16.25 26.2308 16.25H28.1679C28.0541 14.9085 27.7966 14.2004 27.2981 13.7019C26.8749 13.2787 26.2952 13.025 25.2892 12.8898C24.2615 12.7516 22.9068 12.75 21 12.75H18C16.0932 12.75 14.7385 12.7516 13.7108 12.8898C12.7048 13.025 12.1251 13.2787 11.7019 13.7019C11.2787 14.1251 11.025 14.7048 10.8898 15.7108C10.7516 16.7385 10.75 18.0932 10.75 20C10.75 21.9068 10.7516 23.2615 10.8898 24.2892C11.025 25.2952 11.2787 25.8749 11.7019 26.2981C12.1251 26.7213 12.7048 26.975 13.7108 27.1102C14.7385 27.2484 16.0932 27.25 18 27.25H21C22.9068 27.25 24.2615 27.2484 25.2892 27.1102C26.2952 26.975 26.8749 26.7213 27.2981 26.2981C27.7966 25.7996 28.0541 25.0915 28.1679 23.75ZM13.25 16C13.25 15.5858 13.5858 15.25 14 15.25H18C18.4142 15.25 18.75 15.5858 18.75 16C18.75 16.4142 18.4142 16.75 18 16.75H14C13.5858 16.75 13.25 16.4142 13.25 16ZM28.9235 17.7502C28.9032 17.75 28.8766 17.75 28.8333 17.75H26.2308C24.8074 17.75 23.75 18.8087 23.75 20C23.75 21.1913 24.8074 22.25 26.2308 22.25H28.8333C28.8766 22.25 28.9032 22.25 28.9235 22.2498C28.936 22.2496 28.9426 22.2495 28.9457 22.2493L28.9479 22.2492C29.1541 22.2367 29.2427 22.0976 29.2495 22.0139C29.2495 22.0139 29.2497 22.0076 29.2498 21.9986C29.25 21.9808 29.25 21.9572 29.25 21.9167V18.0833C29.25 18.0428 29.25 18.0192 29.2498 18.0014C29.2497 17.9924 29.2495 17.9861 29.2495 17.9861C29.2427 17.9024 29.1541 17.7633 28.9479 17.7508C28.9479 17.7508 28.943 17.7504 28.9235 17.7502Z" fill="white"/>
</svg>
