<svg width="20" height="20" viewBox="0 0 20 20" fill="none" xmlns="http://www.w3.org/2000/svg">
<path fill-rule="evenodd" clip-rule="evenodd" d="M3.54175 7.09537C3.54175 3.71037 6.4763 1.0415 10.0001 1.0415C13.5239 1.0415 16.4584 3.71037 16.4584 7.09537C16.4584 10.2713 14.4893 13.9999 11.3124 15.3575C10.4784 15.7139 9.52179 15.7139 8.68776 15.3575C5.51082 13.9999 3.54175 10.2713 3.54175 7.09537ZM10.0001 2.2915C7.08054 2.2915 4.79175 4.48381 4.79175 7.09537C4.79175 9.86898 6.54627 13.083 9.17896 14.2081C9.69925 14.4304 10.3009 14.4304 10.8212 14.2081C13.4539 13.083 15.2084 9.86898 15.2084 7.09537C15.2084 4.48381 12.9196 2.2915 10.0001 2.2915ZM10.0001 6.45817C9.42478 6.45817 8.95841 6.92454 8.95841 7.49984C8.95841 8.07513 9.42478 8.5415 10.0001 8.5415C10.5754 8.5415 11.0417 8.07513 11.0417 7.49984C11.0417 6.92454 10.5754 6.45817 10.0001 6.45817ZM7.70841 7.49984C7.70841 6.23418 8.73443 5.20817 10.0001 5.20817C11.2657 5.20817 12.2917 6.23418 12.2917 7.49984C12.2917 8.76549 11.2657 9.7915 10.0001 9.7915C8.73443 9.7915 7.70841 8.76549 7.70841 7.49984ZM2.99626 12.497C3.22795 12.7529 3.20835 13.1481 2.95248 13.3798C2.4794 13.8082 2.29175 14.2182 2.29175 14.5832C2.29175 15.2196 2.89509 16.0039 4.364 16.6649C5.77425 17.2995 7.76634 17.7082 10.0001 17.7082C12.2338 17.7082 14.2259 17.2995 15.6362 16.6649C17.1051 16.0039 17.7084 15.2196 17.7084 14.5832C17.7084 14.2182 17.5208 13.8082 17.0477 13.3798C16.7918 13.1481 16.7722 12.7529 17.0039 12.497C17.2356 12.2411 17.6308 12.2215 17.8867 12.4532C18.5225 13.029 18.9584 13.7507 18.9584 14.5832C18.9584 16.0178 17.6963 17.1085 16.1491 17.8048C14.5433 18.5274 12.3687 18.9582 10.0001 18.9582C7.63145 18.9582 5.45687 18.5274 3.85105 17.8048C2.30389 17.1085 1.04175 16.0178 1.04175 14.5832C1.04175 13.7507 1.47762 13.029 2.11346 12.4532C2.36933 12.2215 2.76457 12.2411 2.99626 12.497Z" fill="#A20602"/>
</svg>
